Glegoo-deva-regular-ufocentral.ufo
<glyph name="exclam" format="1">
  <advance width="316"/>
  <unicode hex="0021"/>
  <outline>
    <contour>
      <point x="157" y="-8" type="curve" smooth="yes"/>
      <point x="113" y="-8"/>
      <point x="110" y="23"/>
      <point x="110" y="50" type="curve" smooth="yes"/>
      <point x="110" y="78"/>
      <point x="113" y="109"/>
      <point x="157" y="109" type="curve" smooth="yes"/>
      <point x="203" y="109"/>
      <point x="206" y="78"/>
      <point x="206" y="50" type="curve" smooth="yes"/>
      <point x="206" y="23"/>
      <point x="203" y="-8"/>
    </contour>
    <contour>
      <point x="117" y="730" type="line"/>
      <point x="117" y="572" type="line"/>
      <point x="135" y="185" type="line"/>
      <point x="179" y="185" type="line"/>
      <point x="197" y="572" type="line"/>
      <point x="197" y="730" type="line"/>
    </contour>
  </outline>
</glyph>
<glyph name="dollar" format="1">
  <advance width="580"/>
  <unicode hex="0024"/>
  <outline>
    <contour>
      <point x="338" y="295" type="line" smooth="yes"/>
      <point x="412" y="282"/>
      <point x="442" y="241"/>
      <point x="442" y="181" type="curve" smooth="yes"/>
      <point x="442" y="96"/>
      <point x="410" y="45"/>
      <point x="292" y="45" type="curve" smooth="yes"/>
      <point x="174" y="45"/>
      <point x="135" y="95"/>
      <point x="135" y="185" type="curve"/>
      <point x="73" y="181" type="line"/>
      <point x="73" y="60"/>
      <point x="127" y="-14"/>
      <point x="292" y="-14" type="curve" smooth="yes"/>
      <point x="458" y="-14"/>
      <point x="512" y="64"/>
      <point x="512" y="181" type="curve" smooth="yes"/>
      <point x="512" y="284"/>
      <point x="462" y="342"/>
      <point x="338" y="361" type="curve" smooth="yes"/>
      <point x="246" y="375" type="line" smooth="yes"/>
      <point x="177" y="386"/>
      <point x="153" y="429"/>
      <point x="153" y="489" type="curve" smooth="yes"/>
      <point x="153" y="574"/>
      <point x="183" y="625"/>
      <point x="293" y="625" type="curve" smooth="yes"/>
      <point x="403" y="625"/>
      <point x="440" y="577"/>
      <point x="440" y="487" type="curve"/>
      <point x="502" y="491" type="line"/>
      <point x="502" y="612"/>
      <point x="448" y="684"/>
      <point x="291" y="684" type="curve" smooth="yes"/>
      <point x="134" y="684"/>
      <point x="83" y="612"/>
      <point x="83" y="489" type="curve" smooth="yes"/>
      <point x="83" y="386"/>
      <point x="128" y="327"/>
      <point x="246" y="309" type="curve" smooth="yes"/>
    </contour>
    <contour>
      <point x="266" y="-74" type="line"/>
      <point x="316" y="-74" type="line"/>
      <point x="316" y="744" type="line"/>
      <point x="266" y="744" type="line"/>
    </contour>
  </outline>
</glyph>
<glyph name="ampersand" format="1">
  <advance width="609"/>
  <unicode hex="0026"/>
  <outline>
    <contour>
      <point x="276" y="655" type="curve" smooth="yes"/>
      <point x="173" y="655"/>
      <point x="144" y="602"/>
      <point x="144" y="521" type="curve" smooth="yes"/>
      <point x="144" y="447"/>
      <point x="190" y="385"/>
      <point x="272" y="385" type="curve" smooth="yes"/>
      <point x="609" y="385" type="line"/>
      <point x="609" y="341" type="line"/>
      <point x="272" y="341" type="line" smooth="yes"/>
      <point x="161" y="341"/>
      <point x="74" y="413"/>
      <point x="74" y="525" type="curve" smooth="yes"/>
      <point x="74" y="638"/>
      <point x="125" y="714"/>
      <point x="275" y="714" type="curve" smooth="yes"/>
      <point x="412" y="714"/>
      <point x="463" y="638"/>
      <point x="463" y="520" type="curve"/>
      <point x="401" y="520" type="line"/>
      <point x="401" y="601"/>
      <point x="369" y="655"/>
    </contour>
    <contour>
      <point x="55" y="182" type="curve" smooth="yes"/>
      <point x="55" y="316"/>
      <point x="146" y="379"/>
      <point x="251" y="379" type="curve" smooth="yes"/>
      <point x="609" y="379" type="line"/>
      <point x="609" y="331" type="line"/>
      <point x="263" y="331" type="line" smooth="yes"/>
      <point x="161" y="331"/>
      <point x="125" y="264"/>
      <point x="125" y="178" type="curve" smooth="yes"/>
      <point x="125" y="94"/>
      <point x="168" y="45"/>
      <point x="281" y="45" type="curve" smooth="yes"/>
      <point x="396" y="45"/>
      <point x="434" y="98"/>
      <point x="434" y="179" type="curve" smooth="yes"/>
      <point x="434" y="331" type="line"/>
      <point x="496" y="331" type="line"/>
      <point x="496" y="179" type="line" smooth="yes"/>
      <point x="496" y="58"/>
      <point x="443" y="-14"/>
      <point x="281" y="-14" type="curve" smooth="yes"/>
      <point x="124" y="-14"/>
      <point x="55" y="56"/>
    </contour>
  </outline>
</glyph>
<glyph name="parenleft" format="1">
  <advance width="294"/>
  <unicode hex="0028"/>
  <outline>
    <contour>
      <point x="289" y="-66" type="line"/>
      <point x="88" y="-66"/>
      <point x="65" y="84"/>
      <point x="65" y="335" type="curve" smooth="yes"/>
      <point x="65" y="583"/>
      <point x="88" y="735"/>
      <point x="289" y="735" type="curve"/>
      <point x="289" y="673" type="line"/>
      <point x="156" y="673"/>
      <point x="142" y="546"/>
      <point x="142" y="335" type="curve" smooth="yes"/>
      <point x="142" y="123"/>
      <point x="156" y="-4"/>
      <point x="289" y="-4" type="curve"/>
    </contour>
  </outline>
</glyph>
<glyph name="comma" format="1">
  <advance width="226"/>
  <unicode hex="002C"/>
  <outline>
    <contour>
      <point x="65" y="50" type="curve" smooth="yes"/>
      <point x="65" y="25"/>
      <point x="77" y="5"/>
      <point x="77" y="-14" type="curve" smooth="yes"/>
      <point x="77" y="-57"/>
      <point x="59" y="-74"/>
      <point x="38" y="-93" type="curve"/>
      <point x="61" y="-120" type="line"/>
      <point x="61" y="-120"/>
      <point x="161" y="-51"/>
      <point x="161" y="50" type="curve" smooth="yes"/>
      <point x="161" y="78"/>
      <point x="158" y="109"/>
      <point x="112" y="109" type="curve" smooth="yes"/>
      <point x="68" y="109"/>
      <point x="65" y="78"/>
    </contour>
  </outline>
</glyph>
<glyph name="four" format="1">
  <advance width="580"/>
  <unicode hex="0034"/>
  <outline>
    <contour>
      <point x="325" y="670" type="line"/>
      <point x="32" y="208" type="line"/>
      <point x="32" y="150" type="line"/>
      <point x="521" y="150" type="line"/>
      <point x="521" y="209" type="line"/>
      <point x="111" y="209" type="line"/>
      <point x="403" y="670" type="line"/>
    </contour>
    <contour>
      <point x="437" y="0" type="line"/>
      <point x="437" y="670" type="line"/>
      <point x="366" y="670" type="line"/>
      <point x="366" y="0" type="line"/>
    </contour>
  </outline>
</glyph>
<glyph name="seven" format="1">
  <advance width="580"/>
  <unicode hex="0037"/>
  <outline>
    <contour>
      <point x="251" y="0" type="line"/>
      <point x="515" y="614" type="line"/>
      <point x="515" y="670" type="line"/>
      <point x="86" y="670" type="line"/>
      <point x="86" y="611" type="line"/>
      <point x="438" y="611" type="line"/>
      <point x="174" y="0" type="line"/>
    </contour>
    <contour>
      <point x="86" y="508" type="line"/>
      <point x="139" y="508" type="line"/>
      <point x="139" y="611" type="line"/>
      <point x="86" y="611" type="line"/>
    </contour>
  </outline>
</glyph>
<glyph name="eight" format="1">
  <advance width="580"/>
  <unicode hex="0038"/>
  <outline>
    <contour>
      <point x="262" y="315" type="line"/>
      <point x="177" y="302"/>
      <point x="136" y="256"/>
      <point x="136" y="170" type="curve" smooth="yes"/>
      <point x="136" y="94"/>
      <point x="175" y="45"/>
      <point x="289" y="45" type="curve" smooth="yes"/>
      <point x="403" y="45"/>
      <point x="444" y="94"/>
      <point x="444" y="170" type="curve" smooth="yes"/>
      <point x="444" y="250"/>
      <point x="417" y="289"/>
      <point x="334" y="302" type="curve" smooth="yes"/>
      <point x="252" y="315" type="line" smooth="yes"/>
      <point x="132" y="334"/>
      <point x="75" y="383"/>
      <point x="75" y="490" type="curve" smooth="yes"/>
      <point x="75" y="608"/>
      <point x="128" y="684"/>
      <point x="290" y="684" type="curve" smooth="yes"/>
      <point x="452" y="684"/>
      <point x="505" y="608"/>
      <point x="505" y="490" type="curve" smooth="yes"/>
      <point x="505" y="383"/>
      <point x="436" y="337"/>
      <point x="316" y="318" type="curve"/>
      <point x="309" y="358" type="line"/>
      <point x="394" y="371"/>
      <point x="435" y="416"/>
      <point x="435" y="490" type="curve" smooth="yes"/>
      <point x="435" y="571"/>
      <point x="405" y="625"/>
      <point x="290" y="625" type="curve" smooth="yes"/>
      <point x="175" y="625"/>
      <point x="145" y="571"/>
      <point x="145" y="490" type="curve" smooth="yes"/>
      <point x="145" y="416"/>
      <point x="171" y="381"/>
      <point x="256" y="368" type="curve" smooth="yes"/>
      <point x="337" y="355" type="line" smooth="yes"/>
      <point x="457" y="335"/>
      <point x="514" y="287"/>
      <point x="514" y="170" type="curve" smooth="yes"/>
      <point x="514" y="52"/>
      <point x="445" y="-14"/>
      <point x="290" y="-14" type="curve" smooth="yes"/>
      <point x="135" y="-14"/>
      <point x="66" y="52"/>
      <point x="66" y="170" type="curve" smooth="yes"/>
      <point x="66" y="287"/>
      <point x="135" y="335"/>
      <point x="255" y="354" type="curve"/>
    </contour>
  </outline>
</glyph>
<glyph name="B" format="1">
  <advance width="629"/>
  <unicode hex="0042"/>
  <outline>
    <contour>
      <point x="130" y="730" type="line"/>
      <point x="130" y="0" type="line"/>
      <point x="202" y="0" type="line"/>
      <point x="202" y="730" type="line"/>
    </contour>
    <contour>
      <point x="360" y="0" type="line" smooth="yes"/>
      <point x="553" y="0"/>
      <point x="579" y="93"/>
      <point x="579" y="195" type="curve" smooth="yes"/>
      <point x="579" y="297"/>
      <point x="553" y="385"/>
      <point x="360" y="385" type="curve" smooth="yes"/>
      <point x="130" y="385" type="line"/>
      <point x="130" y="0" type="line"/>
    </contour>
    <contour>
      <point x="202" y="59" type="line"/>
      <point x="202" y="343" type="line"/>
      <point x="360" y="343" type="line" smooth="yes"/>
      <point x="488" y="343"/>
      <point x="507" y="280"/>
      <point x="507" y="199" type="curve" smooth="yes"/>
      <point x="507" y="120"/>
      <point x="488" y="59"/>
      <point x="360" y="59" type="curve" smooth="yes"/>
    </contour>
    <contour>
      <point x="320" y="361" type="line" smooth="yes"/>
      <point x="513" y="361"/>
      <point x="539" y="446"/>
      <point x="539" y="543" type="curve" smooth="yes"/>
      <point x="539" y="640"/>
      <point x="513" y="730"/>
      <point x="320" y="730" type="curve" smooth="yes"/>
      <point x="130" y="730" type="line"/>
      <point x="130" y="361" type="line"/>
    </contour>
    <contour>
      <point x="202" y="404" type="line"/>
      <point x="202" y="671" type="line"/>
      <point x="320" y="671" type="line" smooth="yes"/>
      <point x="448" y="671"/>
      <point x="467" y="614"/>
      <point x="467" y="537" type="curve" smooth="yes"/>
      <point x="467" y="462"/>
      <point x="448" y="404"/>
      <point x="320" y="404" type="curve" smooth="yes"/>
    </contour>
    <contour>
      <point x="70" y="680" type="line"/>
      <point x="170" y="680" type="line"/>
      <point x="170" y="730" type="line"/>
      <point x="70" y="730" type="line"/>
    </contour>
    <contour>
      <point x="70" y="0" type="line"/>
      <point x="170" y="0" type="line"/>
      <point x="170" y="50" type="line"/>
      <point x="70" y="50" type="line"/>
    </contour>
  </outline>
</glyph>
<glyph name="D" format="1">
  <advance width="688"/>
  <unicode hex="0044"/>
  <outline>
    <contour>
      <point x="130" y="730" type="line"/>
      <point x="130" y="0" type="line"/>
      <point x="202" y="0" type="line"/>
      <point x="202" y="730" type="line"/>
    </contour>
    <contour>
      <point x="202" y="730" type="line"/>
      <point x="202" y="671" type="line"/>
      <point x="345" y="671" type="line" smooth="yes"/>
      <point x="535" y="671"/>
      <point x="556" y="553"/>
      <point x="556" y="365" type="curve" smooth="yes"/>
      <point x="556" y="177"/>
      <point x="535" y="59"/>
      <point x="345" y="59" type="curve" smooth="yes"/>
      <point x="202" y="59" type="line"/>
      <point x="202" y="0" type="line"/>
      <point x="345" y="0" type="line" smooth="yes"/>
      <point x="600" y="0"/>
      <point x="628" y="137"/>
      <point x="628" y="365" type="curve" smooth="yes"/>
      <point x="628" y="591"/>
      <point x="600" y="730"/>
      <point x="345" y="730" type="curve" smooth="yes"/>
    </contour>
    <contour>
      <point x="70" y="680" type="line"/>
      <point x="170" y="680" type="line"/>
      <point x="170" y="730" type="line"/>
      <point x="70" y="730" type="line"/>
    </contour>
    <contour>
      <point x="70" y="0" type="line"/>
      <point x="170" y="0" type="line"/>
      <point x="170" y="50" type="line"/>
      <point x="70" y="50" type="line"/>
    </contour>
  </outline>
</glyph>
<glyph name="E" format="1">
  <advance width="620"/>
  <unicode hex="0045"/>
  <outline>
    <contour>
      <point x="130" y="671" type="line"/>
      <point x="510" y="671" type="line"/>
      <point x="510" y="730" type="line"/>
      <point x="130" y="730" type="line"/>
    </contour>
    <contour>
      <point x="130" y="671" type="line"/>
      <point x="130" y="0" type="line"/>
      <point x="202" y="0" type="line"/>
      <point x="202" y="671" type="line"/>
    </contour>
    <contour>
      <point x="130" y="0" type="line"/>
      <point x="530" y="0" type="line"/>
      <point x="530" y="59" type="line"/>
      <point x="130" y="59" type="line"/>
    </contour>
    <contour>
      <point x="202" y="341" type="line"/>
      <point x="490" y="341" type="line"/>
      <point x="490" y="401" type="line"/>
      <point x="202" y="401" type="line"/>
    </contour>
    <contour>
      <point x="70" y="680" type="line"/>
      <point x="170" y="680" type="line"/>
      <point x="170" y="730" type="line"/>
      <point x="70" y="730" type="line"/>
    </contour>
    <contour>
      <point x="70" y="0" type="line"/>
      <point x="170" y="0" type="line"/>
      <point x="170" y="50" type="line"/>
      <point x="70" y="50" type="line"/>
    </contour>
    <contour>
      <point x="540" y="572" type="line"/>
      <point x="540" y="730" type="line"/>
      <point x="484" y="730" type="line"/>
      <point x="484" y="572" type="line"/>
    </contour>
    <contour>
      <point x="560" y="0" type="line"/>
      <point x="560" y="158" type="line"/>
      <point x="504" y="158" type="line"/>
      <point x="504" y="0" type="line"/>
    </contour>
  </outline>
</glyph>
<glyph name="F" format="1">
  <advance width="560"/>
  <unicode hex="0046"/>
  <outline>
    <contour>
      <point x="130" y="671" type="line"/>
      <point x="490" y="671" type="line"/>
      <point x="490" y="730" type="line"/>
      <point x="130" y="730" type="line"/>
    </contour>
    <contour>
      <point x="130" y="671" type="line"/>
      <point x="130" y="0" type="line"/>
      <point x="202" y="0" type="line"/>
      <point x="202" y="671" type="line"/>
    </contour>
    <contour>
      <point x="130" y="341" type="line"/>
      <point x="470" y="341" type="line"/>
      <point x="470" y="401" type="line"/>
      <point x="130" y="401" type="line"/>
    </contour>
    <contour>
      <point x="70" y="680" type="line"/>
      <point x="170" y="680" type="line"/>
      <point x="170" y="730" type="line"/>
      <point x="70" y="730" type="line"/>
    </contour>
    <contour>
      <point x="70" y="0" type="line"/>
      <point x="282" y="0" type="line"/>
      <point x="282" y="51" type="line"/>
      <point x="70" y="51" type="line"/>
    </contour>
    <contour>
      <point x="520" y="572" type="line"/>
      <point x="520" y="730" type="line"/>
      <point x="464" y="730" type="line"/>
      <point x="464" y="572" type="line"/>
    </contour>
  </outline>
</glyph>
<glyph name="L" format="1">
  <advance width="507"/>
  <unicode hex="004C"/>
  <outline>
    <contour>
      <point x="130" y="730" type="line"/>
      <point x="130" y="0" type="line"/>
      <point x="202" y="0" type="line"/>
      <point x="202" y="730" type="line"/>
    </contour>
    <contour>
      <point x="130" y="0" type="line"/>
      <point x="467" y="0" type="line"/>
      <point x="467" y="59" type="line"/>
      <point x="130" y="59" type="line"/>
    </contour>
    <contour>
      <point x="70" y="680" type="line"/>
      <point x="282" y="680" type="line"/>
      <point x="282" y="730" type="line"/>
      <point x="70" y="730" type="line"/>
    </contour>
    <contour>
      <point x="497" y="0" type="line"/>
      <point x="497" y="158" type="line"/>
      <point x="441" y="158" type="line"/>
      <point x="441" y="0" type="line"/>
    </contour>
    <contour>
      <point x="70" y="0" type="line"/>
      <point x="130" y="0" type="line"/>
      <point x="130" y="50" type="line"/>
      <point x="70" y="50" type="line"/>
    </contour>
  </outline>
</glyph>
<glyph name="O" format="1">
  <advance width="685"/>
  <unicode hex="004F"/>
  <outline>
    <contour>
      <point x="342" y="-14" type="curve" smooth="yes"/>
      <point x="596" y="-14"/>
      <point x="625" y="128"/>
      <point x="625" y="365" type="curve" smooth="yes"/>
      <point x="625" y="600"/>
      <point x="596" y="744"/>
      <point x="342" y="744" type="curve" smooth="yes"/>
      <point x="87" y="744"/>
      <point x="60" y="600"/>
      <point x="60" y="365" type="curve" smooth="yes"/>
      <point x="60" y="128"/>
      <point x="87" y="-14"/>
    </contour>
    <contour>
      <point x="342" y="46" type="curve" smooth="yes"/>
      <point x="152" y="46"/>
      <point x="132" y="168"/>
      <point x="132" y="365" type="curve" smooth="yes"/>
      <point x="132" y="562"/>
      <point x="152" y="684"/>
      <point x="342" y="684" type="curve" smooth="yes"/>
      <point x="531" y="684"/>
      <point x="553" y="562"/>
      <point x="553" y="365" type="curve" smooth="yes"/>
      <point x="553" y="168"/>
      <point x="531" y="46"/>
    </contour>
  </outline>
</glyph>
<glyph name="R" format="1">
  <advance width="659"/>
  <unicode hex="0052"/>
  <outline>
    <contour>
      <point x="130" y="671" type="line"/>
      <point x="130" y="0" type="line"/>
      <point x="202" y="0" type="line"/>
      <point x="202" y="671" type="line"/>
    </contour>
    <contour>
      <point x="340" y="305" type="line" smooth="yes"/>
      <point x="538" y="305"/>
      <point x="559" y="408"/>
      <point x="559" y="517" type="curve" smooth="yes"/>
      <point x="559" y="627"/>
      <point x="538" y="730"/>
      <point x="340" y="730" type="curve" smooth="yes"/>
      <point x="130" y="730" type="line"/>
      <point x="130" y="305" type="line"/>
    </contour>
    <contour>
      <point x="202" y="364" type="line"/>
      <point x="202" y="671" type="line"/>
      <point x="340" y="671" type="line" smooth="yes"/>
      <point x="473" y="671"/>
      <point x="487" y="602"/>
      <point x="487" y="517" type="curve" smooth="yes"/>
      <point x="487" y="433"/>
      <point x="473" y="364"/>
      <point x="340" y="364" type="curve" smooth="yes"/>
    </contour>
    <contour>
      <point x="281" y="305" type="line"/>
      <point x="347" y="305"/>
      <point x="386" y="295"/>
      <point x="411" y="237" type="curve" smooth="yes"/>
      <point x="512" y="0" type="line"/>
      <point x="589" y="0" type="line"/>
      <point x="481" y="249" type="line" smooth="yes"/>
      <point x="444" y="333"/>
      <point x="398" y="340"/>
      <point x="281" y="340" type="curve"/>
    </contour>
    <contour>
      <point x="70" y="0" type="line"/>
      <point x="262" y="0" type="line"/>
      <point x="262" y="50" type="line"/>
      <point x="70" y="50" type="line"/>
    </contour>
    <contour>
      <point x="70" y="680" type="line"/>
      <point x="130" y="680" type="line"/>
      <point x="130" y="730" type="line"/>
      <point x="70" y="730" type="line"/>
    </contour>
    <contour>
      <point x="512" y="0" type="line"/>
      <point x="629" y="0" type="line"/>
      <point x="629" y="50" type="line"/>
      <point x="512" y="50" type="line"/>
    </contour>
  </outline>
</glyph>
<glyph name="S" format="1">
  <advance width="576"/>
  <unicode hex="0053"/>
  <outline>
    <contour>
      <point x="491" y="552" type="line"/>
      <point x="474" y="680"/>
      <point x="401" y="744"/>
      <point x="268" y="744" type="curve" smooth="yes"/>
      <point x="102" y="744"/>
      <point x="54" y="661"/>
      <point x="54" y="533" type="curve" smooth="yes"/>
      <point x="54" y="406"/>
      <point x="101" y="365"/>
      <point x="243" y="338" type="curve" smooth="yes"/>
      <point x="333" y="321" type="line" smooth="yes"/>
      <point x="426" y="303"/>
      <point x="459" y="277"/>
      <point x="459" y="182" type="curve" smooth="yes"/>
      <point x="459" y="96"/>
      <point x="420" y="46"/>
      <point x="292" y="46" type="curve" smooth="yes"/>
      <point x="158" y="46"/>
      <point x="104" y="124"/>
      <point x="101" y="216" type="curve"/>
      <point x="67" y="216" type="line"/>
      <point x="67" y="96"/>
      <point x="140" y="-14"/>
      <point x="302" y="-14" type="curve" smooth="yes"/>
      <point x="478" y="-14"/>
      <point x="531" y="64"/>
      <point x="531" y="192" type="curve" smooth="yes"/>
      <point x="531" y="319"/>
      <point x="479" y="362"/>
      <point x="335" y="389" type="curve" smooth="yes"/>
      <point x="246" y="406" type="line" smooth="yes"/>
      <point x="145" y="425"/>
      <point x="126" y="454"/>
      <point x="126" y="534" type="curve" smooth="yes"/>
      <point x="126" y="626"/>
      <point x="153" y="684"/>
      <point x="283" y="684" type="curve" smooth="yes"/>
      <point x="389" y="684"/>
      <point x="446" y="636"/>
      <point x="459" y="552" type="curve"/>
    </contour>
    <contour>
      <point x="513" y="552" type="line"/>
      <point x="513" y="730" type="line"/>
      <point x="459" y="730" type="line"/>
      <point x="459" y="552" type="line"/>
    </contour>
    <contour>
      <point x="101" y="0" type="line"/>
      <point x="101" y="216" type="line"/>
      <point x="47" y="216" type="line"/>
      <point x="47" y="0" type="line"/>
    </contour>
  </outline>
</glyph>
<glyph name="U" format="1">
  <advance width="750"/>
  <unicode hex="0055"/>
  <outline>
    <contour>
      <point x="563" y="730" type="line"/>
      <point x="563" y="241" type="line" smooth="yes"/>
      <point x="563" y="68"/>
      <point x="472" y="47"/>
      <point x="374" y="47" type="curve" smooth="yes"/>
      <point x="278" y="47"/>
      <point x="187" y="68"/>
      <point x="187" y="241" type="curve" smooth="yes"/>
      <point x="187" y="730" type="line"/>
      <point x="115" y="730" type="line"/>
      <point x="115" y="241" type="line" smooth="yes"/>
      <point x="115" y="10"/>
      <point x="241" y="-14"/>
      <point x="374" y="-14" type="curve" smooth="yes"/>
      <point x="509" y="-14"/>
      <point x="635" y="10"/>
      <point x="635" y="241" type="curve" smooth="yes"/>
      <point x="635" y="730" type="line"/>
    </contour>
    <contour>
      <point x="55" y="680" type="line"/>
      <point x="247" y="680" type="line"/>
      <point x="247" y="730" type="line"/>
      <point x="55" y="730" type="line"/>
    </contour>
    <contour>
      <point x="503" y="680" type="line"/>
      <point x="695" y="680" type="line"/>
      <point x="695" y="730" type="line"/>
      <point x="503" y="730" type="line"/>
    </contour>
  </outline>
</glyph>
<glyph name="Z" format="1">
  <advance width="545"/>
  <unicode hex="005A"/>
  <outline>
    <contour>
      <point x="49" y="671" type="line"/>
      <point x="417" y="671" type="line"/>
      <point x="30" y="46" type="line"/>
      <point x="30" y="0" type="line"/>
      <point x="515" y="0" type="line"/>
      <point x="515" y="59" type="line"/>
      <point x="118" y="59" type="line"/>
      <point x="505" y="684" type="line"/>
      <point x="505" y="730" type="line"/>
      <point x="50" y="730" type="line"/>
    </contour>
    <contour>
      <point x="106" y="572" type="line"/>
      <point x="106" y="730" type="line"/>
      <point x="50" y="730" type="line"/>
      <point x="50" y="572" type="line"/>
    </contour>
    <contour>
      <point x="515" y="0" type="line"/>
      <point x="515" y="158" type="line"/>
      <point x="459" y="158" type="line"/>
      <point x="459" y="0" type="line"/>
    </contour>
  </outline>
</glyph>
<glyph name="bracketleft" format="1">
  <advance width="284"/>
  <unicode hex="005B"/>
  <outline>
    <contour>
      <point x="80" y="-66" type="line"/>
      <point x="153" y="-66" type="line"/>
      <point x="153" y="735" type="line"/>
      <point x="80" y="735" type="line"/>
    </contour>
    <contour>
      <point x="136" y="682" type="line"/>
      <point x="279" y="682" type="line"/>
      <point x="279" y="735" type="line"/>
      <point x="136" y="735" type="line"/>
    </contour>
    <contour>
      <point x="136" y="-66" type="line"/>
      <point x="279" y="-66" type="line"/>
      <point x="279" y="-13" type="line"/>
      <point x="136" y="-13" type="line"/>
    </contour>
  </outline>
</glyph>
<glyph name="backslash" format="1">
  <advance width="308"/>
  <unicode hex="005C"/>
  <outline>
    <contour>
      <point x="71" y="775" type="line"/>
      <point x="0" y="775" type="line"/>
      <point x="237" y="-106" type="line"/>
      <point x="308" y="-106" type="line"/>
    </contour>
  </outline>
</glyph>
<glyph name="bracketright" format="1">
  <advance width="284"/>
  <unicode hex="005D"/>
  <outline>
    <contour>
      <point x="204" y="735" type="line"/>
      <point x="131" y="735" type="line"/>
      <point x="131" y="-66" type="line"/>
      <point x="204" y="-66" type="line"/>
    </contour>
    <contour>
      <point x="148" y="-13" type="line"/>
      <point x="5" y="-13" type="line"/>
      <point x="5" y="-66" type="line"/>
      <point x="148" y="-66" type="line"/>
    </contour>
    <contour>
      <point x="148" y="735" type="line"/>
      <point x="5" y="735" type="line"/>
      <point x="5" y="682" type="line"/>
      <point x="148" y="682" type="line"/>
    </contour>
  </outline>
</glyph>
<glyph name="asciicircum" format="1">
  <advance width="580"/>
  <unicode hex="005E"/>
  <outline>
    <contour>
      <point x="252" y="618" type="line"/>
      <point x="104" y="316" type="line"/>
      <point x="170" y="316" type="line"/>
      <point x="314" y="618" type="line"/>
    </contour>
    <contour>
      <point x="266" y="618" type="line"/>
      <point x="410" y="316" type="line"/>
      <point x="476" y="316" type="line"/>
      <point x="328" y="618" type="line"/>
    </contour>
  </outline>
</glyph>
<glyph name="grave" format="1">
  <advance width="314"/>
  <unicode hex="0060"/>
  <outline>
    <contour>
      <point x="222" y="624" type="line"/>
      <point x="50" y="774" type="line"/>
      <point x="103" y="827" type="line"/>
      <point x="264" y="666" type="line"/>
    </contour>
  </outline>
</glyph>
<glyph name="b" format="1">
  <advance width="616"/>
  <unicode hex="0062"/>
  <outline>
    <contour>
      <point x="170" y="85" type="line"/>
      <point x="170" y="750" type="line"/>
      <point x="100" y="750" type="line"/>
      <point x="100" y="0" type="line"/>
      <point x="147" y="0" type="line"/>
    </contour>
    <contour>
      <point x="346" y="-14" type="curve" smooth="yes"/>
      <point x="534" y="-14"/>
      <point x="556" y="131"/>
      <point x="556" y="286" type="curve" smooth="yes"/>
      <point x="556" y="441"/>
      <point x="532" y="586"/>
      <point x="346" y="586" type="curve" smooth="yes"/>
      <point x="269" y="586"/>
      <point x="187" y="550"/>
      <point x="124" y="500" type="curve"/>
      <point x="140" y="455" type="line"/>
      <point x="213" y="508"/>
      <point x="270" y="527"/>
      <point x="336" y="527" type="curve" smooth="yes"/>
      <point x="471" y="527"/>
      <point x="486" y="405"/>
      <point x="486" y="286" type="curve" smooth="yes"/>
      <point x="486" y="154"/>
      <point x="474" y="45"/>
      <point x="326" y="45" type="curve" smooth="yes"/>
      <point x="272" y="45"/>
      <point x="192" y="73"/>
      <point x="135" y="134" type="curve"/>
      <point x="119" y="90" type="line"/>
      <point x="156" y="45"/>
      <point x="251" y="-14"/>
    </contour>
    <contour>
      <point x="40" y="700" type="line"/>
      <point x="100" y="700" type="line"/>
      <point x="100" y="750" type="line"/>
      <point x="40" y="750" type="line"/>
    </contour>
  </outline>
</glyph>
<glyph name="e" format="1">
  <advance width="598"/>
  <unicode hex="0065"/>
  <outline>
    <contour>
      <point x="107" y="270" type="line"/>
      <point x="538" y="270" type="line"/>
      <point x="538" y="286" type="line"/>
      <point x="532" y="325" type="line"/>
      <point x="107" y="325" type="line"/>
    </contour>
    <contour>
      <point x="309" y="-14" type="curve" smooth="yes"/>
      <point x="486" y="-14"/>
      <point x="519" y="76"/>
      <point x="529" y="177" type="curve"/>
      <point x="471" y="180" type="line"/>
      <point x="464" y="103"/>
      <point x="438" y="45"/>
      <point x="307" y="45" type="curve" smooth="yes"/>
      <point x="164" y="45"/>
      <point x="140" y="122"/>
      <point x="140" y="286" type="curve" smooth="yes"/>
      <point x="140" y="405"/>
      <point x="147" y="527"/>
      <point x="304" y="527" type="curve" smooth="yes"/>
      <point x="461" y="527"/>
      <point x="468" y="415"/>
      <point x="468" y="286" type="curve"/>
      <point x="538" y="286" type="line"/>
      <point x="538" y="441"/>
      <point x="515" y="586"/>
      <point x="305" y="586" type="curve" smooth="yes"/>
      <point x="94" y="586"/>
      <point x="70" y="441"/>
      <point x="70" y="286" type="curve" smooth="yes"/>
      <point x="70" y="92"/>
      <point x="112" y="-14"/>
    </contour>
  </outline>
</glyph>
<glyph name="g" format="1">
  <advance width="580"/>
  <unicode hex="0067"/>
  <outline>
    <contour>
      <point x="294" y="184" type="curve" smooth="yes"/>
      <point x="481" y="184"/>
      <point x="501" y="281"/>
      <point x="501" y="385" type="curve" smooth="yes"/>
      <point x="501" y="489"/>
      <point x="481" y="586"/>
      <point x="294" y="586" type="curve" smooth="yes"/>
      <point x="108" y="586"/>
      <point x="88" y="489"/>
      <point x="88" y="385" type="curve" smooth="yes"/>
      <point x="88" y="281"/>
      <point x="108" y="184"/>
    </contour>
    <contour>
      <point x="411" y="549" type="line"/>
      <point x="453" y="507" type="line"/>
      <point x="536" y="590" type="line"/>
      <point x="494" y="632" type="line"/>
    </contour>
    <contour>
      <point x="294" y="237" type="curve" smooth="yes"/>
      <point x="170" y="237"/>
      <point x="156" y="298"/>
      <point x="156" y="385" type="curve" smooth="yes"/>
      <point x="156" y="472"/>
      <point x="170" y="533"/>
      <point x="294" y="533" type="curve" smooth="yes"/>
      <point x="419" y="533"/>
      <point x="433" y="472"/>
      <point x="433" y="385" type="curve" smooth="yes"/>
      <point x="433" y="298"/>
      <point x="419" y="237"/>
    </contour>
    <contour>
      <point x="284" y="-188" type="curve" smooth="yes"/>
      <point x="188" y="-188"/>
      <point x="111" y="-181"/>
      <point x="111" y="-100" type="curve" smooth="yes"/>
      <point x="111" y="-59"/>
      <point x="129" y="-23"/>
      <point x="157" y="0" type="curve"/>
      <point x="372" y="0" type="line" smooth="yes"/>
      <point x="417" y="0"/>
      <point x="475" y="-8"/>
      <point x="475" y="-81" type="curve" smooth="yes"/>
      <point x="475" y="-182"/>
      <point x="408" y="-188"/>
    </contour>
    <contour>
      <point x="199" y="214" type="line"/>
      <point x="166" y="250" type="line"/>
      <point x="97" y="184" type="line" smooth="yes"/>
      <point x="62" y="149"/>
      <point x="53" y="118"/>
      <point x="53" y="91" type="curve" smooth="yes"/>
      <point x="53" y="52"/>
      <point x="70" y="24"/>
      <point x="108" y="8" type="curve"/>
      <point x="70" y="-23"/>
      <point x="50" y="-62"/>
      <point x="50" y="-104" type="curve" smooth="yes"/>
      <point x="50" y="-227"/>
      <point x="149" y="-241"/>
      <point x="284" y="-241" type="curve" smooth="yes"/>
      <point x="412" y="-241"/>
      <point x="540" y="-236"/>
      <point x="540" y="-80" type="curve" smooth="yes"/>
      <point x="540" y="7"/>
      <point x="486" y="53"/>
      <point x="392" y="53" type="curve" smooth="yes"/>
      <point x="163" y="53" type="line" smooth="yes"/>
      <point x="135" y="53"/>
      <point x="110" y="64"/>
      <point x="110" y="96" type="curve" smooth="yes"/>
      <point x="110" y="116"/>
      <point x="117" y="136"/>
      <point x="136" y="154" type="curve" smooth="yes"/>
    </contour>
  </outline>
</glyph>
<glyph name="i" format="1">
  <advance width="320"/>
  <unicode hex="0069"/>
  <outline>
    <contour>
      <point x="130" y="572" type="line"/>
      <point x="130" y="0" type="line"/>
      <point x="200" y="0" type="line"/>
      <point x="200" y="572" type="line"/>
    </contour>
    <contour>
      <point x="70" y="0" type="line"/>
      <point x="260" y="0" type="line"/>
      <point x="260" y="50" type="line"/>
      <point x="70" y="50" type="line"/>
    </contour>
    <contour>
      <point x="70" y="522" type="line"/>
      <point x="130" y="522" type="line"/>
      <point x="130" y="572" type="line"/>
      <point x="70" y="572" type="line"/>
    </contour>
    <contour>
      <point x="165" y="672" type="curve" smooth="yes"/>
      <point x="208" y="672"/>
      <point x="210" y="700"/>
      <point x="210" y="725" type="curve" smooth="yes"/>
      <point x="210" y="751"/>
      <point x="208" y="779"/>
      <point x="165" y="779" type="curve" smooth="yes"/>
      <point x="124" y="779"/>
      <point x="122" y="751"/>
      <point x="122" y="725" type="curve" smooth="yes"/>
      <point x="122" y="700"/>
      <point x="124" y="672"/>
    </contour>
  </outline>
</glyph>
<glyph name="k" format="1">
  <advance width="596"/>
  <unicode hex="006B"/>
  <outline>
    <contour>
      <point x="190" y="0" type="line"/>
      <point x="190" y="750" type="line"/>
      <point x="120" y="750" type="line"/>
      <point x="120" y="0" type="line"/>
    </contour>
    <contour>
      <point x="154" y="282" type="line"/>
      <point x="309" y="282" type="line"/>
      <point x="309" y="336" type="line"/>
      <point x="154" y="336" type="line"/>
    </contour>
    <contour>
      <point x="423" y="540" type="line"/>
      <point x="266" y="315" type="line"/>
      <point x="322" y="287" type="line"/>
      <point x="501" y="540" type="line"/>
    </contour>
    <contour>
      <point x="527" y="21" type="line"/>
      <point x="332" y="305" type="line"/>
      <point x="254" y="305" type="line"/>
      <point x="449" y="21" type="line"/>
    </contour>
    <contour>
      <point x="60" y="700" type="line"/>
      <point x="152" y="700" type="line"/>
      <point x="152" y="750" type="line"/>
      <point x="60" y="750" type="line"/>
    </contour>
    <contour>
      <point x="60" y="0" type="line"/>
      <point x="250" y="0" type="line"/>
      <point x="250" y="50" type="line"/>
      <point x="60" y="50" type="line"/>
    </contour>
    <contour>
      <point x="376" y="0" type="line"/>
      <point x="566" y="0" type="line"/>
      <point x="566" y="50" type="line"/>
      <point x="376" y="50" type="line"/>
    </contour>
    <contour>
      <point x="358" y="522" type="line"/>
      <point x="548" y="522" type="line"/>
      <point x="548" y="572" type="line"/>
      <point x="358" y="572" type="line"/>
    </contour>
  </outline>
</glyph>
<glyph name="n" format="1">
  <advance width="691"/>
  <unicode hex="006E"/>
  <outline>
    <contour>
      <point x="177" y="572" type="line"/>
      <point x="130" y="572" type="line"/>
      <point x="130" y="0" type="line"/>
      <point x="200" y="0" type="line"/>
      <point x="200" y="487" type="line"/>
    </contour>
    <contour>
      <point x="177" y="433" type="line"/>
      <point x="242" y="492"/>
      <point x="315" y="527"/>
      <point x="395" y="527" type="curve" smooth="yes"/>
      <point x="471" y="527"/>
      <point x="501" y="491"/>
      <point x="501" y="408" type="curve" smooth="yes"/>
      <point x="501" y="0" type="line"/>
      <point x="571" y="0" type="line"/>
      <point x="571" y="407" type="line" smooth="yes"/>
      <point x="571" y="528"/>
      <point x="525" y="586"/>
      <point x="406" y="586" type="curve" smooth="yes"/>
      <point x="306" y="586"/>
      <point x="212" y="530"/>
      <point x="163" y="482" type="curve"/>
    </contour>
    <contour>
      <point x="70" y="0" type="line"/>
      <point x="260" y="0" type="line"/>
      <point x="260" y="50" type="line"/>
      <point x="70" y="50" type="line"/>
    </contour>
    <contour>
      <point x="70" y="522" type="line"/>
      <point x="130" y="522" type="line"/>
      <point x="130" y="572" type="line"/>
      <point x="70" y="572" type="line"/>
    </contour>
    <contour>
      <point x="441" y="0" type="line"/>
      <point x="631" y="0" type="line"/>
      <point x="631" y="50" type="line"/>
      <point x="441" y="50" type="line"/>
    </contour>
  </outline>
</glyph>
<glyph name="p" format="1">
  <advance width="636"/>
  <unicode hex="0070"/>
  <outline>
    <contour>
      <point x="356" y="527" type="curve" smooth="yes"/>
      <point x="491" y="527"/>
      <point x="506" y="405"/>
      <point x="506" y="286" type="curve" smooth="yes"/>
      <point x="506" y="152"/>
      <point x="491" y="45"/>
      <point x="346" y="45" type="curve" smooth="yes"/>
      <point x="299" y="45"/>
      <point x="240" y="50"/>
      <point x="170" y="87" type="curve"/>
      <point x="150" y="40" type="line"/>
      <point x="200" y="13"/>
      <point x="275" y="-14"/>
      <point x="356" y="-14" type="curve" smooth="yes"/>
      <point x="554" y="-14"/>
      <point x="576" y="131"/>
      <point x="576" y="286" type="curve" smooth="yes"/>
      <point x="576" y="441"/>
      <point x="554" y="586"/>
      <point x="366" y="586" type="curve" smooth="yes"/>
      <point x="281" y="586"/>
      <point x="190" y="536"/>
      <point x="141" y="482" type="curve"/>
      <point x="150" y="433" type="line"/>
      <point x="207" y="494"/>
      <point x="289" y="527"/>
    </contour>
    <contour>
      <point x="167" y="572" type="line"/>
      <point x="120" y="572" type="line"/>
      <point x="120" y="-227" type="line"/>
      <point x="190" y="-227" type="line"/>
      <point x="190" y="487" type="line"/>
    </contour>
    <contour>
      <point x="60" y="-227" type="line"/>
      <point x="270" y="-227" type="line"/>
      <point x="270" y="-177" type="line"/>
      <point x="60" y="-177" type="line"/>
    </contour>
    <contour>
      <point x="60" y="522" type="line"/>
      <point x="120" y="522" type="line"/>
      <point x="120" y="572" type="line"/>
      <point x="60" y="572" type="line"/>
    </contour>
  </outline>
</glyph>
<glyph name="q" format="1">
  <advance width="636"/>
  <unicode hex="0071"/>
  <outline>
    <contour>
      <point x="476" y="102" type="line"/>
      <point x="418" y="64"/>
      <point x="356" y="45"/>
      <point x="290" y="45" type="curve" smooth="yes"/>
      <point x="151" y="45"/>
      <point x="130" y="147"/>
      <point x="130" y="286" type="curve" smooth="yes"/>
      <point x="130" y="425"/>
      <point x="153" y="527"/>
      <point x="290" y="527" type="curve" smooth="yes"/>
      <point x="357" y="527"/>
      <point x="419" y="510"/>
      <point x="476" y="450" type="curve"/>
      <point x="492" y="497" type="line"/>
      <point x="456" y="538"/>
      <point x="380" y="586"/>
      <point x="280" y="586" type="curve" smooth="yes"/>
      <point x="82" y="586"/>
      <point x="60" y="441"/>
      <point x="60" y="286" type="curve" smooth="yes"/>
      <point x="60" y="131"/>
      <point x="82" y="-14"/>
      <point x="280" y="-14" type="curve" smooth="yes"/>
      <point x="357" y="-14"/>
      <point x="441" y="19"/>
      <point x="492" y="52" type="curve"/>
    </contour>
    <contour>
      <point x="446" y="487" type="line"/>
      <point x="446" y="-227" type="line"/>
      <point x="516" y="-227" type="line"/>
      <point x="516" y="572" type="line"/>
      <point x="469" y="572" type="line"/>
    </contour>
    <contour>
      <point x="576" y="-177" type="line"/>
      <point x="366" y="-177" type="line"/>
      <point x="366" y="-227" type="line"/>
      <point x="576" y="-227" type="line"/>
    </contour>
    <contour>
      <point x="576" y="572" type="line"/>
      <point x="516" y="572" type="line"/>
      <point x="516" y="522" type="line"/>
      <point x="576" y="522" type="line"/>
    </contour>
  </outline>
</glyph>
<glyph name="t" format="1">
  <advance width="363"/>
  <unicode hex="0074"/>
  <outline>
    <contour>
      <point x="35" y="522" type="line"/>
      <point x="300" y="522" type="line"/>
      <point x="300" y="572" type="line"/>
      <point x="35" y="572" type="line"/>
    </contour>
    <contour>
      <point x="304" y="49" type="line"/>
      <point x="282" y="44"/>
      <point x="264" y="41"/>
      <point x="249" y="41" type="curve" smooth="yes"/>
      <point x="210" y="41"/>
      <point x="195" y="63"/>
      <point x="195" y="125" type="curve" smooth="yes"/>
      <point x="195" y="700" type="line"/>
      <point x="125" y="686" type="line"/>
      <point x="125" y="125" type="line" smooth="yes"/>
      <point x="125" y="55"/>
      <point x="133" y="-14"/>
      <point x="227" y="-14" type="curve" smooth="yes"/>
      <point x="250" y="-14"/>
      <point x="277" y="-10"/>
      <point x="313" y="0" type="curve"/>
    </contour>
  </outline>
</glyph>
<glyph name="u" format="1">
  <advance width="696"/>
  <unicode hex="0075"/>
  <outline>
    <contour>
      <point x="538" y="164" type="line"/>
      <point x="493" y="116"/>
      <point x="413" y="45"/>
      <point x="304" y="45" type="curve" smooth="yes"/>
      <point x="219" y="45"/>
      <point x="190" y="79"/>
      <point x="190" y="164" type="curve" smooth="yes"/>
      <point x="190" y="572" type="line"/>
      <point x="120" y="572" type="line"/>
      <point x="120" y="163" type="line" smooth="yes"/>
      <point x="120" y="44"/>
      <point x="160" y="-14"/>
      <point x="289" y="-14" type="curve" smooth="yes"/>
      <point x="403" y="-14"/>
      <point x="506" y="62"/>
      <point x="548" y="110" type="curve"/>
    </contour>
    <contour>
      <point x="529" y="0" type="line"/>
      <point x="576" y="0" type="line"/>
      <point x="576" y="572" type="line"/>
      <point x="506" y="572" type="line"/>
      <point x="506" y="85" type="line"/>
    </contour>
    <contour>
      <point x="506" y="572" type="line"/>
      <point x="446" y="572" type="line"/>
      <point x="446" y="522" type="line"/>
      <point x="506" y="522" type="line"/>
    </contour>
    <contour>
      <point x="636" y="50" type="line"/>
      <point x="576" y="50" type="line"/>
      <point x="576" y="0" type="line"/>
      <point x="636" y="0" type="line"/>
    </contour>
    <contour>
      <point x="120" y="572" type="line"/>
      <point x="60" y="572" type="line"/>
      <point x="60" y="522" type="line"/>
      <point x="120" y="522" type="line"/>
    </contour>
  </outline>
</glyph>
<glyph name="x" format="1">
  <advance width="569"/>
  <unicode hex="0078"/>
  <outline>
    <contour>
      <point x="422" y="540" type="line"/>
      <point x="274" y="327" type="line"/>
      <point x="307" y="267" type="line"/>
      <point x="499" y="540" type="line"/>
    </contour>
    <contour>
      <point x="510" y="32" type="line"/>
      <point x="146" y="551" type="line"/>
      <point x="67" y="551" type="line"/>
      <point x="431" y="32" type="line"/>
    </contour>
    <contour>
      <point x="132" y="32" type="line"/>
      <point x="298" y="270" type="line"/>
      <point x="258" y="320" type="line"/>
      <point x="55" y="32" type="line"/>
    </contour>
    <contour>
      <point x="216" y="572" type="line"/>
      <point x="40" y="572" type="line"/>
      <point x="40" y="522" type="line"/>
      <point x="216" y="522" type="line"/>
    </contour>
    <contour>
      <point x="529" y="572" type="line"/>
      <point x="353" y="572" type="line"/>
      <point x="353" y="522" type="line"/>
      <point x="529" y="522" type="line"/>
    </contour>
    <contour>
      <point x="201" y="50" type="line"/>
      <point x="25" y="50" type="line"/>
      <point x="25" y="0" type="line"/>
      <point x="201" y="0" type="line"/>
    </contour>
    <contour>
      <point x="544" y="50" type="line"/>
      <point x="368" y="50" type="line"/>
      <point x="368" y="0" type="line"/>
      <point x="544" y="0" type="line"/>
    </contour>
  </outline>
</glyph>
<glyph name="z" format="1">
  <advance width="486"/>
  <unicode hex="007A"/>
  <outline>
    <contour>
      <point x="14" y="516" type="line"/>
      <point x="346" y="516" type="line"/>
      <point x="-10" y="50" type="line"/>
      <point x="-10" y="0" type="line"/>
      <point x="436" y="0" type="line"/>
      <point x="436" y="56" type="line"/>
      <point x="76" y="56" type="line"/>
      <point x="432" y="522" type="line"/>
      <point x="432" y="572" type="line"/>
      <point x="14" y="572" type="line"/>
    </contour>
    <contour>
      <point x="14" y="572" type="line"/>
      <point x="14" y="406" type="line"/>
      <point x="64" y="406" type="line"/>
      <point x="64" y="572" type="line"/>
    </contour>
    <contour>
      <point x="386" y="166" type="line"/>
      <point x="386" y="0" type="line"/>
      <point x="436" y="0" type="line"/>
      <point x="436" y="166" type="line"/>
    </contour>
  </outline>
</glyph>
<glyph name="braceright" format="1">
  <advance width="294"/>
  <unicode hex="007D"/>
  <outline>
    <contour>
      <point x="173" y="338" type="line"/>
      <point x="148" y="338"/>
      <point x="124" y="362"/>
      <point x="124" y="404" type="curve" smooth="yes"/>
      <point x="124" y="446"/>
      <point x="132" y="476"/>
      <point x="132" y="526" type="curve" smooth="yes"/>
      <point x="132" y="612"/>
      <point x="104" y="674"/>
      <point x="5" y="674" type="curve"/>
      <point x="5" y="736" type="line"/>
      <point x="158" y="736"/>
      <point x="206" y="646"/>
      <point x="206" y="533" type="curve" smooth="yes"/>
      <point x="206" y="487"/>
      <point x="198" y="449"/>
      <point x="198" y="409" type="curve" smooth="yes"/>
      <point x="198" y="369"/>
      <point x="245" y="360"/>
      <point x="273" y="360" type="curve"/>
      <point x="273" y="310" type="line"/>
      <point x="245" y="310"/>
      <point x="198" y="301"/>
      <point x="198" y="261" type="curve" smooth="yes"/>
      <point x="198" y="221"/>
      <point x="206" y="183"/>
      <point x="206" y="137" type="curve" smooth="yes"/>
      <point x="206" y="24"/>
      <point x="158" y="-66"/>
      <point x="5" y="-66" type="curve"/>
      <point x="5" y="-4" type="line"/>
      <point x="104" y="-4"/>
      <point x="132" y="58"/>
      <point x="132" y="144" type="curve" smooth="yes"/>
      <point x="132" y="194"/>
      <point x="124" y="224"/>
      <point x="124" y="266" type="curve" smooth="yes"/>
      <point x="124" y="308"/>
      <point x="148" y="332"/>
      <point x="173" y="332" type="curve"/>
    </contour>
  </outline>
</glyph>
<glyph name="exclamdown" format="1">
  <advance width="316"/>
  <unicode hex="00A1"/>
  <outline>
    <contour>
      <point x="159" y="586" type="curve" smooth="yes"/>
      <point x="203" y="586"/>
      <point x="206" y="555"/>
      <point x="206" y="528" type="curve" smooth="yes"/>
      <point x="206" y="500"/>
      <point x="203" y="469"/>
      <point x="159" y="469" type="curve" smooth="yes"/>
      <point x="113" y="469"/>
      <point x="110" y="500"/>
      <point x="110" y="528" type="curve" smooth="yes"/>
      <point x="110" y="555"/>
      <point x="113" y="586"/>
    </contour>
    <contour>
      <point x="199" y="-152" type="line"/>
      <point x="199" y="6" type="line"/>
      <point x="181" y="393" type="line"/>
      <point x="137" y="393" type="line"/>
      <point x="119" y="6" type="line"/>
      <point x="119" y="-152" type="line"/>
    </contour>
  </outline>
</glyph>
<glyph name="currency" format="1">
  <advance width="582"/>
  <unicode hex="00A4"/>
  <outline>
    <contour>
      <point x="287" y="190" type="curve" smooth="yes"/>
      <point x="166" y="190"/>
      <point x="160" y="264"/>
      <point x="160" y="335" type="curve" smooth="yes"/>
      <point x="160" y="406"/>
      <point x="167" y="480"/>
      <point x="304" y="480" type="curve" smooth="yes"/>
      <point x="426" y="480"/>
      <point x="432" y="406"/>
      <point x="432" y="335" type="curve" smooth="yes"/>
      <point x="432" y="264"/>
      <point x="425" y="190"/>
    </contour>
    <contour>
      <point x="304" y="539" type="curve" smooth="yes"/>
      <point x="117" y="539"/>
      <point x="97" y="440"/>
      <point x="97" y="335" type="curve" smooth="yes"/>
      <point x="97" y="230"/>
      <point x="116" y="131"/>
      <point x="287" y="131" type="curve" smooth="yes"/>
      <point x="474" y="131"/>
      <point x="495" y="230"/>
      <point x="495" y="335" type="curve" smooth="yes"/>
      <point x="495" y="440"/>
      <point x="476" y="539"/>
    </contour>
    <contour>
      <point x="542" y="551" type="line"/>
      <point x="507" y="586" type="line"/>
      <point x="406" y="485" type="line"/>
      <point x="441" y="450" type="line"/>
    </contour>
    <contour>
      <point x="444" y="218" type="line"/>
      <point x="408" y="182" type="line"/>
      <point x="507" y="84" type="line"/>
      <point x="542" y="119" type="line"/>
    </contour>
    <contour>
      <point x="75" y="586" type="line"/>
      <point x="40" y="551" type="line"/>
      <point x="148" y="442" type="line"/>
      <point x="184" y="478" type="line"/>
    </contour>
    <contour>
      <point x="186" y="195" type="line"/>
      <point x="151" y="230" type="line"/>
      <point x="40" y="119" type="line"/>
      <point x="75" y="84" type="line"/>
    </contour>
  </outline>
</glyph>
<glyph name="yen" format="1">
  <advance width="580"/>
  <unicode hex="00A5"/>
  <outline>
    <contour>
      <point x="254" y="298" type="line"/>
      <point x="254" y="0" type="line"/>
      <point x="326" y="0" type="line"/>
      <point x="326" y="298" type="line"/>
    </contour>
    <contour>
      <point x="324" y="276" type="line"/>
      <point x="125" y="670" type="line"/>
      <point x="49" y="670" type="line"/>
      <point x="254" y="276" type="line"/>
    </contour>
    <contour>
      <point x="326" y="276" type="line"/>
      <point x="531" y="670" type="line"/>
      <point x="455" y="670" type="line"/>
      <point x="256" y="276" type="line"/>
    </contour>
    <contour>
      <point x="77" y="226" type="line"/>
      <point x="504" y="226" type="line"/>
      <point x="504" y="276" type="line"/>
      <point x="77" y="276" type="line"/>
    </contour>
    <contour>
      <point x="77" y="356" type="line"/>
      <point x="230" y="356" type="line"/>
      <point x="230" y="406" type="line"/>
      <point x="77" y="406" type="line"/>
    </contour>
    <contour>
      <point x="351" y="356" type="line"/>
      <point x="504" y="356" type="line"/>
      <point x="504" y="406" type="line"/>
      <point x="351" y="406" type="line"/>
    </contour>
  </outline>
</glyph>
<glyph name="copyright" format="1">
  <advance width="727"/>
  <unicode hex="00A9"/>
  <outline>
    <contour>
      <point x="70" y="560" type="curve" smooth="yes"/>
      <point x="70" y="349"/>
      <point x="152" y="267"/>
      <point x="363" y="267" type="curve" smooth="yes"/>
      <point x="574" y="267"/>
      <point x="657" y="349"/>
      <point x="657" y="560" type="curve" smooth="yes"/>
      <point x="657" y="771"/>
      <point x="574" y="854"/>
      <point x="363" y="854" type="curve" smooth="yes"/>
      <point x="152" y="854"/>
      <point x="70" y="771"/>
    </contour>
    <contour>
      <point x="118" y="560" type="curve" smooth="yes"/>
      <point x="118" y="740"/>
      <point x="179" y="811"/>
      <point x="363" y="811" type="curve" smooth="yes"/>
      <point x="547" y="811"/>
      <point x="609" y="740"/>
      <point x="609" y="560" type="curve" smooth="yes"/>
      <point x="609" y="380"/>
      <point x="547" y="310"/>
      <point x="363" y="310" type="curve" smooth="yes"/>
      <point x="179" y="310"/>
      <point x="118" y="380"/>
    </contour>
    <contour>
      <point x="490" y="656" type="line"/>
      <point x="483" y="728"/>
      <point x="450" y="769"/>
      <point x="362" y="769" type="curve" smooth="yes"/>
      <point x="233" y="769"/>
      <point x="207" y="693"/>
      <point x="207" y="561" type="curve" smooth="yes"/>
      <point x="207" y="430"/>
      <point x="227" y="352"/>
      <point x="363" y="352" type="curve" smooth="yes"/>
      <point x="460" y="352"/>
      <point x="486" y="405"/>
      <point x="491" y="482" type="curve"/>
      <point x="449" y="484" type="line"/>
      <point x="447" y="433"/>
      <point x="426" y="395"/>
      <point x="363" y="395" type="curve" smooth="yes"/>
      <point x="269" y="395"/>
      <point x="259" y="455"/>
      <point x="259" y="561" type="curve" smooth="yes"/>
      <point x="259" y="667"/>
      <point x="274" y="727"/>
      <point x="362" y="727" type="curve" smooth="yes"/>
      <point x="420" y="727"/>
      <point x="442" y="702"/>
      <point x="447" y="653" type="curve"/>
    </contour>
  </outline>
</glyph>
<glyph name="ordfeminine" format="1">
  <advance width="427"/>
  <unicode hex="00AA"/>
  <outline>
    <contour>
      <point x="158" y="340" type="curve" smooth="yes"/>
      <point x="217" y="340"/>
      <point x="262" y="366"/>
      <point x="293" y="392" type="curve"/>
      <point x="305" y="350" type="line"/>
      <point x="347" y="350" type="line"/>
      <point x="347" y="648" type="line" smooth="yes"/>
      <point x="347" y="735"/>
      <point x="282" y="760"/>
      <point x="205" y="760" type="curve" smooth="yes"/>
      <point x="90" y="760"/>
      <point x="63" y="710"/>
      <point x="57" y="634" type="curve"/>
      <point x="109" y="631" type="line"/>
      <point x="112" y="680"/>
      <point x="128" y="709"/>
      <point x="203" y="709" type="curve" smooth="yes"/>
      <point x="247" y="709"/>
      <point x="283" y="693"/>
      <point x="283" y="645" type="curve" smooth="yes"/>
      <point x="283" y="581" type="line"/>
      <point x="164" y="573" type="line" smooth="yes"/>
      <point x="63" y="566"/>
      <point x="40" y="529"/>
      <point x="40" y="452" type="curve" smooth="yes"/>
      <point x="40" y="383"/>
      <point x="69" y="340"/>
    </contour>
    <contour>
      <point x="172" y="390" type="curve" smooth="yes"/>
      <point x="119" y="390"/>
      <point x="103" y="412"/>
      <point x="103" y="453" type="curve" smooth="yes"/>
      <point x="103" y="509"/>
      <point x="120" y="525"/>
      <point x="174" y="528" type="curve" smooth="yes"/>
      <point x="283" y="535" type="line"/>
      <point x="283" y="436" type="line"/>
      <point x="251" y="406"/>
      <point x="211" y="390"/>
    </contour>
    <contour>
      <point x="347" y="350" type="line"/>
      <point x="389" y="350" type="line"/>
      <point x="389" y="393" type="line"/>
      <point x="347" y="393" type="line"/>
    </contour>
    <contour>
      <point x="47" y="256" type="line"/>
      <point x="389" y="256" type="line"/>
      <point x="389" y="299" type="line"/>
      <point x="47" y="299" type="line"/>
    </contour>
  </outline>
</glyph>
<glyph name="logicalnot" format="1">
  <advance width="580"/>
  <unicode hex="00AC"/>
  <outline>
    <contour>
      <point x="94" y="288" type="line"/>
      <point x="486" y="288" type="line"/>
      <point x="486" y="348" type="line"/>
      <point x="94" y="348" type="line"/>
    </contour>
    <contour>
      <point x="486" y="150" type="line"/>
      <point x="486" y="348" type="line"/>
      <point x="430" y="348" type="line"/>
      <point x="430" y="150" type="line"/>
    </contour>
  </outline>
</glyph>
<glyph name="registered" format="1">
  <advance width="727"/>
  <unicode hex="00AE"/>
  <outline>
    <contour>
      <point x="70" y="560" type="curve" smooth="yes"/>
      <point x="70" y="349"/>
      <point x="152" y="267"/>
      <point x="363" y="267" type="curve" smooth="yes"/>
      <point x="574" y="267"/>
      <point x="657" y="349"/>
      <point x="657" y="560" type="curve" smooth="yes"/>
      <point x="657" y="771"/>
      <point x="574" y="854"/>
      <point x="363" y="854" type="curve" smooth="yes"/>
      <point x="152" y="854"/>
      <point x="70" y="771"/>
    </contour>
    <contour>
      <point x="118" y="560" type="curve" smooth="yes"/>
      <point x="118" y="740"/>
      <point x="179" y="811"/>
      <point x="363" y="811" type="curve" smooth="yes"/>
      <point x="547" y="811"/>
      <point x="609" y="740"/>
      <point x="609" y="560" type="curve" smooth="yes"/>
      <point x="609" y="380"/>
      <point x="547" y="310"/>
      <point x="363" y="310" type="curve" smooth="yes"/>
      <point x="179" y="310"/>
      <point x="118" y="380"/>
    </contour>
    <contour>
      <point x="246" y="762" type="line"/>
      <point x="246" y="360" type="line"/>
      <point x="298" y="360" type="line"/>
      <point x="298" y="525" type="line"/>
      <point x="344" y="525" type="line" smooth="yes"/>
      <point x="371" y="525"/>
      <point x="387" y="516"/>
      <point x="398" y="490" type="curve" smooth="yes"/>
      <point x="454" y="360" type="line"/>
      <point x="510" y="360" type="line"/>
      <point x="450" y="497" type="line" smooth="yes"/>
      <point x="443" y="513"/>
      <point x="435" y="524"/>
      <point x="426" y="532" type="curve"/>
      <point x="485" y="549"/>
      <point x="493" y="594"/>
      <point x="493" y="643" type="curve" smooth="yes"/>
      <point x="493" y="704"/>
      <point x="481" y="762"/>
      <point x="369" y="762" type="curve" smooth="yes"/>
    </contour>
    <contour>
      <point x="298" y="566" type="line"/>
      <point x="298" y="720" type="line"/>
      <point x="368" y="720" type="line" smooth="yes"/>
      <point x="433" y="720"/>
      <point x="441" y="686"/>
      <point x="441" y="643" type="curve" smooth="yes"/>
      <point x="441" y="600"/>
      <point x="433" y="566"/>
      <point x="368" y="566" type="curve" smooth="yes"/>
    </contour>
  </outline>
</glyph>
<glyph name="acute" format="1">
  <advance width="314"/>
  <unicode hex="00B4"/>
  <outline>
    <contour>
      <point x="92" y="624" type="line"/>
      <point x="264" y="774" type="line"/>
      <point x="211" y="827" type="line"/>
      <point x="50" y="666" type="line"/>
    </contour>
  </outline>
</glyph>
<glyph name="ordmasculine" format="1">
  <advance width="425"/>
  <unicode hex="00BA"/>
  <outline>
    <contour>
      <point x="212" y="391" type="curve" smooth="yes"/>
      <point x="107" y="391"/>
      <point x="101" y="468"/>
      <point x="101" y="550" type="curve" smooth="yes"/>
      <point x="101" y="632"/>
      <point x="107" y="709"/>
      <point x="212" y="709" type="curve" smooth="yes"/>
      <point x="318" y="709"/>
      <point x="323" y="632"/>
      <point x="323" y="550" type="curve" smooth="yes"/>
      <point x="323" y="468"/>
      <point x="318" y="391"/>
    </contour>
    <contour>
      <point x="212" y="340" type="curve" smooth="yes"/>
      <point x="370" y="340"/>
      <point x="387" y="442"/>
      <point x="387" y="550" type="curve" smooth="yes"/>
      <point x="387" y="659"/>
      <point x="370" y="760"/>
      <point x="212" y="760" type="curve" smooth="yes"/>
      <point x="55" y="760"/>
      <point x="38" y="659"/>
      <point x="38" y="550" type="curve" smooth="yes"/>
      <point x="38" y="442"/>
      <point x="55" y="340"/>
    </contour>
    <contour>
      <point x="48" y="256" type="line"/>
      <point x="376" y="256" type="line"/>
      <point x="376" y="299" type="line"/>
      <point x="48" y="299" type="line"/>
    </contour>
  </outline>
</glyph>
<glyph name="guillemotright" format="1">
  <advance width="520"/>
  <unicode hex="00BB"/>
  <outline>
    <contour>
      <point x="369" y="315" type="line"/>
      <point x="245" y="472" type="line"/>
      <point x="292" y="518" type="line"/>
      <point x="460" y="331" type="line"/>
      <point x="460" y="299" type="line"/>
      <point x="292" y="112" type="line"/>
      <point x="245" y="158" type="line"/>
    </contour>
    <contour>
      <point x="154" y="315" type="line"/>
      <point x="30" y="472" type="line"/>
      <point x="77" y="518" type="line"/>
      <point x="245" y="331" type="line"/>
      <point x="245" y="299" type="line"/>
      <point x="77" y="112" type="line"/>
      <point x="30" y="158" type="line"/>
    </contour>
  </outline>
</glyph>
<glyph name="questiondown" format="1">
  <advance width="484"/>
  <unicode hex="00BF"/>
  <outline>
    <contour>
      <point x="272" y="586" type="curve" smooth="yes"/>
      <point x="316" y="586"/>
      <point x="319" y="555"/>
      <point x="319" y="528" type="curve" smooth="yes"/>
      <point x="319" y="500"/>
      <point x="316" y="469"/>
      <point x="272" y="469" type="curve" smooth="yes"/>
      <point x="226" y="469"/>
      <point x="223" y="500"/>
      <point x="223" y="528" type="curve" smooth="yes"/>
      <point x="223" y="555"/>
      <point x="226" y="586"/>
    </contour>
    <contour>
      <point x="221" y="245" type="line" smooth="yes"/>
      <point x="110" y="228"/>
      <point x="42" y="191"/>
      <point x="42" y="43" type="curve" smooth="yes"/>
      <point x="42" y="-88"/>
      <point x="95" y="-166"/>
      <point x="255" y="-166" type="curve" smooth="yes"/>
      <point x="399" y="-166"/>
      <point x="452" y="-102"/>
      <point x="452" y="6" type="curve"/>
      <point x="392" y="6" type="line"/>
      <point x="392" y="-62"/>
      <point x="357" y="-107"/>
      <point x="256" y="-107" type="curve" smooth="yes"/>
      <point x="140" y="-107"/>
      <point x="110" y="-47"/>
      <point x="110" y="45" type="curve" smooth="yes"/>
      <point x="110" y="160"/>
      <point x="171" y="188"/>
      <point x="250" y="197" type="curve" smooth="yes"/>
      <point x="301" y="203" type="line"/>
      <point x="294" y="393" type="line"/>
      <point x="248" y="393" type="line"/>
      <point x="237" y="247" type="line"/>
    </contour>
  </outline>
</glyph>
<glyph name="AE" format="1">
  <advance width="943"/>
  <unicode hex="00C6"/>
  <outline>
    <contour>
      <point x="318" y="730" type="line"/>
      <point x="35" y="0" type="line"/>
      <point x="107" y="0" type="line"/>
      <point x="387" y="730" type="line"/>
    </contour>
    <contour>
      <point x="5" y="0" type="line"/>
      <point x="183" y="0" type="line"/>
      <point x="183" y="50" type="line"/>
      <point x="5" y="50" type="line"/>
    </contour>
    <contour>
      <point x="343" y="671" type="line"/>
      <point x="807" y="671" type="line"/>
      <point x="807" y="730" type="line"/>
      <point x="343" y="730" type="line"/>
    </contour>
    <contour>
      <point x="453" y="671" type="line"/>
      <point x="453" y="0" type="line"/>
      <point x="525" y="0" type="line"/>
      <point x="525" y="671" type="line"/>
    </contour>
    <contour>
      <point x="453" y="0" type="line"/>
      <point x="853" y="0" type="line"/>
      <point x="853" y="59" type="line"/>
      <point x="453" y="59" type="line"/>
    </contour>
    <contour>
      <point x="215" y="341" type="line"/>
      <point x="813" y="341" type="line"/>
      <point x="813" y="401" type="line"/>
      <point x="215" y="401" type="line"/>
    </contour>
    <contour>
      <point x="393" y="0" type="line"/>
      <point x="493" y="0" type="line"/>
      <point x="493" y="50" type="line"/>
      <point x="393" y="50" type="line"/>
    </contour>
    <contour>
      <point x="863" y="572" type="line"/>
      <point x="863" y="730" type="line"/>
      <point x="807" y="730" type="line"/>
      <point x="807" y="572" type="line"/>
    </contour>
    <contour>
      <point x="883" y="0" type="line"/>
      <point x="883" y="158" type="line"/>
      <point x="827" y="158" type="line"/>
      <point x="827" y="0" type="line"/>
    </contour>
  </outline>
</glyph>
<glyph name="multiply" format="1">
  <advance width="580"/>
  <unicode hex="00D7"/>
  <outline>
    <contour>
      <point x="155" y="141" type="line"/>
      <point x="290" y="276" type="line"/>
      <point x="425" y="141" type="line"/>
      <point x="467" y="183" type="line"/>
      <point x="332" y="318" type="line"/>
      <point x="467" y="453" type="line"/>
      <point x="425" y="495" type="line"/>
      <point x="290" y="360" type="line"/>
      <point x="155" y="495" type="line"/>
      <point x="113" y="453" type="line"/>
      <point x="248" y="318" type="line"/>
      <point x="113" y="183" type="line"/>
    </contour>
  </outline>
</glyph>
<glyph name="Thorn" format="1">
  <advance width="599"/>
  <unicode hex="00DE"/>
  <outline>
    <contour>
      <point x="130" y="730" type="line"/>
      <point x="130" y="0" type="line"/>
      <point x="202" y="0" type="line"/>
      <point x="202" y="730" type="line"/>
    </contour>
    <contour>
      <point x="330" y="137" type="line" smooth="yes"/>
      <point x="528" y="137"/>
      <point x="549" y="247"/>
      <point x="549" y="364" type="curve" smooth="yes"/>
      <point x="549" y="482"/>
      <point x="528" y="592"/>
      <point x="330" y="592" type="curve" smooth="yes"/>
      <point x="130" y="592" type="line"/>
      <point x="130" y="137" type="line"/>
    </contour>
    <contour>
      <point x="202" y="201" type="line"/>
      <point x="202" y="528" type="line"/>
      <point x="330" y="528" type="line" smooth="yes"/>
      <point x="463" y="528"/>
      <point x="477" y="449"/>
      <point x="477" y="364" type="curve" smooth="yes"/>
      <point x="477" y="280"/>
      <point x="463" y="201"/>
      <point x="330" y="201" type="curve" smooth="yes"/>
    </contour>
    <contour>
      <point x="70" y="0" type="line"/>
      <point x="272" y="0" type="line"/>
      <point x="272" y="56" type="line"/>
      <point x="70" y="56" type="line"/>
    </contour>
    <contour>
      <point x="70" y="674" type="line"/>
      <point x="272" y="674" type="line"/>
      <point x="272" y="730" type="line"/>
      <point x="70" y="730" type="line"/>
    </contour>
  </outline>
</glyph>
<glyph name="germandbls" format="1">
  <advance width="636"/>
  <unicode hex="00DF"/>
  <outline>
    <contour>
      <point x="60" y="0" type="line"/>
      <point x="120" y="0" type="line"/>
      <point x="120" y="50" type="line"/>
      <point x="60" y="50" type="line"/>
    </contour>
    <contour>
      <point x="190" y="561" type="line"/>
      <point x="190" y="642"/>
      <point x="228" y="696"/>
      <point x="332" y="696" type="curve" smooth="yes"/>
      <point x="447" y="696"/>
      <point x="479" y="643"/>
      <point x="479" y="562" type="curve" smooth="yes"/>
      <point x="479" y="488"/>
      <point x="443" y="410"/>
      <point x="361" y="410" type="curve" smooth="yes"/>
      <point x="293" y="410" type="line"/>
      <point x="293" y="366" type="line"/>
      <point x="361" y="366" type="line" smooth="yes"/>
      <point x="466" y="366"/>
      <point x="549" y="454"/>
      <point x="549" y="561" type="curve" smooth="yes"/>
      <point x="549" y="679"/>
      <point x="494" y="755"/>
      <point x="332" y="755" type="curve" smooth="yes"/>
      <point x="185" y="755"/>
      <point x="120" y="679"/>
      <point x="120" y="561" type="curve" smooth="yes"/>
      <point x="120" y="0" type="line"/>
      <point x="190" y="0" type="line"/>
    </contour>
    <contour>
      <point x="606" y="197" type="curve" smooth="yes"/>
      <point x="606" y="331"/>
      <point x="525" y="400"/>
      <point x="420" y="400" type="curve" smooth="yes"/>
      <point x="293" y="400" type="line"/>
      <point x="293" y="356" type="line"/>
      <point x="408" y="356" type="line" smooth="yes"/>
      <point x="510" y="356"/>
      <point x="536" y="284"/>
      <point x="536" y="196" type="curve" smooth="yes"/>
      <point x="536" y="120"/>
      <point x="517" y="45"/>
      <point x="420" y="45" type="curve" smooth="yes"/>
      <point x="322" y="45"/>
      <point x="307" y="98"/>
      <point x="307" y="179" type="curve"/>
      <point x="248" y="179" type="line"/>
      <point x="248" y="61"/>
      <point x="278" y="-14"/>
      <point x="421" y="-14" type="curve" smooth="yes"/>
      <point x="567" y="-14"/>
      <point x="606" y="81"/>
    </contour>
  </outline>
</glyph>
<glyph name="ae" format="1">
  <advance width="910"/>
  <unicode hex="00E6"/>
  <outline>
    <contour>
      <point x="233" y="-14" type="curve" smooth="yes"/>
      <point x="318" y="-14"/>
      <point x="398" y="28"/>
      <point x="448" y="83" type="curve"/>
      <point x="440" y="426" type="line"/>
      <point x="479" y="492" type="line"/>
      <point x="454" y="569"/>
      <point x="370" y="586"/>
      <point x="294" y="586" type="curve" smooth="yes"/>
      <point x="130" y="586"/>
      <point x="97" y="514"/>
      <point x="89" y="410" type="curve"/>
      <point x="148" y="407" type="line"/>
      <point x="153" y="480"/>
      <point x="172" y="527"/>
      <point x="294" y="527" type="curve" smooth="yes"/>
      <point x="365" y="527"/>
      <point x="422" y="502"/>
      <point x="422" y="426" type="curve" smooth="yes"/>
      <point x="422" y="326" type="line"/>
      <point x="237" y="314" type="line" smooth="yes"/>
      <point x="97" y="305"/>
      <point x="64" y="255"/>
      <point x="64" y="145" type="curve" smooth="yes"/>
      <point x="64" y="46"/>
      <point x="102" y="-14"/>
    </contour>
    <contour>
      <point x="243" y="43" type="curve" smooth="yes"/>
      <point x="157" y="43"/>
      <point x="132" y="80"/>
      <point x="132" y="142" type="curve" smooth="yes"/>
      <point x="132" y="235"/>
      <point x="158" y="256"/>
      <point x="241" y="261" type="curve" smooth="yes"/>
      <point x="422" y="272" type="line"/>
      <point x="422" y="121" type="line"/>
      <point x="366" y="68"/>
      <point x="305" y="43"/>
    </contour>
    <contour>
      <point x="439" y="270" type="line"/>
      <point x="870" y="270" type="line"/>
      <point x="870" y="286" type="line"/>
      <point x="864" y="325" type="line"/>
      <point x="439" y="325" type="line"/>
    </contour>
    <contour>
      <point x="641" y="-14" type="curve" smooth="yes"/>
      <point x="818" y="-14"/>
      <point x="851" y="76"/>
      <point x="861" y="177" type="curve"/>
      <point x="803" y="180" type="line"/>
      <point x="796" y="103"/>
      <point x="770" y="45"/>
      <point x="639" y="45" type="curve" smooth="yes"/>
      <point x="496" y="45"/>
      <point x="472" y="122"/>
      <point x="472" y="286" type="curve" smooth="yes"/>
      <point x="472" y="405"/>
      <point x="479" y="527"/>
      <point x="636" y="527" type="curve" smooth="yes"/>
      <point x="793" y="527"/>
      <point x="800" y="415"/>
      <point x="800" y="286" type="curve"/>
      <point x="870" y="286" type="line"/>
      <point x="870" y="441"/>
      <point x="847" y="586"/>
      <point x="637" y="586" type="curve" smooth="yes"/>
      <point x="426" y="586"/>
      <point x="402" y="441"/>
      <point x="402" y="286" type="curve" smooth="yes"/>
      <point x="402" y="92"/>
      <point x="444" y="-14"/>
    </contour>
  </outline>
</glyph>
<glyph name="kgreenlandic" format="1">
  <advance width="633"/>
  <unicode hex="0138"/>
  <outline>
    <contour>
      <point x="195" y="0" type="line"/>
      <point x="195" y="572" type="line"/>
      <point x="125" y="572" type="line"/>
      <point x="125" y="0" type="line"/>
    </contour>
    <contour>
      <point x="160" y="282" type="line"/>
      <point x="325" y="282" type="line"/>
      <point x="325" y="336" type="line"/>
      <point x="160" y="336" type="line"/>
    </contour>
    <contour>
      <point x="452" y="540" type="line"/>
      <point x="281" y="315" type="line"/>
      <point x="337" y="287" type="line"/>
      <point x="530" y="540" type="line"/>
    </contour>
    <contour>
      <point x="559" y="21" type="line"/>
      <point x="347" y="305" type="line"/>
      <point x="269" y="305" type="line"/>
      <point x="481" y="21" type="line"/>
    </contour>
    <contour>
      <point x="60" y="522" type="line"/>
      <point x="157" y="522" type="line"/>
      <point x="157" y="572" type="line"/>
      <point x="60" y="572" type="line"/>
    </contour>
    <contour>
      <point x="60" y="0" type="line"/>
      <point x="261" y="0" type="line"/>
      <point x="261" y="50" type="line"/>
      <point x="60" y="50" type="line"/>
    </contour>
    <contour>
      <point x="402" y="0" type="line"/>
      <point x="603" y="0" type="line"/>
      <point x="603" y="50" type="line"/>
      <point x="402" y="50" type="line"/>
    </contour>
    <contour>
      <point x="382" y="522" type="line"/>
      <point x="584" y="522" type="line"/>
      <point x="584" y="572" type="line"/>
      <point x="382" y="572" type="line"/>
    </contour>
  </outline>
</glyph>
<glyph name="eng" format="1">
  <advance width="691"/>
  <unicode hex="014B"/>
  <outline>
    <contour>
      <point x="177" y="572" type="line"/>
      <point x="130" y="572" type="line"/>
      <point x="130" y="0" type="line"/>
      <point x="200" y="0" type="line"/>
      <point x="200" y="487" type="line"/>
    </contour>
    <contour>
      <point x="177" y="433" type="line"/>
      <point x="242" y="492"/>
      <point x="315" y="527"/>
      <point x="395" y="527" type="curve" smooth="yes"/>
      <point x="471" y="527"/>
      <point x="501" y="491"/>
      <point x="501" y="408" type="curve" smooth="yes"/>
      <point x="501" y="0" type="line"/>
      <point x="571" y="0" type="line"/>
      <point x="571" y="407" type="line" smooth="yes"/>
      <point x="571" y="528"/>
      <point x="525" y="586"/>
      <point x="406" y="586" type="curve" smooth="yes"/>
      <point x="306" y="586"/>
      <point x="212" y="530"/>
      <point x="163" y="482" type="curve"/>
    </contour>
    <contour>
      <point x="70" y="0" type="line"/>
      <point x="260" y="0" type="line"/>
      <point x="260" y="50" type="line"/>
      <point x="70" y="50" type="line"/>
    </contour>
    <contour>
      <point x="70" y="522" type="line"/>
      <point x="130" y="522" type="line"/>
      <point x="130" y="572" type="line"/>
      <point x="70" y="572" type="line"/>
    </contour>
    <contour>
      <point x="371" y="-172" type="line"/>
      <point x="371" y="-227" type="line"/>
      <point x="432" y="-227" type="line" smooth="yes"/>
      <point x="554" y="-227"/>
      <point x="571" y="-171"/>
      <point x="571" y="-78" type="curve" smooth="yes"/>
      <point x="571" y="0" type="line"/>
      <point x="501" y="0" type="line"/>
      <point x="501" y="-78" type="line" smooth="yes"/>
      <point x="501" y="-138"/>
      <point x="491" y="-162"/>
      <point x="432" y="-167" type="curve" smooth="yes"/>
    </contour>
  </outline>
</glyph>
<glyph name="OE" format="1">
  <advance width="1013"/>
  <unicode hex="0152"/>
  <outline>
    <contour>
      <point x="337" y="0" type="curve" smooth="yes"/>
      <point x="587" y="0"/>
      <point x="615" y="137"/>
      <point x="615" y="365" type="curve" smooth="yes"/>
      <point x="615" y="591"/>
      <point x="587" y="730"/>
      <point x="337" y="730" type="curve" smooth="yes"/>
      <point x="87" y="730"/>
      <point x="60" y="591"/>
      <point x="60" y="365" type="curve" smooth="yes"/>
      <point x="60" y="137"/>
      <point x="87" y="0"/>
    </contour>
    <contour>
      <point x="337" y="59" type="curve" smooth="yes"/>
      <point x="152" y="59"/>
      <point x="132" y="176"/>
      <point x="132" y="365" type="curve" smooth="yes"/>
      <point x="132" y="554"/>
      <point x="152" y="671"/>
      <point x="337" y="671" type="curve" smooth="yes"/>
      <point x="522" y="671"/>
      <point x="543" y="554"/>
      <point x="543" y="365" type="curve" smooth="yes"/>
      <point x="543" y="176"/>
      <point x="522" y="59"/>
    </contour>
    <contour>
      <point x="337" y="671" type="line"/>
      <point x="903" y="671" type="line"/>
      <point x="903" y="730" type="line"/>
      <point x="337" y="730" type="line"/>
    </contour>
    <contour>
      <point x="337" y="0" type="line"/>
      <point x="923" y="0" type="line"/>
      <point x="923" y="59" type="line"/>
      <point x="337" y="59" type="line"/>
    </contour>
    <contour>
      <point x="605" y="341" type="line"/>
      <point x="883" y="341" type="line"/>
      <point x="883" y="401" type="line"/>
      <point x="605" y="401" type="line"/>
    </contour>
    <contour>
      <point x="933" y="572" type="line"/>
      <point x="933" y="730" type="line"/>
      <point x="877" y="730" type="line"/>
      <point x="877" y="572" type="line"/>
    </contour>
    <contour>
      <point x="953" y="0" type="line"/>
      <point x="953" y="158" type="line"/>
      <point x="897" y="158" type="line"/>
      <point x="897" y="0" type="line"/>
    </contour>
  </outline>
</glyph>
<glyph name="circumflex" format="1">
  <advance width="401"/>
  <unicode hex="02C6"/>
  <outline>
    <contour>
      <point x="92" y="624" type="line"/>
      <point x="200" y="734" type="line"/>
      <point x="309" y="624" type="line"/>
      <point x="351" y="666" type="line"/>
      <point x="215" y="821" type="line"/>
      <point x="186" y="821" type="line"/>
      <point x="50" y="666" type="line"/>
    </contour>
  </outline>
</glyph>
<glyph name="caron" format="1">
  <advance width="371"/>
  <unicode hex="02C7"/>
  <outline>
    <contour>
      <point x="294" y="827" type="line"/>
      <point x="186" y="717" type="line"/>
      <point x="77" y="827" type="line"/>
      <point x="35" y="785" type="line"/>
      <point x="171" y="630" type="line"/>
      <point x="200" y="630" type="line"/>
      <point x="336" y="785" type="line"/>
    </contour>
  </outline>
</glyph>
<glyph name="uni02C9" format="1">
  <advance width="354"/>
  <unicode hex="02C9"/>
  <outline>
    <contour>
      <point x="50" y="694" type="line"/>
      <point x="304" y="694" type="line"/>
      <point x="304" y="759" type="line"/>
      <point x="50" y="759" type="line"/>
    </contour>
  </outline>
</glyph>
<glyph name="dotaccent" format="1">
  <advance width="274"/>
  <unicode hex="02D9"/>
  <outline>
    <contour>
      <point x="144" y="660" type="curve" smooth="yes"/>
      <point x="194" y="660"/>
      <point x="197" y="695"/>
      <point x="197" y="725" type="curve" smooth="yes"/>
      <point x="197" y="756"/>
      <point x="194" y="791"/>
      <point x="144" y="791" type="curve" smooth="yes"/>
      <point x="96" y="791"/>
      <point x="93" y="756"/>
      <point x="93" y="725" type="curve" smooth="yes"/>
      <point x="93" y="695"/>
      <point x="96" y="660"/>
    </contour>
  </outline>
</glyph>
<glyph name="tilde" format="1">
  <advance width="410"/>
  <unicode hex="02DC"/>
  <outline>
    <contour>
      <point x="278" y="677" type="curve" smooth="yes"/>
      <point x="316" y="677"/>
      <point x="346" y="700"/>
      <point x="366" y="770" type="curve"/>
      <point x="316" y="786" type="line"/>
      <point x="306" y="756"/>
      <point x="295" y="742"/>
      <point x="270" y="742" type="curve" smooth="yes"/>
      <point x="239" y="742"/>
      <point x="179" y="778"/>
      <point x="132" y="778" type="curve" smooth="yes"/>
      <point x="94" y="778"/>
      <point x="64" y="755"/>
      <point x="44" y="685" type="curve"/>
      <point x="95" y="669" type="line"/>
      <point x="105" y="699"/>
      <point x="116" y="713"/>
      <point x="141" y="713" type="curve" smooth="yes"/>
      <point x="172" y="713"/>
      <point x="231" y="677"/>
    </contour>
  </outline>
</glyph>
<glyph name="pi" format="1">
  <advance width="635"/>
  <unicode hex="03C0"/>
  <outline>
    <contour>
      <point x="435" y="572" type="line"/>
      <point x="435" y="0" type="line"/>
      <point x="505" y="0" type="line"/>
      <point x="505" y="572" type="line"/>
    </contour>
    <contour>
      <point x="130" y="572" type="line"/>
      <point x="130" y="0" type="line"/>
      <point x="200" y="0" type="line"/>
      <point x="200" y="572" type="line"/>
    </contour>
    <contour>
      <point x="70" y="522" type="line"/>
      <point x="565" y="522" type="line"/>
      <point x="565" y="572" type="line"/>
      <point x="70" y="572" type="line"/>
    </contour>
  </outline>
</glyph>
<glyph name="candrabinduinverteddeva" format="1">
  <advance width="0"/>
  <unicode hex="0900"/>
  <outline>
    <contour>
      <point x="-150" y="730" type="move" name="_DVAnchor3"/>
    </contour>
    <contour>
      <point x="-150" y="935" type="curve" smooth="yes"/>
      <point x="-187" y="935"/>
      <point x="-203" y="920"/>
      <point x="-203" y="884" type="curve" smooth="yes"/>
      <point x="-203" y="847"/>
      <point x="-188" y="832"/>
      <point x="-150" y="832" type="curve" smooth="yes"/>
      <point x="-114" y="832"/>
      <point x="-99" y="847"/>
      <point x="-99" y="884" type="curve" smooth="yes"/>
      <point x="-99" y="920"/>
      <point x="-114" y="935"/>
    </contour>
    <contour>
      <point x="-320" y="925" type="line"/>
      <point x="-320" y="1006"/>
      <point x="-292" y="1084"/>
      <point x="-149" y="1084" type="curve" smooth="yes"/>
      <point x="-6" y="1084"/>
      <point x="21" y="1006"/>
      <point x="21" y="925" type="curve"/>
      <point x="-38" y="925" type="line"/>
      <point x="-38" y="977"/>
      <point x="-53" y="1024"/>
      <point x="-149" y="1024" type="curve" smooth="yes"/>
      <point x="-244" y="1024"/>
      <point x="-259" y="977"/>
      <point x="-259" y="925" type="curve"/>
    </contour>
  </outline>
</glyph>
<glyph name="candrabindudeva" format="1">
  <advance width="0"/>
  <unicode hex="0901"/>
  <outline>
    <contour>
      <point x="-150" y="730" type="move" name="_DVAnchor3"/>
    </contour>
    <contour>
      <point x="-149" y="981" type="curve" smooth="yes"/>
      <point x="-112" y="981"/>
      <point x="-96" y="996"/>
      <point x="-96" y="1032" type="curve" smooth="yes"/>
      <point x="-96" y="1069"/>
      <point x="-111" y="1084"/>
      <point x="-149" y="1084" type="curve" smooth="yes"/>
      <point x="-185" y="1084"/>
      <point x="-200" y="1069"/>
      <point x="-200" y="1032" type="curve" smooth="yes"/>
      <point x="-200" y="996"/>
      <point x="-185" y="981"/>
    </contour>
    <contour>
      <point x="21" y="991" type="line"/>
      <point x="21" y="910"/>
      <point x="-7" y="832"/>
      <point x="-150" y="832" type="curve" smooth="yes"/>
      <point x="-293" y="832"/>
      <point x="-320" y="910"/>
      <point x="-320" y="991" type="curve"/>
      <point x="-261" y="991" type="line"/>
      <point x="-261" y="939"/>
      <point x="-246" y="892"/>
      <point x="-150" y="892" type="curve" smooth="yes"/>
      <point x="-55" y="892"/>
      <point x="-40" y="939"/>
      <point x="-40" y="991" type="curve"/>
    </contour>
  </outline>
</glyph>
<glyph name="anusvaradeva" format="1">
  <advance width="0"/>
  <unicode hex="0902"/>
  <outline>
    <contour>
      <point x="-140" y="730" type="move" name="_DVAnchor3"/>
    </contour>
    <contour>
      <point x="-140" y="912" type="curve" smooth="yes"/>
      <point x="-103" y="912"/>
      <point x="-87" y="927"/>
      <point x="-87" y="963" type="curve" smooth="yes"/>
      <point x="-87" y="1000"/>
      <point x="-102" y="1015"/>
      <point x="-140" y="1015" type="curve" smooth="yes"/>
      <point x="-176" y="1015"/>
      <point x="-191" y="1000"/>
      <point x="-191" y="963" type="curve" smooth="yes"/>
      <point x="-191" y="927"/>
      <point x="-176" y="912"/>
    </contour>
  </outline>
</glyph>
<glyph name="visargadeva" format="1">
  <advance width="372"/>
  <unicode hex="0903"/>
  <outline>
    <contour>
      <point x="184" y="463" type="curve" smooth="yes"/>
      <point x="221" y="463"/>
      <point x="237" y="478"/>
      <point x="237" y="514" type="curve" smooth="yes"/>
      <point x="237" y="551"/>
      <point x="222" y="566"/>
      <point x="184" y="566" type="curve" smooth="yes"/>
      <point x="148" y="566"/>
      <point x="133" y="551"/>
      <point x="133" y="514" type="curve" smooth="yes"/>
      <point x="133" y="478"/>
      <point x="148" y="463"/>
    </contour>
    <contour>
      <point x="184" y="145" type="curve" smooth="yes"/>
      <point x="221" y="145"/>
      <point x="237" y="160"/>
      <point x="237" y="196" type="curve" smooth="yes"/>
      <point x="237" y="233"/>
      <point x="222" y="248"/>
      <point x="184" y="248" type="curve" smooth="yes"/>
      <point x="148" y="248"/>
      <point x="133" y="233"/>
      <point x="133" y="196" type="curve" smooth="yes"/>
      <point x="133" y="160"/>
      <point x="148" y="145"/>
    </contour>
  </outline>
</glyph>
<glyph name="aadeva" format="1">
  <advance width="1136"/>
  <unicode hex="0906"/>
  <outline>
    <contour>
      <point x="836" y="730" type="move" name="DVAnchor3"/>
    </contour>
    <component base="aasigndeva" xOffset="836"/>
    <component base="adeva"/>
  </outline>
</glyph>
<glyph name="uudeva" format="1">
  <advance width="874"/>
  <unicode hex="090A"/>
  <outline>
    <contour>
      <point x="350" y="730" type="move" name="DVAnchor3"/>
    </contour>
    <contour>
      <point x="714" y="48" type="line"/>
      <point x="832" y="86"/>
      <point x="849" y="161"/>
      <point x="849" y="247" type="curve" smooth="yes"/>
      <point x="849" y="344"/>
      <point x="808" y="452"/>
      <point x="649" y="452" type="curve" smooth="yes"/>
      <point x="538" y="452"/>
      <point x="468" y="375"/>
      <point x="467" y="266" type="curve"/>
      <point x="504" y="266" type="line"/>
      <point x="504" y="352"/>
      <point x="561" y="395"/>
      <point x="642" y="395" type="curve" smooth="yes"/>
      <point x="757" y="395"/>
      <point x="779" y="318"/>
      <point x="779" y="247" type="curve" smooth="yes"/>
      <point x="779" y="186"/>
      <point x="773" y="132"/>
      <point x="688" y="105" type="curve"/>
    </contour>
    <contour>
      <point x="292" y="680" type="line" smooth="yes"/>
      <point x="407" y="680"/>
      <point x="439" y="625"/>
      <point x="439" y="544" type="curve" smooth="yes"/>
      <point x="439" y="470"/>
      <point x="393" y="414"/>
      <point x="311" y="414" type="curve" smooth="yes"/>
      <point x="234" y="414" type="line"/>
      <point x="234" y="370" type="line"/>
      <point x="311" y="370" type="line" smooth="yes"/>
      <point x="416" y="370"/>
      <point x="509" y="438"/>
      <point x="509" y="545" type="curve" smooth="yes"/>
      <point x="509" y="649"/>
      <point x="454" y="718"/>
      <point x="292" y="718" type="curve"/>
    </contour>
    <contour>
      <point x="51" y="252" type="line"/>
      <point x="69" y="112"/>
      <point x="151" y="41"/>
      <point x="302" y="41" type="curve" smooth="yes"/>
      <point x="444" y="41"/>
      <point x="518" y="106"/>
      <point x="518" y="222" type="curve" smooth="yes"/>
      <point x="518" y="346"/>
      <point x="427" y="404"/>
      <point x="322" y="404" type="curve" smooth="yes"/>
      <point x="234" y="404" type="line"/>
      <point x="234" y="360" type="line"/>
      <point x="310" y="360" type="line" smooth="yes"/>
      <point x="405" y="360"/>
      <point x="448" y="299"/>
      <point x="448" y="221" type="curve" smooth="yes"/>
      <point x="448" y="145"/>
      <point x="403" y="99"/>
      <point x="302" y="99" type="curve" smooth="yes"/>
      <point x="193" y="99"/>
      <point x="129" y="155"/>
      <point x="119" y="276" type="curve"/>
    </contour>
    <contour>
      <point x="-10" y="680" type="line"/>
      <point x="884" y="680" type="line"/>
      <point x="884" y="730" type="line"/>
      <point x="-10" y="730" type="line"/>
    </contour>
  </outline>
</glyph>
<glyph name="kadeva" format="1">
  <advance width="890"/>
  <unicode hex="0915"/>
  <outline>
    <contour>
      <point x="465" y="30" type="move" name="DVAnchor0"/>
    </contour>
    <contour>
      <point x="465" y="730" type="move" name="DVAnchor3"/>
    </contour>
    <contour>
      <point x="-10" y="680" type="line"/>
      <point x="900" y="680" type="line"/>
      <point x="900" y="730" type="line"/>
      <point x="-10" y="730" type="line"/>
    </contour>
    <contour>
      <point x="430" y="0" type="line"/>
      <point x="500" y="0" type="line"/>
      <point x="500" y="680" type="line"/>
      <point x="430" y="680" type="line"/>
    </contour>
    <contour>
      <point x="846" y="367" type="curve" smooth="yes"/>
      <point x="846" y="482"/>
      <point x="824" y="572"/>
      <point x="662" y="572" type="curve" smooth="yes"/>
      <point x="529" y="572"/>
      <point x="466" y="483"/>
      <point x="465" y="372" type="curve"/>
      <point x="500" y="372" type="line"/>
      <point x="500" y="463"/>
      <point x="549" y="513"/>
      <point x="646" y="513" type="curve" smooth="yes"/>
      <point x="767" y="513"/>
      <point x="776" y="453"/>
      <point x="776" y="367" type="curve" smooth="yes"/>
      <point x="776" y="299"/>
      <point x="755" y="218"/>
      <point x="711" y="163" type="curve"/>
      <point x="770" y="133" type="line"/>
      <point x="820" y="199"/>
      <point x="846" y="288"/>
    </contour>
    <contour>
      <point x="389" y="550" type="line"/>
      <point x="354" y="564"/>
      <point x="318" y="572"/>
      <point x="274" y="572" type="curve" smooth="yes"/>
      <point x="84" y="572"/>
      <point x="66" y="464"/>
      <point x="66" y="360" type="curve" smooth="yes"/>
      <point x="66" y="252"/>
      <point x="83" y="140"/>
      <point x="271" y="140" type="curve" smooth="yes"/>
      <point x="358" y="140"/>
      <point x="421" y="167"/>
      <point x="465" y="215" type="curve"/>
      <point x="465" y="280" type="line"/>
      <point x="432" y="235"/>
      <point x="368" y="197"/>
      <point x="280" y="197" type="curve" smooth="yes"/>
      <point x="147" y="197"/>
      <point x="136" y="272"/>
      <point x="136" y="356" type="curve" smooth="yes"/>
      <point x="136" y="439"/>
      <point x="147" y="514"/>
      <point x="286" y="514" type="curve" smooth="yes"/>
      <point x="318" y="514"/>
      <point x="348" y="508"/>
      <point x="376" y="495" type="curve"/>
    </contour>
  </outline>
</glyph>
<glyph name="khadeva" format="1">
  <advance width="1051"/>
  <unicode hex="0916"/>
  <outline>
    <contour>
      <point x="901" y="730" type="move" name="DVAnchor3"/>
    </contour>
    <contour>
      <point x="901" y="30" type="move" name="DVAnchor0"/>
    </contour>
    <contour>
      <point x="264" y="312" type="curve" smooth="yes"/>
      <point x="434" y="312"/>
      <point x="455" y="408"/>
      <point x="455" y="510" type="curve" smooth="yes"/>
      <point x="455" y="680" type="line"/>
      <point x="385" y="680" type="line"/>
      <point x="385" y="510" type="line" smooth="yes"/>
      <point x="385" y="441"/>
      <point x="376" y="371"/>
      <point x="265" y="371" type="curve" smooth="yes"/>
      <point x="201" y="371"/>
      <point x="169" y="425"/>
      <point x="153" y="502" type="curve"/>
      <point x="83" y="502" type="line"/>
      <point x="108" y="388"/>
      <point x="159" y="312"/>
    </contour>
    <contour>
      <point x="-10" y="680" type="line"/>
      <point x="560" y="680" type="line"/>
      <point x="560" y="730" type="line"/>
      <point x="-10" y="730" type="line"/>
    </contour>
    <contour>
      <point x="526" y="680" type="line"/>
      <point x="1061" y="680" type="line"/>
      <point x="1061" y="730" type="line"/>
      <point x="526" y="730" type="line"/>
    </contour>
    <contour>
      <point x="866" y="0" type="line"/>
      <point x="936" y="0" type="line"/>
      <point x="936" y="680" type="line"/>
      <point x="866" y="680" type="line"/>
    </contour>
    <contour>
      <point x="830" y="554" type="line"/>
      <point x="800" y="566"/>
      <point x="768" y="572"/>
      <point x="731" y="572" type="curve" smooth="yes"/>
      <point x="570" y="572"/>
      <point x="550" y="485"/>
      <point x="550" y="396" type="curve" smooth="yes"/>
      <point x="550" y="304"/>
      <point x="570" y="215"/>
      <point x="730" y="215" type="curve" smooth="yes"/>
      <point x="805" y="215"/>
      <point x="861" y="232"/>
      <point x="901" y="263" type="curve"/>
      <point x="901" y="326" type="line"/>
      <point x="871" y="296"/>
      <point x="815" y="271"/>
      <point x="740" y="271" type="curve" smooth="yes"/>
      <point x="631" y="271"/>
      <point x="620" y="328"/>
      <point x="620" y="394" type="curve" smooth="yes"/>
      <point x="620" y="459"/>
      <point x="631" y="516"/>
      <point x="743" y="516" type="curve" smooth="yes"/>
      <point x="770" y="516"/>
      <point x="795" y="511"/>
      <point x="818" y="501" type="curve"/>
    </contour>
    <contour>
      <point x="512" y="-14" type="curve" smooth="yes"/>
      <point x="598" y="-14"/>
      <point x="729" y="3"/>
      <point x="901" y="110" type="curve"/>
      <point x="901" y="175" type="line"/>
      <point x="794" y="96"/>
      <point x="645" y="45"/>
      <point x="512" y="45" type="curve" smooth="yes"/>
      <point x="253" y="45"/>
      <point x="154" y="322"/>
      <point x="143" y="502" type="curve"/>
      <point x="83" y="502" type="line"/>
      <point x="100" y="287"/>
      <point x="219" y="-14"/>
    </contour>
  </outline>
</glyph>
<glyph name="ngadeva" format="1">
  <advance width="829"/>
  <unicode hex="0919"/>
  <outline>
    <contour>
      <point x="318" y="30" type="move" name="DVAnchor0"/>
    </contour>
    <contour>
      <point x="460" y="730" type="move" name="DVAnchor3"/>
    </contour>
    <contour>
      <point x="71" y="136" type="line"/>
      <point x="110" y="40"/>
      <point x="201" y="-15"/>
      <point x="367" y="-15" type="curve" smooth="yes"/>
      <point x="563" y="-15"/>
      <point x="642" y="67"/>
      <point x="642" y="183" type="curve" smooth="yes"/>
      <point x="642" y="294"/>
      <point x="563" y="372"/>
      <point x="370" y="372" type="curve" smooth="yes"/>
      <point x="318" y="372"/>
      <point x="269" y="361"/>
      <point x="226" y="346" type="curve"/>
      <point x="176" y="364"/>
      <point x="156" y="396"/>
      <point x="156" y="434" type="curve" smooth="yes"/>
      <point x="156" y="486"/>
      <point x="194" y="526"/>
      <point x="299" y="526" type="curve"/>
      <point x="299" y="586" type="line"/>
      <point x="154" y="586"/>
      <point x="86" y="520"/>
      <point x="86" y="433" type="curve" smooth="yes"/>
      <point x="86" y="347"/>
      <point x="134" y="313"/>
      <point x="207" y="286" type="curve"/>
      <point x="253" y="305"/>
      <point x="308" y="317"/>
      <point x="360" y="317" type="curve" smooth="yes"/>
      <point x="496" y="317"/>
      <point x="573" y="270"/>
      <point x="573" y="183" type="curve" smooth="yes"/>
      <point x="573" y="90"/>
      <point x="497" y="43"/>
      <point x="367" y="43" type="curve" smooth="yes"/>
      <point x="243" y="43"/>
      <point x="165" y="79"/>
      <point x="132" y="156" type="curve"/>
    </contour>
    <contour>
      <point x="565" y="586" type="line"/>
      <point x="565" y="680" type="line"/>
      <point x="841" y="680" type="line"/>
      <point x="841" y="730" type="line"/>
      <point x="-12" y="730" type="line"/>
      <point x="-12" y="680" type="line"/>
      <point x="495" y="680" type="line"/>
      <point x="495" y="586" type="line"/>
    </contour>
    <contour>
      <point x="299" y="526" type="line"/>
      <point x="565" y="526" type="line"/>
      <point x="565" y="586" type="line"/>
      <point x="299" y="586" type="line"/>
    </contour>
    <contour>
      <point x="735" y="375" type="curve" smooth="yes"/>
      <point x="775" y="375"/>
      <point x="792" y="390"/>
      <point x="792" y="426" type="curve" smooth="yes"/>
      <point x="792" y="463"/>
      <point x="776" y="478"/>
      <point x="735" y="478" type="curve" smooth="yes"/>
      <point x="697" y="478"/>
      <point x="681" y="463"/>
      <point x="681" y="426" type="curve" smooth="yes"/>
      <point x="681" y="390"/>
      <point x="697" y="375"/>
    </contour>
  </outline>
</glyph>
<glyph name="nyadeva" format="1">
  <advance width="800"/>
  <unicode hex="091E"/>
  <outline>
    <contour>
      <point x="650" y="730" type="move" name="DVAnchor3"/>
    </contour>
    <contour>
      <point x="615" y="680" type="line"/>
      <point x="615" y="0" type="line"/>
      <point x="685" y="0" type="line"/>
      <point x="685" y="680" type="line"/>
      <point x="810" y="680" type="line"/>
      <point x="810" y="730" type="line"/>
      <point x="-10" y="730" type="line"/>
      <point x="-10" y="680" type="line"/>
    </contour>
    <contour>
      <point x="405" y="300" type="line"/>
      <point x="457" y="290"/>
      <point x="598" y="290"/>
      <point x="650" y="305" type="curve"/>
      <point x="650" y="355" type="line"/>
      <point x="598" y="340"/>
      <point x="457" y="340"/>
      <point x="405" y="350" type="curve"/>
    </contour>
    <contour>
      <point x="128" y="433" type="line"/>
      <point x="159" y="446"/>
      <point x="195" y="453"/>
      <point x="235" y="453" type="curve" smooth="yes"/>
      <point x="322" y="453"/>
      <point x="367" y="392"/>
      <point x="367" y="325" type="curve" smooth="yes"/>
      <point x="367" y="258"/>
      <point x="322" y="197"/>
      <point x="235" y="197" type="curve" smooth="yes"/>
      <point x="152" y="197"/>
      <point x="86" y="225"/>
      <point x="33" y="266" type="curve"/>
      <point x="5" y="214" type="line"/>
      <point x="65" y="170"/>
      <point x="140" y="139"/>
      <point x="234" y="139" type="curve" smooth="yes"/>
      <point x="380" y="139"/>
      <point x="437" y="229"/>
      <point x="437" y="325" type="curve" smooth="yes"/>
      <point x="437" y="421"/>
      <point x="380" y="511"/>
      <point x="234" y="511" type="curve" smooth="yes"/>
      <point x="186" y="511"/>
      <point x="145" y="502"/>
      <point x="108" y="487" type="curve"/>
    </contour>
  </outline>
</glyph>
<glyph name="tthadeva" format="1">
  <advance width="650"/>
  <unicode hex="0920"/>
  <outline>
    <contour>
      <point x="378" y="730" type="move" name="DVAnchor3"/>
    </contour>
    <contour>
      <point x="320" y="46" type="move" name="DVAnchor0"/>
    </contour>
    <contour>
      <point x="320" y="75" type="line"/>
      <point x="179" y="75"/>
      <point x="121" y="141"/>
      <point x="121" y="296" type="curve" smooth="yes"/>
      <point x="121" y="412"/>
      <point x="203" y="445"/>
      <point x="310" y="445" type="curve" smooth="yes"/>
      <point x="413" y="445" type="line"/>
      <point x="413" y="680" type="line"/>
      <point x="343" y="680" type="line"/>
      <point x="343" y="504" type="line"/>
      <point x="309" y="504" type="line" smooth="yes"/>
      <point x="153" y="504"/>
      <point x="51" y="445"/>
      <point x="51" y="296" type="curve" smooth="yes"/>
      <point x="51" y="103"/>
      <point x="136" y="16"/>
      <point x="320" y="16" type="curve"/>
    </contour>
    <contour>
      <point x="320" y="16" type="line"/>
      <point x="511" y="16"/>
      <point x="599" y="103"/>
      <point x="599" y="296" type="curve" smooth="yes"/>
      <point x="599" y="445"/>
      <point x="500" y="504"/>
      <point x="353" y="504" type="curve"/>
      <point x="353" y="445" type="line"/>
      <point x="441" y="445"/>
      <point x="529" y="412"/>
      <point x="529" y="296" type="curve" smooth="yes"/>
      <point x="529" y="141"/>
      <point x="468" y="75"/>
      <point x="320" y="75" type="curve"/>
    </contour>
    <contour>
      <point x="-10" y="680" type="line"/>
      <point x="660" y="680" type="line"/>
      <point x="660" y="730" type="line"/>
      <point x="-10" y="730" type="line"/>
    </contour>
  </outline>
</glyph>
<glyph name="ddhadeva" format="1">
  <advance width="653"/>
  <unicode hex="0922"/>
  <outline>
    <contour>
      <point x="300" y="46" type="move" name="DVAnchor0"/>
    </contour>
    <contour>
      <point x="461" y="730" type="move" name="DVAnchor3"/>
    </contour>
    <contour>
      <point x="528" y="680" type="line"/>
      <point x="663" y="680" type="line"/>
      <point x="663" y="730" type="line"/>
      <point x="528" y="730" type="line"/>
    </contour>
    <contour>
      <point x="585" y="225" type="curve" smooth="yes"/>
      <point x="585" y="309"/>
      <point x="570" y="386"/>
      <point x="432" y="386" type="curve" smooth="yes"/>
      <point x="294" y="386"/>
      <point x="280" y="309"/>
      <point x="280" y="225" type="curve" smooth="yes"/>
      <point x="280" y="146"/>
      <point x="295" y="77"/>
      <point x="424" y="46" type="curve"/>
      <point x="449" y="92" type="line"/>
      <point x="349" y="115"/>
      <point x="343" y="168"/>
      <point x="343" y="225" type="curve" smooth="yes"/>
      <point x="343" y="284"/>
      <point x="347" y="336"/>
      <point x="431" y="336" type="curve" smooth="yes"/>
      <point x="516" y="336"/>
      <point x="521" y="284"/>
      <point x="521" y="225" type="curve" smooth="yes"/>
      <point x="521" y="141"/>
      <point x="469" y="75"/>
      <point x="320" y="75" type="curve" smooth="yes"/>
      <point x="183" y="75"/>
      <point x="126" y="141"/>
      <point x="126" y="296" type="curve" smooth="yes"/>
      <point x="126" y="435"/>
      <point x="183" y="475"/>
      <point x="332" y="475" type="curve" smooth="yes"/>
      <point x="528" y="475" type="line"/>
      <point x="528" y="730" type="line"/>
      <point x="-10" y="730" type="line"/>
      <point x="-10" y="680" type="line"/>
      <point x="459" y="680" type="line"/>
      <point x="459" y="534" type="line"/>
      <point x="331" y="534" type="line" smooth="yes"/>
      <point x="133" y="534"/>
      <point x="56" y="466"/>
      <point x="56" y="296" type="curve" smooth="yes"/>
      <point x="56" y="103"/>
      <point x="139" y="16"/>
      <point x="320" y="16" type="curve" smooth="yes"/>
      <point x="519" y="16"/>
      <point x="585" y="110"/>
    </contour>
  </outline>
</glyph>
<glyph name="phadeva" format="1">
  <advance width="890"/>
  <unicode hex="092B"/>
  <outline>
    <contour>
      <point x="465" y="30" type="move" name="DVAnchor0"/>
    </contour>
    <contour>
      <point x="465" y="730" type="move" name="DVAnchor3"/>
    </contour>
    <contour>
      <point x="-10" y="680" type="line"/>
      <point x="900" y="680" type="line"/>
      <point x="900" y="730" type="line"/>
      <point x="-10" y="730" type="line"/>
    </contour>
    <contour>
      <point x="430" y="0" type="line"/>
      <point x="500" y="0" type="line"/>
      <point x="500" y="680" type="line"/>
      <point x="430" y="680" type="line"/>
    </contour>
    <contour>
      <point x="95" y="696" type="line"/>
      <point x="95" y="474" type="line" smooth="yes"/>
      <point x="95" y="345"/>
      <point x="118" y="232"/>
      <point x="290" y="232" type="curve" smooth="yes"/>
      <point x="409" y="232"/>
      <point x="462" y="324"/>
      <point x="463" y="448" type="curve"/>
      <point x="430" y="448" type="line"/>
      <point x="429" y="347"/>
      <point x="386" y="291"/>
      <point x="298" y="291" type="curve" smooth="yes"/>
      <point x="174" y="291"/>
      <point x="165" y="378"/>
      <point x="165" y="474" type="curve" smooth="yes"/>
      <point x="165" y="696" type="line"/>
    </contour>
    <contour>
      <point x="846" y="367" type="curve" smooth="yes"/>
      <point x="846" y="482"/>
      <point x="824" y="572"/>
      <point x="662" y="572" type="curve" smooth="yes"/>
      <point x="529" y="572"/>
      <point x="466" y="483"/>
      <point x="465" y="372" type="curve"/>
      <point x="500" y="372" type="line"/>
      <point x="500" y="463"/>
      <point x="549" y="513"/>
      <point x="646" y="513" type="curve" smooth="yes"/>
      <point x="767" y="513"/>
      <point x="776" y="453"/>
      <point x="776" y="367" type="curve" smooth="yes"/>
      <point x="776" y="299"/>
      <point x="755" y="218"/>
      <point x="711" y="163" type="curve"/>
      <point x="770" y="133" type="line"/>
      <point x="820" y="199"/>
      <point x="846" y="288"/>
    </contour>
  </outline>
</glyph>
<glyph name="oesigndeva" format="1">
  <advance width="0"/>
  <unicode hex="093A"/>
  <outline>
    <contour>
      <point x="-150" y="730" type="move" name="_DVAnchor3"/>
    </contour>
    <contour>
      <point x="-116" y="730" type="line"/>
      <point x="-116" y="900" type="line"/>
      <point x="-184" y="900" type="line"/>
      <point x="-184" y="730" type="line"/>
    </contour>
  </outline>
</glyph>
<glyph name="avagrahadeva" format="1">
  <advance width="485"/>
  <unicode hex="093D"/>
  <outline>
    <contour>
      <point x="455" y="220" type="curve" smooth="yes"/>
      <point x="455" y="436"/>
      <point x="163" y="448"/>
      <point x="163" y="586" type="curve" smooth="yes"/>
      <point x="163" y="643"/>
      <point x="195" y="680"/>
      <point x="265" y="680" type="curve" smooth="yes"/>
      <point x="405" y="680" type="line"/>
      <point x="405" y="730" type="line"/>
      <point x="254" y="730" type="line" smooth="yes"/>
      <point x="157" y="730"/>
      <point x="93" y="678"/>
      <point x="93" y="586" type="curve" smooth="yes"/>
      <point x="93" y="404"/>
      <point x="385" y="391"/>
      <point x="385" y="213" type="curve" smooth="yes"/>
      <point x="385" y="112"/>
      <point x="329" y="64"/>
      <point x="246" y="64" type="curve" smooth="yes"/>
      <point x="133" y="64"/>
      <point x="82" y="147"/>
      <point x="82" y="284" type="curve"/>
      <point x="15" y="274" type="line"/>
      <point x="15" y="103"/>
      <point x="94" y="6"/>
      <point x="246" y="6" type="curve" smooth="yes"/>
      <point x="372" y="6"/>
      <point x="455" y="77"/>
    </contour>
  </outline>
</glyph>
<glyph name="uusigndeva" format="1">
  <advance width="0"/>
  <unicode hex="0942"/>
  <outline>
    <contour>
      <point x="-150" y="60" type="move" name="_DVAnchor0"/>
    </contour>
    <contour>
      <point x="174" y="-86" type="line"/>
      <point x="52" y="31"/>
      <point x="-62" y="47"/>
      <point x="-150" y="47" type="curve" smooth="yes"/>
      <point x="-254" y="47"/>
      <point x="-326" y="0"/>
      <point x="-326" y="-108" type="curve" smooth="yes"/>
      <point x="-326" y="-224"/>
      <point x="-257" y="-262"/>
      <point x="-150" y="-262" type="curve"/>
      <point x="-150" y="-212" type="line"/>
      <point x="-219" y="-212"/>
      <point x="-266" y="-195"/>
      <point x="-266" y="-108" type="curve" smooth="yes"/>
      <point x="-266" y="-32"/>
      <point x="-218" y="-4"/>
      <point x="-150" y="-3" type="curve" smooth="yes"/>
      <point x="-95" y="-3"/>
      <point x="19" y="-7"/>
      <point x="139" y="-131" type="curve"/>
    </contour>
    <contour>
      <point x="-38" y="-149" type="line"/>
      <point x="-51" y="-201"/>
      <point x="-94" y="-212"/>
      <point x="-150" y="-212" type="curve"/>
      <point x="-150" y="-262" type="line"/>
      <point x="-63" y="-262"/>
      <point x="-1" y="-237"/>
      <point x="19" y="-166" type="curve"/>
    </contour>
  </outline>
</glyph>
<glyph name="rvocalicsigndeva" format="1">
  <advance width="0"/>
  <unicode hex="0943"/>
  <outline>
    <contour>
      <point x="-115" y="0" type="move" name="_DVAnchor0"/>
    </contour>
    <contour>
      <point x="-37" y="-216" type="line"/>
      <point x="-83" y="-236"/>
      <point x="-121" y="-239"/>
      <point x="-148" y="-239" type="curve" smooth="yes"/>
      <point x="-216" y="-238"/>
      <point x="-264" y="-210"/>
      <point x="-264" y="-134" type="curve" smooth="yes"/>
      <point x="-264" y="-47"/>
      <point x="-217" y="-30"/>
      <point x="-148" y="-30" type="curve"/>
      <point x="-148" y="20" type="line"/>
      <point x="-255" y="20"/>
      <point x="-324" y="-18"/>
      <point x="-324" y="-134" type="curve" smooth="yes"/>
      <point x="-324" y="-242"/>
      <point x="-252" y="-289"/>
      <point x="-148" y="-289" type="curve" smooth="yes"/>
      <point x="-110" y="-289"/>
      <point x="-67" y="-285"/>
      <point x="-21" y="-265" type="curve"/>
    </contour>
  </outline>
</glyph>
<glyph name="rrvocalicsigndeva" format="1">
  <advance width="0"/>
  <unicode hex="0944"/>
  <outline>
    <contour>
      <point x="-115" y="0" type="move" name="_DVAnchor0"/>
    </contour>
    <contour>
      <point x="-148" y="-135" type="line"/>
      <point x="-216" y="-135"/>
      <point x="-264" y="-117"/>
      <point x="-264" y="-81" type="curve" smooth="yes"/>
      <point x="-264" y="-38"/>
      <point x="-217" y="-30"/>
      <point x="-148" y="-30" type="curve"/>
      <point x="-148" y="17" type="line"/>
      <point x="-255" y="17"/>
      <point x="-324" y="-7"/>
      <point x="-324" y="-77" type="curve" smooth="yes"/>
      <point x="-324" y="-139"/>
      <point x="-252" y="-166"/>
      <point x="-148" y="-166" type="curve"/>
    </contour>
    <contour>
      <point x="-88" y="-266" type="line"/>
      <point x="-119" y="-274"/>
      <point x="-147" y="-277"/>
      <point x="-168" y="-277" type="curve" smooth="yes"/>
      <point x="-225" y="-277"/>
      <point x="-264" y="-264"/>
      <point x="-264" y="-228" type="curve" smooth="yes"/>
      <point x="-264" y="-185"/>
      <point x="-217" y="-171"/>
      <point x="-148" y="-171" type="curve"/>
      <point x="-148" y="-140" type="line"/>
      <point x="-255" y="-140"/>
      <point x="-324" y="-167"/>
      <point x="-324" y="-233" type="curve" smooth="yes"/>
      <point x="-324" y="-299"/>
      <point x="-260" y="-323"/>
      <point x="-168" y="-323" type="curve" smooth="yes"/>
      <point x="-141" y="-323"/>
      <point x="-109" y="-320"/>
      <point x="-78" y="-312" type="curve"/>
    </contour>
  </outline>
</glyph>
<glyph name="awsigndeva" format="1">
  <advance width="300"/>
  <unicode hex="094F"/>
  <outline>
    <contour>
      <point x="146" y="730" type="line"/>
      <point x="46" y="942"/>
      <point x="-161" y="782"/>
      <point x="-161" y="972" type="curve"/>
      <point x="-229" y="967" type="line"/>
      <point x="-229" y="728"/>
      <point x="3" y="890"/>
      <point x="103" y="730" type="curve"/>
    </contour>
    <contour>
      <point x="197" y="730" type="line"/>
      <point x="187" y="930"/>
      <point x="66" y="862"/>
      <point x="66" y="1052" type="curve"/>
      <point x="-2" y="1047" type="line"/>
      <point x="-2" y="837"/>
      <point x="132" y="915"/>
      <point x="154" y="730" type="curve"/>
    </contour>
    <component base="aasigndeva"/>
  </outline>
</glyph>
<glyph name="udattadeva" format="1">
  <advance width="0"/>
  <unicode hex="0951"/>
  <outline>
    <contour>
      <point x="-150" y="730" type="move" name="_DVAnchor3"/>
    </contour>
    <contour>
      <point x="-192" y="778" type="line"/>
      <point x="-192" y="1122" type="line"/>
      <point x="-112" y="1122" type="line"/>
      <point x="-112" y="778" type="line"/>
    </contour>
  </outline>
</glyph>
<glyph name="anudattadeva" format="1">
  <advance width="0"/>
  <unicode hex="0952"/>
  <outline>
    <contour>
      <point x="-622" y="-147" type="line"/>
      <point x="-622" y="-97" type="line"/>
      <point x="-108" y="-97" type="line"/>
      <point x="-108" y="-147" type="line"/>
    </contour>
  </outline>
</glyph>
<glyph name="acutedeva" format="1">
  <advance width="0"/>
  <unicode hex="0954"/>
  <outline>
    <contour>
      <point x="-157" y="729" type="move" name="_DVAnchor3"/>
    </contour>
    <contour>
      <point x="-195" y="782" type="line"/>
      <point x="-23" y="932" type="line"/>
      <point x="-76" y="985" type="line"/>
      <point x="-237" y="824" type="line"/>
    </contour>
  </outline>
</glyph>
<glyph name="ecandralongsigndeva" format="1">
  <advance width="0"/>
  <unicode hex="0955"/>
  <outline>
    <contour>
      <point x="-150" y="730" type="move" name="_DVAnchor3"/>
    </contour>
    <contour>
      <point x="21" y="801" type="line"/>
      <point x="-320" y="801" type="line"/>
      <point x="-320" y="851" type="line"/>
      <point x="21" y="851" type="line"/>
    </contour>
    <contour>
      <point x="21" y="1056" type="line"/>
      <point x="21" y="975"/>
      <point x="-7" y="897"/>
      <point x="-150" y="897" type="curve" smooth="yes"/>
      <point x="-293" y="897"/>
      <point x="-320" y="975"/>
      <point x="-320" y="1056" type="curve"/>
      <point x="-261" y="1056" type="line"/>
      <point x="-261" y="1004"/>
      <point x="-246" y="957"/>
      <point x="-150" y="957" type="curve" smooth="yes"/>
      <point x="-55" y="957"/>
      <point x="-40" y="1004"/>
      <point x="-40" y="1056" type="curve"/>
    </contour>
  </outline>
</glyph>
<glyph name="qadeva" format="1">
  <advance width="890"/>
  <unicode hex="0958"/>
  <outline>
    <contour>
      <point x="465" y="30" type="move" name="DVAnchor0"/>
    </contour>
    <contour>
      <point x="465" y="730" type="move" name="DVAnchor3"/>
    </contour>
    <component base="kadeva"/>
    <component base="nuktadeva" xOffset="826" yOffset="61"/>
  </outline>
</glyph>
<glyph name="rhadeva" format="1">
  <advance width="653"/>
  <unicode hex="095D"/>
  <outline>
    <contour>
      <point x="299" y="46" type="move" name="DVAnchor0"/>
    </contour>
    <contour>
      <point x="460" y="730" type="move" name="DVAnchor3"/>
    </contour>
    <component base="ddhadeva"/>
    <component base="nuktadeva" xOffset="876" yOffset="-75"/>
  </outline>
</glyph>
<glyph name="yyadeva" format="1">
  <advance width="680"/>
  <unicode hex="095F"/>
  <outline>
    <contour>
      <point x="520" y="730" type="move" name="DVAnchor3"/>
    </contour>
    <component base="yadeva"/>
    <component base="nuktadeva" xOffset="668" yOffset="81"/>
  </outline>
</glyph>
<glyph name="rrvocalicdeva" format="1">
  <advance width="924"/>
  <unicode hex="0960"/>
  <outline>
    <contour>
      <point x="505" y="730" type="move" name="DVAnchor3"/>
    </contour>
    <contour>
      <point x="505" y="30" type="move" name="DVAnchor0"/>
    </contour>
    <contour>
      <point x="470" y="680" type="line"/>
      <point x="470" y="0" type="line"/>
      <point x="540" y="0" type="line"/>
      <point x="540" y="680" type="line"/>
      <point x="934" y="680" type="line"/>
      <point x="934" y="730" type="line"/>
      <point x="-10" y="730" type="line"/>
      <point x="-10" y="680" type="line"/>
    </contour>
    <contour>
      <point x="72" y="388" type="line"/>
      <point x="99" y="442"/>
      <point x="148" y="473"/>
      <point x="215" y="473" type="curve" smooth="yes"/>
      <point x="301" y="473"/>
      <point x="347" y="428"/>
      <point x="415" y="354" type="curve" smooth="yes"/>
      <point x="480" y="284" type="line"/>
      <point x="480" y="362" type="line"/>
      <point x="454" y="390" type="line" smooth="yes"/>
      <point x="366" y="484"/>
      <point x="313" y="532"/>
      <point x="208" y="532" type="curve" smooth="yes"/>
      <point x="122" y="532"/>
      <point x="60" y="492"/>
      <point x="23" y="424" type="curve"/>
    </contour>
    <contour>
      <point x="807" y="496" type="line"/>
      <point x="82" y="137" type="line"/>
      <point x="109" y="76" type="line"/>
      <point x="803" y="441" type="line"/>
    </contour>
    <contour>
      <point x="788" y="320" type="line"/>
      <point x="680" y="276"/>
      <point x="634" y="240"/>
      <point x="634" y="159" type="curve" smooth="yes"/>
      <point x="634" y="67"/>
      <point x="698" y="15"/>
      <point x="795" y="15" type="curve" smooth="yes"/>
      <point x="847" y="15"/>
      <point x="902" y="30"/>
      <point x="946" y="53" type="curve"/>
      <point x="926" y="101" type="line"/>
      <point x="885" y="79"/>
      <point x="845" y="66"/>
      <point x="806" y="66" type="curve" smooth="yes"/>
      <point x="729" y="65"/>
      <point x="694" y="102"/>
      <point x="694" y="159" type="curve" smooth="yes"/>
      <point x="694" y="226"/>
      <point x="746" y="246"/>
      <point x="809" y="273" type="curve" smooth="yes"/>
      <point x="872" y="300" type="line"/>
      <point x="802" y="441" type="line"/>
      <point x="842" y="462"/>
      <point x="849" y="481"/>
      <point x="849" y="504" type="curve" smooth="yes"/>
      <point x="849" y="549"/>
      <point x="796" y="585"/>
      <point x="741" y="585" type="curve" smooth="yes"/>
      <point x="690" y="585"/>
      <point x="680" y="551"/>
      <point x="722" y="461" type="curve" smooth="yes"/>
    </contour>
  </outline>
</glyph>
<glyph name="llvocalicdeva" format="1">
  <advance width="895"/>
  <unicode hex="0961"/>
  <outline>
    <contour>
      <point x="-10" y="680" type="line"/>
      <point x="905" y="680" type="line"/>
      <point x="905" y="730" type="line"/>
      <point x="-10" y="730" type="line"/>
    </contour>
    <contour>
      <point x="464" y="414" type="line"/>
      <point x="421" y="480"/>
      <point x="353" y="514"/>
      <point x="260" y="514" type="curve" smooth="yes"/>
      <point x="134" y="514"/>
      <point x="51" y="443"/>
      <point x="51" y="300" type="curve" smooth="yes"/>
      <point x="51" y="158"/>
      <point x="145" y="63"/>
      <point x="323" y="-15" type="curve"/>
      <point x="349" y="42" type="line"/>
      <point x="196" y="110"/>
      <point x="121" y="188"/>
      <point x="121" y="307" type="curve" smooth="yes"/>
      <point x="121" y="408"/>
      <point x="177" y="456"/>
      <point x="260" y="456" type="curve" smooth="yes"/>
      <point x="351" y="456"/>
      <point x="406" y="414"/>
      <point x="426" y="339" type="curve"/>
    </contour>
    <contour>
      <point x="548" y="-63" type="curve" smooth="yes"/>
      <point x="548" y="50"/>
      <point x="840" y="74"/>
      <point x="840" y="300" type="curve" smooth="yes"/>
      <point x="840" y="443"/>
      <point x="757" y="514"/>
      <point x="631" y="514" type="curve" smooth="yes"/>
      <point x="469" y="514"/>
      <point x="384" y="417"/>
      <point x="384" y="246" type="curve"/>
      <point x="451" y="236" type="line"/>
      <point x="451" y="373"/>
      <point x="507" y="456"/>
      <point x="631" y="456" type="curve" smooth="yes"/>
      <point x="714" y="456"/>
      <point x="770" y="408"/>
      <point x="770" y="307" type="curve" smooth="yes"/>
      <point x="770" y="111"/>
      <point x="478" y="107"/>
      <point x="478" y="-63" type="curve" smooth="yes"/>
      <point x="478" y="-145"/>
      <point x="550" y="-172"/>
      <point x="654" y="-172" type="curve"/>
      <point x="654" y="-141" type="line"/>
      <point x="592" y="-141"/>
      <point x="548" y="-123"/>
    </contour>
    <contour>
      <point x="621" y="485" type="line"/>
      <point x="691" y="485" type="line"/>
      <point x="691" y="680" type="line"/>
      <point x="621" y="680" type="line"/>
    </contour>
    <contour>
      <point x="714" y="-286" type="line"/>
      <point x="683" y="-294"/>
      <point x="655" y="-297"/>
      <point x="634" y="-297" type="curve" smooth="yes"/>
      <point x="577" y="-297"/>
      <point x="538" y="-282"/>
      <point x="538" y="-240" type="curve" smooth="yes"/>
      <point x="538" y="-192"/>
      <point x="585" y="-177"/>
      <point x="654" y="-177" type="curve"/>
      <point x="654" y="-146" type="line"/>
      <point x="547" y="-146"/>
      <point x="478" y="-175"/>
      <point x="478" y="-245" type="curve" smooth="yes"/>
      <point x="478" y="-317"/>
      <point x="542" y="-343"/>
      <point x="634" y="-343" type="curve" smooth="yes"/>
      <point x="661" y="-343"/>
      <point x="693" y="-340"/>
      <point x="724" y="-332" type="curve"/>
    </contour>
  </outline>
</glyph>
<glyph name="danda" format="1">
  <advance width="375"/>
  <unicode hex="0964"/>
  <outline>
    <contour>
      <point x="190" y="0" type="line"/>
      <point x="190" y="730" type="line"/>
      <point x="260" y="730" type="line"/>
      <point x="260" y="0" type="line"/>
    </contour>
  </outline>
</glyph>
<glyph name="onedeva" format="1">
  <advance width="605"/>
  <unicode hex="0967"/>
  <outline>
    <contour>
      <point x="270" y="372" type="curve" smooth="yes"/>
      <point x="420" y="372"/>
      <point x="475" y="474"/>
      <point x="475" y="573" type="curve" smooth="yes"/>
      <point x="475" y="672"/>
      <point x="420" y="775"/>
      <point x="270" y="775" type="curve" smooth="yes"/>
      <point x="120" y="775"/>
      <point x="65" y="672"/>
      <point x="65" y="573" type="curve" smooth="yes"/>
      <point x="65" y="474"/>
      <point x="120" y="372"/>
    </contour>
    <contour>
      <point x="270" y="428" type="curve" smooth="yes"/>
      <point x="182" y="428"/>
      <point x="136" y="485"/>
      <point x="136" y="573" type="curve" smooth="yes"/>
      <point x="136" y="661"/>
      <point x="182" y="718"/>
      <point x="270" y="718" type="curve" smooth="yes"/>
      <point x="358" y="718"/>
      <point x="405" y="661"/>
      <point x="405" y="573" type="curve" smooth="yes"/>
      <point x="405" y="485"/>
      <point x="358" y="428"/>
    </contour>
    <contour>
      <point x="403" y="473" type="line"/>
      <point x="403" y="-36" type="line"/>
      <point x="475" y="-36" type="line"/>
      <point x="475" y="573" type="line"/>
    </contour>
  </outline>
</glyph>
<glyph name="threedeva" format="1">
  <advance width="678"/>
  <unicode hex="0969"/>
  <outline>
    <contour>
      <point x="332" y="775" type="curve" smooth="yes"/>
      <point x="250" y="775"/>
      <point x="184" y="746"/>
      <point x="128" y="704" type="curve"/>
      <point x="157" y="654" type="line"/>
      <point x="203" y="690"/>
      <point x="266" y="717"/>
      <point x="327" y="717" type="curve" smooth="yes"/>
      <point x="422" y="717"/>
      <point x="479" y="673"/>
      <point x="479" y="592" type="curve" smooth="yes"/>
      <point x="479" y="518"/>
      <point x="433" y="460"/>
      <point x="351" y="460" type="curve" smooth="yes"/>
      <point x="264" y="460" type="line"/>
      <point x="264" y="416" type="line"/>
      <point x="351" y="416" type="line" smooth="yes"/>
      <point x="456" y="416"/>
      <point x="549" y="485"/>
      <point x="549" y="591" type="curve" smooth="yes"/>
      <point x="549" y="708"/>
      <point x="462" y="775"/>
    </contour>
    <contour>
      <point x="568" y="267" type="curve" smooth="yes"/>
      <point x="568" y="381"/>
      <point x="477" y="449"/>
      <point x="372" y="449" type="curve" smooth="yes"/>
      <point x="264" y="449" type="line"/>
      <point x="264" y="406" type="line"/>
      <point x="360" y="406" type="line" smooth="yes"/>
      <point x="452" y="406"/>
      <point x="498" y="334"/>
      <point x="498" y="267" type="curve" smooth="yes"/>
      <point x="498" y="182"/>
      <point x="432" y="136"/>
      <point x="342" y="136" type="curve" smooth="yes"/>
      <point x="238" y="136"/>
      <point x="168" y="173"/>
      <point x="168" y="229" type="curve"/>
      <point x="147" y="152" type="line"/>
      <point x="180" y="116"/>
      <point x="224" y="77"/>
      <point x="342" y="77" type="curve" smooth="yes"/>
      <point x="466" y="77"/>
      <point x="568" y="144"/>
    </contour>
    <contour>
      <point x="182" y="106" type="curve"/>
      <point x="249" y="19"/>
      <point x="357" y="-67"/>
      <point x="532" y="-131" type="curve"/>
      <point x="547" y="-77" type="line"/>
      <point x="305" y="17"/>
      <point x="192" y="135"/>
      <point x="192" y="290" type="curve"/>
      <point x="46" y="324"/>
      <point x="71" y="168"/>
    </contour>
  </outline>
</glyph>
<glyph name="fivedeva" format="1">
  <advance width="520"/>
  <unicode hex="096B"/>
  <outline>
    <contour>
      <point x="330" y="-143" type="line"/>
      <point x="389" y="-115" type="line" smooth="yes"/>
      <point x="459" y="-82"/>
      <point x="490" y="-45"/>
      <point x="490" y="7" type="curve" smooth="yes"/>
      <point x="490" y="29"/>
      <point x="485" y="52"/>
      <point x="475" y="80" type="curve" smooth="yes"/>
      <point x="389" y="313" type="line"/>
      <point x="425" y="329"/>
      <point x="440" y="350"/>
      <point x="440" y="382" type="curve" smooth="yes"/>
      <point x="440" y="423"/>
      <point x="396" y="457"/>
      <point x="343" y="457" type="curve" smooth="yes"/>
      <point x="308" y="457"/>
      <point x="291" y="441"/>
      <point x="291" y="407" type="curve" smooth="yes"/>
      <point x="291" y="388"/>
      <point x="296" y="363"/>
      <point x="307" y="333" type="curve" smooth="yes"/>
      <point x="408" y="49" type="line" smooth="yes"/>
      <point x="414" y="34"/>
      <point x="417" y="19"/>
      <point x="417" y="6" type="curve" smooth="yes"/>
      <point x="417" y="-23"/>
      <point x="402" y="-45"/>
      <point x="371" y="-62" type="curve" smooth="yes"/>
      <point x="313" y="-93" type="line"/>
    </contour>
    <contour>
      <point x="302" y="297" type="curve" smooth="yes"/>
      <point x="323" y="297"/>
      <point x="335" y="298"/>
      <point x="345" y="300" type="curve"/>
      <point x="366" y="362" type="line"/>
      <point x="352" y="357"/>
      <point x="338" y="356"/>
      <point x="307" y="356" type="curve" smooth="yes"/>
      <point x="201" y="356"/>
      <point x="120" y="434"/>
      <point x="120" y="537" type="curve" smooth="yes"/>
      <point x="120" y="620"/>
      <point x="154" y="690"/>
      <point x="219" y="738" type="curve"/>
      <point x="165" y="775" type="line"/>
      <point x="94" y="719"/>
      <point x="50" y="631"/>
      <point x="50" y="543" type="curve" smooth="yes"/>
      <point x="50" y="402"/>
      <point x="157" y="297"/>
    </contour>
  </outline>
</glyph>
<glyph name="uedeva" format="1">
  <advance width="836"/>
  <unicode hex="0976"/>
  <outline>
    <contour>
      <point x="686" y="790" type="move" name="DVAnchor0"/>
    </contour>
    <component base="uesigndeva" xOffset="716"/>
    <component base="adeva"/>
  </outline>
</glyph>
<glyph name="uuedeva" format="1">
  <advance width="836"/>
  <unicode hex="0977"/>
  <outline>
    <contour>
      <point x="686" y="790" type="move" name="DVAnchor3"/>
    </contour>
    <component base="uuesigndeva" xOffset="716"/>
    <component base="adeva"/>
  </outline>
</glyph>
<glyph name="jjadeva" format="1">
  <advance width="802"/>
  <unicode hex="097C"/>
  <outline>
    <contour>
      <point x="652" y="730" type="move" name="DVAnchor3"/>
    </contour>
    <contour>
      <point x="-10" y="-50" type="line"/>
      <point x="688" y="-50" type="line"/>
      <point x="688" y="0" type="line"/>
      <point x="-10" y="0" type="line"/>
    </contour>
    <component base="jadeva"/>
  </outline>
</glyph>
<glyph name="bbadeva" format="1">
  <advance width="615"/>
  <unicode hex="097F"/>
  <outline>
    <contour>
      <point x="465" y="730" type="move" name="DVAnchor3"/>
    </contour>
    <contour>
      <point x="362" y="185" type="line"/>
      <point x="405" y="210" type="line"/>
      <point x="216" y="537" type="line"/>
      <point x="173" y="512" type="line"/>
    </contour>
    <contour>
      <point x="-10" y="-50" type="line"/>
      <point x="500" y="-50" type="line"/>
      <point x="500" y="0" type="line"/>
      <point x="-10" y="0" type="line"/>
    </contour>
    <component base="vadeva"/>
  </outline>
</glyph>
<glyph name="endash" format="1">
  <advance width="580"/>
  <unicode hex="2013"/>
  <outline>
    <contour>
      <point x="70" y="288" type="line"/>
      <point x="510" y="288" type="line"/>
      <point x="510" y="348" type="line"/>
      <point x="70" y="348" type="line"/>
    </contour>
  </outline>
</glyph>
<glyph name="quotedblright" format="1">
  <advance width="440"/>
  <unicode hex="201D"/>
  <outline>
    <contour>
      <point x="264" y="725" type="curve" smooth="yes"/>
      <point x="264" y="753"/>
      <point x="267" y="783"/>
      <point x="311" y="783" type="curve" smooth="yes"/>
      <point x="357" y="783"/>
      <point x="360" y="753"/>
      <point x="360" y="725" type="curve" smooth="yes"/>
      <point x="360" y="624"/>
      <point x="260" y="555"/>
      <point x="260" y="555" type="curve"/>
      <point x="236" y="582" type="line"/>
      <point x="258" y="601"/>
      <point x="275" y="618"/>
      <point x="275" y="661" type="curve"/>
      <point x="275" y="680"/>
      <point x="264" y="700"/>
    </contour>
    <contour>
      <point x="107" y="725" type="curve" smooth="yes"/>
      <point x="107" y="753"/>
      <point x="110" y="783"/>
      <point x="154" y="783" type="curve" smooth="yes"/>
      <point x="200" y="783"/>
      <point x="203" y="753"/>
      <point x="203" y="725" type="curve" smooth="yes"/>
      <point x="203" y="624"/>
      <point x="103" y="555"/>
      <point x="103" y="555" type="curve"/>
      <point x="80" y="582" type="line"/>
      <point x="101" y="601"/>
      <point x="118" y="618"/>
      <point x="118" y="661" type="curve" smooth="yes"/>
      <point x="118" y="680"/>
      <point x="107" y="700"/>
    </contour>
  </outline>
</glyph>
<glyph name="dagger" format="1">
  <advance width="440"/>
  <unicode hex="2020"/>
  <outline>
    <contour>
      <point x="178" y="730" type="line"/>
      <point x="196" y="0" type="line"/>
      <point x="244" y="0" type="line"/>
      <point x="262" y="730" type="line"/>
    </contour>
    <contour>
      <point x="20" y="496" type="line"/>
      <point x="96" y="496" type="line"/>
      <point x="188" y="508" type="line"/>
      <point x="188" y="560" type="line"/>
      <point x="96" y="572" type="line"/>
      <point x="20" y="572" type="line"/>
    </contour>
    <contour>
      <point x="420" y="572" type="line"/>
      <point x="344" y="572" type="line"/>
      <point x="252" y="560" type="line"/>
      <point x="252" y="508" type="line"/>
      <point x="344" y="496" type="line"/>
      <point x="420" y="496" type="line"/>
    </contour>
  </outline>
</glyph>
<glyph name="ellipsis" format="1">
  <advance width="678"/>
  <unicode hex="2026"/>
  <outline>
    <contour>
      <point x="112" y="-8" type="curve" smooth="yes"/>
      <point x="68" y="-8"/>
      <point x="65" y="23"/>
      <point x="65" y="50" type="curve" smooth="yes"/>
      <point x="65" y="78"/>
      <point x="68" y="109"/>
      <point x="112" y="109" type="curve" smooth="yes"/>
      <point x="158" y="109"/>
      <point x="161" y="78"/>
      <point x="161" y="50" type="curve" smooth="yes"/>
      <point x="161" y="23"/>
      <point x="158" y="-8"/>
    </contour>
    <contour>
      <point x="338" y="-8" type="curve" smooth="yes"/>
      <point x="294" y="-8"/>
      <point x="291" y="23"/>
      <point x="291" y="50" type="curve" smooth="yes"/>
      <point x="291" y="78"/>
      <point x="294" y="109"/>
      <point x="338" y="109" type="curve" smooth="yes"/>
      <point x="384" y="109"/>
      <point x="387" y="78"/>
      <point x="387" y="50" type="curve" smooth="yes"/>
      <point x="387" y="23"/>
      <point x="384" y="-8"/>
    </contour>
    <contour>
      <point x="564" y="-8" type="curve" smooth="yes"/>
      <point x="520" y="-8"/>
      <point x="517" y="23"/>
      <point x="517" y="50" type="curve" smooth="yes"/>
      <point x="517" y="78"/>
      <point x="520" y="109"/>
      <point x="564" y="109" type="curve" smooth="yes"/>
      <point x="610" y="109"/>
      <point x="613" y="78"/>
      <point x="613" y="50" type="curve" smooth="yes"/>
      <point x="613" y="23"/>
      <point x="610" y="-8"/>
    </contour>
  </outline>
</glyph>
<glyph name="guilsinglright" format="1">
  <advance width="305"/>
  <unicode hex="203A"/>
  <outline>
    <contour>
      <point x="184" y="315" type="line"/>
      <point x="60" y="472" type="line"/>
      <point x="107" y="518" type="line"/>
      <point x="275" y="331" type="line"/>
      <point x="275" y="299" type="line"/>
      <point x="107" y="112" type="line"/>
      <point x="60" y="158" type="line"/>
    </contour>
  </outline>
</glyph>
<glyph name="zeroinferior" format="1">
  <advance width="414"/>
  <unicode hex="2080"/>
  <outline>
    <contour>
      <point x="206" y="-115" type="curve" smooth="yes"/>
      <point x="336" y="-115"/>
      <point x="350" y="-33"/>
      <point x="350" y="96" type="curve" smooth="yes"/>
      <point x="350" y="224"/>
      <point x="336" y="306"/>
      <point x="206" y="306" type="curve" smooth="yes"/>
      <point x="77" y="306"/>
      <point x="63" y="224"/>
      <point x="63" y="96" type="curve" smooth="yes"/>
      <point x="63" y="-33"/>
      <point x="77" y="-115"/>
    </contour>
    <contour>
      <point x="206" y="-71" type="curve" smooth="yes"/>
      <point x="127" y="-71"/>
      <point x="118" y="-15"/>
      <point x="118" y="96" type="curve" smooth="yes"/>
      <point x="118" y="206"/>
      <point x="127" y="262"/>
      <point x="206" y="262" type="curve" smooth="yes"/>
      <point x="286" y="262"/>
      <point x="295" y="206"/>
      <point x="295" y="96" type="curve" smooth="yes"/>
      <point x="295" y="-15"/>
      <point x="286" y="-71"/>
    </contour>
  </outline>
</glyph>
<glyph name="threeinferior" format="1">
  <advance width="414"/>
  <unicode hex="2083"/>
  <outline>
    <contour>
      <point x="205" y="262" type="curve" smooth="yes"/>
      <point x="267" y="262"/>
      <point x="286" y="233"/>
      <point x="286" y="188" type="curve" smooth="yes"/>
      <point x="286" y="146"/>
      <point x="262" y="115"/>
      <point x="211" y="115" type="curve" smooth="yes"/>
      <point x="150" y="115" type="line"/>
      <point x="150" y="82" type="line"/>
      <point x="214" y="82" type="line" smooth="yes"/>
      <point x="280" y="82"/>
      <point x="341" y="121"/>
      <point x="341" y="188" type="curve" smooth="yes"/>
      <point x="341" y="259"/>
      <point x="307" y="307"/>
      <point x="208" y="307" type="curve" smooth="yes"/>
      <point x="113" y="307"/>
      <point x="80" y="262"/>
      <point x="80" y="185" type="curve"/>
      <point x="128" y="185" type="line"/>
      <point x="128" y="233"/>
      <point x="148" y="262"/>
    </contour>
    <contour>
      <point x="347" y="-4" type="curve" smooth="yes"/>
      <point x="347" y="72"/>
      <point x="288" y="106"/>
      <point x="220" y="106" type="curve" smooth="yes"/>
      <point x="150" y="106" type="line"/>
      <point x="150" y="73" type="line"/>
      <point x="210" y="73" type="line" smooth="yes"/>
      <point x="266" y="73"/>
      <point x="292" y="44"/>
      <point x="292" y="-3" type="curve" smooth="yes"/>
      <point x="292" y="-46"/>
      <point x="268" y="-71"/>
      <point x="205" y="-71" type="curve" smooth="yes"/>
      <point x="142" y="-71"/>
      <point x="120" y="-42"/>
      <point x="120" y="6" type="curve"/>
      <point x="72" y="6" type="line"/>
      <point x="72" y="-72"/>
      <point x="105" y="-115"/>
      <point x="207" y="-115" type="curve" smooth="yes"/>
      <point x="302" y="-115"/>
      <point x="347" y="-73"/>
    </contour>
  </outline>
</glyph>
<glyph name="fourinferior" format="1">
  <advance width="412"/>
  <unicode hex="2084"/>
  <outline>
    <contour>
      <point x="215" y="298" type="line"/>
      <point x="46" y="21" type="line"/>
      <point x="46" y="-22" type="line"/>
      <point x="348" y="-22" type="line"/>
      <point x="348" y="23" type="line"/>
      <point x="108" y="23" type="line"/>
      <point x="275" y="298" type="line"/>
    </contour>
    <contour>
      <point x="300" y="-107" type="line"/>
      <point x="300" y="298" type="line"/>
      <point x="246" y="298" type="line"/>
      <point x="246" y="-107" type="line"/>
    </contour>
  </outline>
</glyph>
<glyph name="fiveinferior" format="1">
  <advance width="414"/>
  <unicode hex="2085"/>
  <outline>
    <contour>
      <point x="87" y="94" type="line"/>
      <point x="154" y="94" type="line" smooth="yes"/>
      <point x="262" y="94"/>
      <point x="292" y="68"/>
      <point x="292" y="12" type="curve" smooth="yes"/>
      <point x="292" y="-41"/>
      <point x="274" y="-71"/>
      <point x="209" y="-71" type="curve" smooth="yes"/>
      <point x="143" y="-71"/>
      <point x="127" y="-37"/>
      <point x="127" y="16" type="curve"/>
      <point x="79" y="16" type="line"/>
      <point x="79" y="-67"/>
      <point x="110" y="-115"/>
      <point x="209" y="-115" type="curve" smooth="yes"/>
      <point x="313" y="-115"/>
      <point x="347" y="-68"/>
      <point x="347" y="12" type="curve" smooth="yes"/>
      <point x="347" y="107"/>
      <point x="291" y="140"/>
      <point x="164" y="140" type="curve" smooth="yes"/>
      <point x="139" y="140" type="line"/>
      <point x="146" y="254" type="line"/>
      <point x="324" y="254" type="line"/>
      <point x="324" y="298" type="line"/>
      <point x="100" y="298" type="line"/>
    </contour>
  </outline>
</glyph>
<glyph name="sixinferior" format="1">
  <advance width="414"/>
  <unicode hex="2086"/>
  <outline>
    <contour>
      <point x="346" y="15" type="curve" smooth="yes"/>
      <point x="346" y="79"/>
      <point x="312" y="128"/>
      <point x="211" y="128" type="curve" smooth="yes"/>
      <point x="179" y="128"/>
      <point x="137" y="122"/>
      <point x="96" y="108" type="curve"/>
      <point x="96" y="66" type="line"/>
      <point x="137" y="80"/>
      <point x="164" y="86"/>
      <point x="204" y="86" type="curve" smooth="yes"/>
      <point x="270" y="86"/>
      <point x="291" y="54"/>
      <point x="291" y="15" type="curve" smooth="yes"/>
      <point x="291" y="-38"/>
      <point x="274" y="-71"/>
      <point x="207" y="-71" type="curve" smooth="yes"/>
      <point x="136" y="-71"/>
      <point x="118" y="-36"/>
      <point x="118" y="92" type="curve" smooth="yes"/>
      <point x="118" y="200"/>
      <point x="124" y="262"/>
      <point x="207" y="262" type="curve" smooth="yes"/>
      <point x="268" y="262"/>
      <point x="290" y="237"/>
      <point x="290" y="181" type="curve"/>
      <point x="338" y="181" type="line"/>
      <point x="338" y="265"/>
      <point x="305" y="307"/>
      <point x="206" y="307" type="curve" smooth="yes"/>
      <point x="84" y="307"/>
      <point x="64" y="228"/>
      <point x="64" y="68" type="curve" smooth="yes"/>
      <point x="64" y="-52"/>
      <point x="90" y="-115"/>
      <point x="209" y="-115" type="curve" smooth="yes"/>
      <point x="312" y="-115"/>
      <point x="346" y="-65"/>
    </contour>
  </outline>
</glyph>
<glyph name="seveninferior" format="1">
  <advance width="414"/>
  <unicode hex="2087"/>
  <outline>
    <contour>
      <point x="190" y="-107" type="line"/>
      <point x="347" y="258" type="line"/>
      <point x="347" y="298" type="line"/>
      <point x="80" y="298" type="line"/>
      <point x="80" y="254" type="line"/>
      <point x="287" y="254" type="line"/>
      <point x="130" y="-107" type="line"/>
    </contour>
    <contour>
      <point x="80" y="191" type="line"/>
      <point x="120" y="191" type="line"/>
      <point x="120" y="254" type="line"/>
      <point x="80" y="254" type="line"/>
    </contour>
  </outline>
</glyph>
<glyph name="eightinferior" format="1">
  <advance width="414"/>
  <unicode hex="2088"/>
  <outline>
    <contour>
      <point x="190" y="80" type="line"/>
      <point x="144" y="73"/>
      <point x="122" y="46"/>
      <point x="122" y="-2" type="curve" smooth="yes"/>
      <point x="122" y="-45"/>
      <point x="144" y="-72"/>
      <point x="207" y="-72" type="curve" smooth="yes"/>
      <point x="270" y="-72"/>
      <point x="292" y="-45"/>
      <point x="292" y="-2" type="curve" smooth="yes"/>
      <point x="292" y="43"/>
      <point x="277" y="66"/>
      <point x="230" y="73" type="curve" smooth="yes"/>
      <point x="185" y="80" type="line" smooth="yes"/>
      <point x="108" y="92"/>
      <point x="72" y="121"/>
      <point x="72" y="189" type="curve" smooth="yes"/>
      <point x="72" y="261"/>
      <point x="106" y="307"/>
      <point x="207" y="307" type="curve" smooth="yes"/>
      <point x="309" y="307"/>
      <point x="342" y="261"/>
      <point x="342" y="189" type="curve" smooth="yes"/>
      <point x="342" y="121"/>
      <point x="298" y="94"/>
      <point x="223" y="82" type="curve"/>
      <point x="219" y="112" type="line"/>
      <point x="265" y="120"/>
      <point x="287" y="145"/>
      <point x="287" y="187" type="curve" smooth="yes"/>
      <point x="287" y="233"/>
      <point x="271" y="263"/>
      <point x="207" y="263" type="curve" smooth="yes"/>
      <point x="144" y="263"/>
      <point x="128" y="233"/>
      <point x="128" y="187" type="curve" smooth="yes"/>
      <point x="128" y="145"/>
      <point x="142" y="127"/>
      <point x="190" y="119" type="curve" smooth="yes"/>
      <point x="235" y="111" type="line" smooth="yes"/>
      <point x="311" y="98"/>
      <point x="347" y="70"/>
      <point x="347" y="-3" type="curve" smooth="yes"/>
      <point x="347" y="-75"/>
      <point x="304" y="-115"/>
      <point x="207" y="-115" type="curve" smooth="yes"/>
      <point x="110" y="-115"/>
      <point x="67" y="-75"/>
      <point x="67" y="-3" type="curve" smooth="yes"/>
      <point x="67" y="70"/>
      <point x="110" y="98"/>
      <point x="186" y="110" type="curve"/>
    </contour>
  </outline>
</glyph>
<glyph name="nineinferior" format="1">
  <advance width="415"/>
  <unicode hex="2089"/>
  <outline>
    <contour>
      <point x="65" y="177" type="curve" smooth="yes"/>
      <point x="65" y="111"/>
      <point x="96" y="59"/>
      <point x="201" y="59" type="curve" smooth="yes"/>
      <point x="237" y="59"/>
      <point x="272" y="64"/>
      <point x="310" y="77" type="curve"/>
      <point x="310" y="118" type="line"/>
      <point x="269" y="106"/>
      <point x="246" y="102"/>
      <point x="209" y="102" type="curve" smooth="yes"/>
      <point x="141" y="102"/>
      <point x="120" y="140"/>
      <point x="120" y="178" type="curve" smooth="yes"/>
      <point x="120" y="231"/>
      <point x="142" y="262"/>
      <point x="207" y="262" type="curve" smooth="yes"/>
      <point x="279" y="262"/>
      <point x="291" y="227"/>
      <point x="291" y="100" type="curve" smooth="yes"/>
      <point x="291" y="-34"/>
      <point x="275" y="-71"/>
      <point x="203" y="-71" type="curve" smooth="yes"/>
      <point x="141" y="-71"/>
      <point x="120" y="-42"/>
      <point x="120" y="10" type="curve"/>
      <point x="72" y="10" type="line"/>
      <point x="72" y="-69"/>
      <point x="106" y="-115"/>
      <point x="204" y="-115" type="curve" smooth="yes"/>
      <point x="330" y="-115"/>
      <point x="347" y="-38"/>
      <point x="347" y="107" type="curve" smooth="yes"/>
      <point x="347" y="244"/>
      <point x="326" y="307"/>
      <point x="208" y="307" type="curve" smooth="yes"/>
      <point x="104" y="307"/>
      <point x="66" y="257"/>
    </contour>
  </outline>
</glyph>
<glyph name="trademark" format="1">
  <advance width="955"/>
  <unicode hex="2122"/>
  <outline>
    <contour>
      <point x="75" y="680" type="line"/>
      <point x="358" y="680" type="line"/>
      <point x="358" y="730" type="line"/>
      <point x="75" y="730" type="line"/>
    </contour>
    <contour>
      <point x="188" y="712" type="line"/>
      <point x="188" y="288" type="line"/>
      <point x="244" y="288" type="line"/>
      <point x="244" y="712" type="line"/>
    </contour>
    <contour>
      <point x="440" y="730" type="line"/>
      <point x="440" y="288" type="line"/>
      <point x="496" y="288" type="line"/>
      <point x="496" y="730" type="line"/>
    </contour>
    <contour>
      <point x="762" y="730" type="line"/>
      <point x="611" y="328" type="line"/>
      <point x="662" y="328" type="line"/>
      <point x="816" y="730" type="line"/>
    </contour>
    <contour>
      <point x="784" y="730" type="line"/>
      <point x="784" y="288" type="line"/>
      <point x="840" y="288" type="line"/>
      <point x="840" y="730" type="line"/>
    </contour>
    <contour>
      <point x="660" y="328" type="line"/>
      <point x="519" y="730" type="line"/>
      <point x="465" y="730" type="line"/>
      <point x="609" y="328" type="line"/>
    </contour>
  </outline>
</glyph>
<glyph name="partialdiff" format="1">
  <advance width="615"/>
  <unicode hex="2202"/>
  <outline>
    <contour>
      <point x="555" y="374" type="curve" smooth="yes"/>
      <point x="555" y="585"/>
      <point x="477" y="707"/>
      <point x="424" y="764" type="curve"/>
      <point x="382" y="723" type="line"/>
      <point x="436" y="661"/>
      <point x="484" y="576"/>
      <point x="490" y="443" type="curve"/>
      <point x="467" y="479"/>
      <point x="428" y="506"/>
      <point x="351" y="506" type="curve" smooth="yes"/>
      <point x="139" y="506"/>
      <point x="60" y="381"/>
      <point x="60" y="167" type="curve" smooth="yes"/>
      <point x="60" y="70"/>
      <point x="100" y="-14"/>
      <point x="259" y="-14" type="curve" smooth="yes"/>
      <point x="471" y="-14"/>
      <point x="555" y="111"/>
    </contour>
    <contour>
      <point x="270" y="45" type="curve" smooth="yes"/>
      <point x="158" y="45"/>
      <point x="131" y="109"/>
      <point x="131" y="178" type="curve" smooth="yes"/>
      <point x="131" y="345"/>
      <point x="184" y="447"/>
      <point x="341" y="447" type="curve" smooth="yes"/>
      <point x="452" y="447"/>
      <point x="479" y="383"/>
      <point x="479" y="314" type="curve" smooth="yes"/>
      <point x="479" y="147"/>
      <point x="426" y="45"/>
    </contour>
  </outline>
</glyph>
<glyph name="product" format="1">
  <advance width="685"/>
  <unicode hex="220F"/>
  <outline>
    <contour>
      <point x="485" y="670" type="line"/>
      <point x="485" y="-177" type="line"/>
      <point x="555" y="-177" type="line"/>
      <point x="555" y="670" type="line"/>
    </contour>
    <contour>
      <point x="130" y="670" type="line"/>
      <point x="130" y="-177" type="line"/>
      <point x="200" y="-177" type="line"/>
      <point x="200" y="670" type="line"/>
    </contour>
    <contour>
      <point x="70" y="620" type="line"/>
      <point x="615" y="620" type="line"/>
      <point x="615" y="670" type="line"/>
      <point x="70" y="670" type="line"/>
    </contour>
  </outline>
</glyph>
<glyph name="minus" format="1">
  <advance width="580"/>
  <unicode hex="2212"/>
  <outline>
    <contour>
      <point x="94" y="288" type="line"/>
      <point x="486" y="288" type="line"/>
      <point x="486" y="348" type="line"/>
      <point x="94" y="348" type="line"/>
    </contour>
  </outline>
</glyph>
<glyph name="infinity" format="1">
  <advance width="637"/>
  <unicode hex="221E"/>
  <outline>
    <contour>
      <point x="298" y="348" type="line"/>
      <point x="314" y="448"/>
      <point x="352" y="486"/>
      <point x="442" y="486" type="curve" smooth="yes"/>
      <point x="536" y="486"/>
      <point x="597" y="452"/>
      <point x="597" y="318" type="curve" smooth="yes"/>
      <point x="597" y="185"/>
      <point x="536" y="151"/>
      <point x="442" y="151" type="curve" smooth="yes"/>
      <point x="352" y="151"/>
      <point x="316" y="199"/>
      <point x="300" y="298" type="curve"/>
      <point x="339" y="303" type="line"/>
      <point x="349" y="241"/>
      <point x="383" y="211"/>
      <point x="440" y="211" type="curve" smooth="yes"/>
      <point x="501" y="211"/>
      <point x="541" y="233"/>
      <point x="541" y="318" type="curve" smooth="yes"/>
      <point x="541" y="404"/>
      <point x="501" y="426"/>
      <point x="440" y="426" type="curve" smooth="yes"/>
      <point x="383" y="426"/>
      <point x="357" y="406"/>
      <point x="347" y="342" type="curve" smooth="yes"/>
      <point x="339" y="288" type="line" smooth="yes"/>
      <point x="324" y="189"/>
      <point x="284" y="151"/>
      <point x="195" y="151" type="curve" smooth="yes"/>
      <point x="101" y="151"/>
      <point x="40" y="185"/>
      <point x="40" y="318" type="curve" smooth="yes"/>
      <point x="40" y="452"/>
      <point x="101" y="486"/>
      <point x="195" y="486" type="curve" smooth="yes"/>
      <point x="284" y="486"/>
      <point x="321" y="438"/>
      <point x="336" y="339" type="curve"/>
      <point x="298" y="334" type="line"/>
      <point x="288" y="396"/>
      <point x="254" y="426"/>
      <point x="197" y="426" type="curve" smooth="yes"/>
      <point x="136" y="426"/>
      <point x="96" y="404"/>
      <point x="96" y="318" type="curve" smooth="yes"/>
      <point x="96" y="233"/>
      <point x="136" y="211"/>
      <point x="197" y="211" type="curve" smooth="yes"/>
      <point x="254" y="211"/>
      <point x="278" y="230"/>
      <point x="288" y="288" type="curve" smooth="yes"/>
    </contour>
  </outline>
</glyph>
<glyph name="approxequal" format="1">
  <advance width="580"/>
  <unicode hex="2248"/>
  <outline>
    <contour>
      <point x="94" y="388" type="line"/>
      <point x="121" y="372"/>
      <point x="148" y="366"/>
      <point x="176" y="366" type="curve" smooth="yes"/>
      <point x="251" y="366"/>
      <point x="328" y="409"/>
      <point x="404" y="409" type="curve" smooth="yes"/>
      <point x="432" y="409"/>
      <point x="459" y="403"/>
      <point x="486" y="388" type="curve"/>
      <point x="486" y="448" type="line"/>
      <point x="459" y="462"/>
      <point x="431" y="467"/>
      <point x="404" y="467" type="curve" smooth="yes"/>
      <point x="328" y="467"/>
      <point x="251" y="424"/>
      <point x="176" y="424" type="curve" smooth="yes"/>
      <point x="148" y="424"/>
      <point x="121" y="429"/>
      <point x="94" y="448" type="curve"/>
    </contour>
    <contour>
      <point x="94" y="188" type="line"/>
      <point x="121" y="172"/>
      <point x="148" y="166"/>
      <point x="176" y="166" type="curve" smooth="yes"/>
      <point x="251" y="166"/>
      <point x="328" y="209"/>
      <point x="404" y="209" type="curve" smooth="yes"/>
      <point x="432" y="209"/>
      <point x="459" y="203"/>
      <point x="486" y="188" type="curve"/>
      <point x="486" y="248" type="line"/>
      <point x="459" y="262"/>
      <point x="431" y="267"/>
      <point x="404" y="267" type="curve" smooth="yes"/>
      <point x="328" y="267"/>
      <point x="251" y="224"/>
      <point x="176" y="224" type="curve" smooth="yes"/>
      <point x="148" y="224"/>
      <point x="121" y="229"/>
      <point x="94" y="248" type="curve"/>
    </contour>
  </outline>
</glyph>
<glyph name="lozenge" format="1">
  <advance width="572"/>
  <unicode hex="25CA"/>
  <outline>
    <contour>
      <point x="324" y="-100" type="line"/>
      <point x="522" y="335" type="line"/>
      <point x="451" y="335" type="line"/>
      <point x="257" y="-100" type="line"/>
    </contour>
    <contour>
      <point x="315" y="-100" type="line"/>
      <point x="121" y="335" type="line"/>
      <point x="50" y="335" type="line"/>
      <point x="248" y="-100" type="line"/>
    </contour>
    <contour>
      <point x="257" y="770" type="line"/>
      <point x="451" y="335" type="line"/>
      <point x="522" y="335" type="line"/>
      <point x="324" y="770" type="line"/>
    </contour>
    <contour>
      <point x="248" y="770" type="line"/>
      <point x="50" y="335" type="line"/>
      <point x="121" y="335" type="line"/>
      <point x="315" y="770" type="line"/>
    </contour>
  </outline>
</glyph>
<glyph name="acombiningletterdeva" format="1">
  <advance width="388"/>
  <unicode hex="A8EA"/>
  <outline>
    <contour>
      <point x="-150" y="730" type="move" name="_DVAnchor3"/>
    </contour>
    <contour>
      <point x="-262" y="967" type="line"/>
      <point x="-235" y="967" type="line" smooth="yes"/>
      <point x="-183" y="967"/>
      <point x="-134" y="993"/>
      <point x="-134" y="1045" type="curve" smooth="yes"/>
      <point x="-134" y="1098"/>
      <point x="-161" y="1135"/>
      <point x="-235" y="1135" type="curve" smooth="yes"/>
      <point x="-309" y="1135"/>
      <point x="-334" y="1103"/>
      <point x="-334" y="1041" type="curve"/>
      <point x="-291" y="1041" type="line"/>
      <point x="-291" y="1076"/>
      <point x="-277" y="1095"/>
      <point x="-239" y="1095" type="curve" smooth="yes"/>
      <point x="-197" y="1095"/>
      <point x="-184" y="1076"/>
      <point x="-184" y="1046" type="curve" smooth="yes"/>
      <point x="-184" y="1016"/>
      <point x="-199" y="995"/>
      <point x="-239" y="995" type="curve" smooth="yes"/>
      <point x="-262" y="995" type="line"/>
    </contour>
    <contour>
      <point x="-12" y="800" type="line"/>
      <point x="-12" y="1096" type="line"/>
      <point x="40" y="1096" type="line"/>
      <point x="40" y="1129" type="line"/>
      <point x="-113" y="1129" type="line"/>
      <point x="-113" y="1096" type="line"/>
      <point x="-61" y="1096" type="line"/>
      <point x="-61" y="800" type="line"/>
    </contour>
    <contour>
      <point x="-215" y="958" type="line"/>
      <point x="-167" y="958"/>
      <point x="-116" y="907"/>
      <point x="-61" y="960" type="curve"/>
      <point x="-61" y="984" type="line"/>
      <point x="-116" y="939"/>
      <point x="-167" y="986"/>
      <point x="-215" y="986" type="curve"/>
    </contour>
    <contour>
      <point x="-344" y="903" type="line"/>
      <point x="-330" y="848"/>
      <point x="-289" y="818"/>
      <point x="-228" y="818" type="curve" smooth="yes"/>
      <point x="-156" y="818"/>
      <point x="-125" y="854"/>
      <point x="-125" y="906" type="curve" smooth="yes"/>
      <point x="-125" y="963"/>
      <point x="-166" y="988"/>
      <point x="-224" y="988" type="curve" smooth="yes"/>
      <point x="-262" y="988" type="line"/>
      <point x="-262" y="960" type="line"/>
      <point x="-233" y="960" type="line" smooth="yes"/>
      <point x="-199" y="960"/>
      <point x="-174" y="942"/>
      <point x="-174" y="907" type="curve" smooth="yes"/>
      <point x="-174" y="876"/>
      <point x="-189" y="858"/>
      <point x="-230" y="858" type="curve" smooth="yes"/>
      <point x="-264" y="858"/>
      <point x="-289" y="875"/>
      <point x="-299" y="915" type="curve"/>
    </contour>
  </outline>
</glyph>
<glyph name="kacombiningletterdeva" format="1">
  <advance width="0"/>
  <unicode hex="A8EC"/>
  <outline>
    <contour>
      <point x="-150" y="730" type="move" name="_DVAnchor3"/>
    </contour>
    <contour>
      <point x="-373" y="1096" type="line"/>
      <point x="57" y="1096" type="line"/>
      <point x="57" y="1129" type="line"/>
      <point x="-373" y="1129" type="line"/>
    </contour>
    <contour>
      <point x="-175" y="800" type="line"/>
      <point x="-126" y="800" type="line"/>
      <point x="-126" y="1096" type="line"/>
      <point x="-175" y="1096" type="line"/>
    </contour>
    <contour>
      <point x="32" y="943" type="curve" smooth="yes"/>
      <point x="32" y="991"/>
      <point x="23" y="1037"/>
      <point x="-57" y="1037" type="curve" smooth="yes"/>
      <point x="-117" y="1037"/>
      <point x="-148" y="997"/>
      <point x="-149" y="943" type="curve"/>
      <point x="-126" y="943" type="line"/>
      <point x="-126" y="983"/>
      <point x="-103" y="999"/>
      <point x="-70" y="999" type="curve" smooth="yes"/>
      <point x="-23" y="999"/>
      <point x="-17" y="976"/>
      <point x="-17" y="943" type="curve" smooth="yes"/>
      <point x="-17" y="913"/>
      <point x="-26" y="882"/>
      <point x="-43" y="857" type="curve"/>
      <point x="-2" y="837" type="line"/>
      <point x="20" y="870"/>
      <point x="32" y="905"/>
    </contour>
    <contour>
      <point x="-193" y="1029" type="line"/>
      <point x="-209" y="1034"/>
      <point x="-226" y="1037"/>
      <point x="-245" y="1037" type="curve" smooth="yes"/>
      <point x="-322" y="1037"/>
      <point x="-338" y="997"/>
      <point x="-338" y="944" type="curve" smooth="yes"/>
      <point x="-338" y="888"/>
      <point x="-321" y="845"/>
      <point x="-242" y="845" type="curve" smooth="yes"/>
      <point x="-205" y="845"/>
      <point x="-174" y="856"/>
      <point x="-151" y="879" type="curve"/>
      <point x="-151" y="920" type="line"/>
      <point x="-167" y="899"/>
      <point x="-198" y="883"/>
      <point x="-235" y="883" type="curve" smooth="yes"/>
      <point x="-281" y="883"/>
      <point x="-289" y="908"/>
      <point x="-289" y="942" type="curve" smooth="yes"/>
      <point x="-289" y="974"/>
      <point x="-282" y="1000"/>
      <point x="-235" y="1000" type="curve" smooth="yes"/>
      <point x="-223" y="1000"/>
      <point x="-211" y="998"/>
      <point x="-201" y="993" type="curve"/>
    </contour>
  </outline>
</glyph>
<glyph name="candrabindudigitthreedeva" format="1">
  <advance width="541"/>
  <unicode hex="A8F6"/>
  <outline>
    <contour>
      <point x="270" y="376" type="curve" smooth="yes"/>
      <point x="224" y="376"/>
      <point x="186" y="362"/>
      <point x="154" y="338" type="curve"/>
      <point x="175" y="299" type="line"/>
      <point x="200" y="319"/>
      <point x="233" y="333"/>
      <point x="266" y="333" type="curve" smooth="yes"/>
      <point x="309" y="333"/>
      <point x="337" y="313"/>
      <point x="337" y="273" type="curve" smooth="yes"/>
      <point x="337" y="237"/>
      <point x="314" y="208"/>
      <point x="271" y="208" type="curve" smooth="yes"/>
      <point x="231" y="208" type="line"/>
      <point x="231" y="177" type="line"/>
      <point x="273" y="177" type="line" smooth="yes"/>
      <point x="334" y="177"/>
      <point x="391" y="211"/>
      <point x="391" y="272" type="curve" smooth="yes"/>
      <point x="391" y="337"/>
      <point x="342" y="376"/>
    </contour>
    <contour>
      <point x="402" y="97" type="curve" smooth="yes"/>
      <point x="402" y="163"/>
      <point x="348" y="199"/>
      <point x="284" y="199" type="curve" smooth="yes"/>
      <point x="231" y="199" type="line"/>
      <point x="231" y="168" type="line"/>
      <point x="274" y="168" type="line" smooth="yes"/>
      <point x="319" y="168"/>
      <point x="348" y="137"/>
      <point x="348" y="100" type="curve" smooth="yes"/>
      <point x="348" y="58"/>
      <point x="316" y="36"/>
      <point x="272" y="36" type="curve" smooth="yes"/>
      <point x="219" y="36"/>
      <point x="184" y="61"/>
      <point x="181" y="89" type="curve"/>
      <point x="169" y="31" type="line"/>
      <point x="190" y="12"/>
      <point x="215" y="-7"/>
      <point x="274" y="-7" type="curve" smooth="yes"/>
      <point x="343" y="-7"/>
      <point x="402" y="33"/>
    </contour>
    <contour>
      <point x="185" y="11" type="curve"/>
      <point x="221" y="-38"/>
      <point x="282" y="-85"/>
      <point x="382" y="-120" type="curve"/>
      <point x="393" y="-79" type="line"/>
      <point x="271" y="-34"/>
      <point x="201" y="21"/>
      <point x="196" y="116" type="curve"/>
      <point x="117" y="137"/>
      <point x="114" y="50"/>
    </contour>
    <component base="spacingcandrabindudeva"/>
  </outline>
</glyph>
<glyph name="caretdeva" format="1">
  <advance width="601"/>
  <unicode hex="A8FA"/>
  <outline>
    <contour>
      <point x="301" y="698" type="line"/>
      <point x="473" y="923" type="line"/>
      <point x="531" y="871" type="line"/>
      <point x="337" y="650" type="line"/>
      <point x="266" y="650" type="line"/>
      <point x="70" y="871" type="line"/>
      <point x="129" y="923" type="line"/>
    </contour>
  </outline>
</glyph>
<glyph name="zerowidthjoiner" format="1">
  <advance width="0"/>
  <unicode hex="FEFF"/>
  <outline>
    <contour>
      <point x="0" y="-318" type="line"/>
      <point x="0" y="976" type="line"/>
      <point x="221" y="976" type="line"/>
      <point x="221" y="923" type="line"/>
      <point x="52" y="923" type="line"/>
      <point x="52" y="-318" type="line"/>
    </contour>
  </outline>
</glyph>
<glyph name="C.001" format="1">
  <advance width="619"/>
  <outline>
    <contour>
      <point x="560" y="549" type="line"/>
      <point x="546" y="673"/>
      <point x="489" y="744"/>
      <point x="336" y="744" type="curve" smooth="yes"/>
      <point x="106" y="744"/>
      <point x="60" y="602"/>
      <point x="60" y="365" type="curve" smooth="yes"/>
      <point x="60" y="130"/>
      <point x="96" y="-14"/>
      <point x="336" y="-14" type="curve" smooth="yes"/>
      <point x="502" y="-14"/>
      <point x="553" y="77"/>
      <point x="562" y="209" type="curve"/>
      <point x="503" y="212" type="line"/>
      <point x="500" y="120"/>
      <point x="457" y="46"/>
      <point x="336" y="46" type="curve" smooth="yes"/>
      <point x="151" y="46"/>
      <point x="132" y="168"/>
      <point x="132" y="365" type="curve" smooth="yes"/>
      <point x="132" y="562"/>
      <point x="162" y="684"/>
      <point x="336" y="684" type="curve" smooth="yes"/>
      <point x="451" y="684"/>
      <point x="491" y="631"/>
      <point x="501" y="545" type="curve"/>
    </contour>
  </outline>
</glyph>
<glyph name="acute.case" format="1">
  <advance width="314"/>
  <outline>
    <contour>
      <point x="92" y="782" type="line"/>
      <point x="264" y="932" type="line"/>
      <point x="211" y="985" type="line"/>
      <point x="50" y="824" type="line"/>
    </contour>
  </outline>
</glyph>
<glyph name="badeva_viramadeva_radeva" format="1">
  <advance width="615"/>
  <outline>
    <contour>
      <point x="362" y="185" type="line"/>
      <point x="405" y="210" type="line"/>
      <point x="216" y="537" type="line"/>
      <point x="173" y="512" type="line"/>
    </contour>
    <component base="vadeva"/>
    <component base="viramadeva_radeva_alt" xOffset="569" yOffset="35"/>
  </outline>
</glyph>
<glyph name="breve.case" format="1">
  <advance width="425"/>
  <outline>
    <contour>
      <point x="338" y="937" type="line"/>
      <point x="338" y="868"/>
      <point x="325" y="802"/>
      <point x="212" y="802" type="curve" smooth="yes"/>
      <point x="100" y="802"/>
      <point x="87" y="868"/>
      <point x="87" y="937" type="curve"/>
      <point x="142" y="937" type="line"/>
      <point x="142" y="899"/>
      <point x="146" y="863"/>
      <point x="212" y="863" type="curve" smooth="yes"/>
      <point x="278" y="863"/>
      <point x="282" y="899"/>
      <point x="282" y="937" type="curve"/>
    </contour>
  </outline>
</glyph>
<glyph name="caron.case" format="1">
  <advance width="371"/>
  <outline>
    <contour>
      <point x="294" y="985" type="line"/>
      <point x="186" y="875" type="line"/>
      <point x="77" y="985" type="line"/>
      <point x="35" y="943" type="line"/>
      <point x="171" y="788" type="line"/>
      <point x="200" y="788" type="line"/>
      <point x="336" y="943" type="line"/>
    </contour>
  </outline>
</glyph>
<glyph name="chadeva_viramadeva_vadeva" format="1">
  <advance width="749"/>
  <outline>
    <contour>
      <point x="479" y="-176" type="move" name="DVAnchor0"/>
    </contour>
    <contour>
      <point x="287" y="720" type="line"/>
      <point x="127" y="720"/>
      <point x="73" y="672"/>
      <point x="73" y="605" type="curve" smooth="yes"/>
      <point x="73" y="533"/>
      <point x="163" y="484"/>
      <point x="265" y="484" type="curve" smooth="yes"/>
      <point x="309" y="484" type="line"/>
      <point x="309" y="522" type="line"/>
      <point x="264" y="522" type="line" smooth="yes"/>
      <point x="188" y="522"/>
      <point x="143" y="559"/>
      <point x="143" y="602" type="curve" smooth="yes"/>
      <point x="143" y="650"/>
      <point x="174" y="680"/>
      <point x="287" y="680" type="curve"/>
    </contour>
    <contour>
      <point x="759" y="730" type="line"/>
      <point x="-10" y="730" type="line"/>
      <point x="-10" y="680" type="line"/>
      <point x="759" y="680" type="line"/>
    </contour>
    <contour>
      <point x="668" y="467" type="curve" smooth="yes"/>
      <point x="668" y="526"/>
      <point x="633" y="579"/>
      <point x="525" y="579" type="curve" smooth="yes"/>
      <point x="414" y="579"/>
      <point x="382" y="526"/>
      <point x="382" y="467" type="curve" smooth="yes"/>
      <point x="382" y="408"/>
      <point x="395" y="349"/>
      <point x="555" y="329" type="curve"/>
      <point x="577" y="370" type="line"/>
      <point x="454" y="385"/>
      <point x="446" y="422"/>
      <point x="446" y="467" type="curve" smooth="yes"/>
      <point x="446" y="506"/>
      <point x="469" y="534"/>
      <point x="524" y="534" type="curve" smooth="yes"/>
      <point x="580" y="534"/>
      <point x="603" y="506"/>
      <point x="603" y="467" type="curve" smooth="yes"/>
      <point x="603" y="355"/>
      <point x="444" y="287"/>
      <point x="286" y="287" type="curve" smooth="yes"/>
      <point x="188" y="287"/>
      <point x="143" y="320"/>
      <point x="143" y="374" type="curve" smooth="yes"/>
      <point x="143" y="436"/>
      <point x="181" y="475"/>
      <point x="274" y="475" type="curve" smooth="yes"/>
      <point x="309" y="475" type="line"/>
      <point x="309" y="515" type="line"/>
      <point x="263" y="515" type="line" smooth="yes"/>
      <point x="163" y="515"/>
      <point x="73" y="471"/>
      <point x="73" y="374" type="curve" smooth="yes"/>
      <point x="73" y="285"/>
      <point x="148" y="230"/>
      <point x="286" y="230" type="curve" smooth="yes"/>
      <point x="477" y="230"/>
      <point x="668" y="329"/>
    </contour>
    <contour>
      <point x="444" y="-206" type="line"/>
      <point x="514" y="-206" type="line"/>
      <point x="514" y="320" type="line"/>
      <point x="444" y="300" type="line"/>
    </contour>
    <contour>
      <point x="397" y="143" type="line"/>
      <point x="365" y="153"/>
      <point x="331" y="159"/>
      <point x="291" y="159" type="curve" smooth="yes"/>
      <point x="170" y="159"/>
      <point x="115" y="83"/>
      <point x="115" y="2" type="curve" smooth="yes"/>
      <point x="115" y="-83"/>
      <point x="172" y="-158"/>
      <point x="298" y="-158" type="curve" smooth="yes"/>
      <point x="373" y="-158"/>
      <point x="434" y="-138"/>
      <point x="469" y="-114" type="curve"/>
      <point x="469" y="-55" type="line"/>
      <point x="440" y="-81"/>
      <point x="375" y="-103"/>
      <point x="307" y="-103" type="curve" smooth="yes"/>
      <point x="227" y="-103"/>
      <point x="185" y="-56"/>
      <point x="185" y="2" type="curve" smooth="yes"/>
      <point x="185" y="57"/>
      <point x="224" y="104"/>
      <point x="301" y="104" type="curve" smooth="yes"/>
      <point x="330" y="104"/>
      <point x="358" y="100"/>
      <point x="384" y="91" type="curve"/>
    </contour>
    <contour>
      <point x="494" y="558" type="line"/>
      <point x="564" y="558" type="line"/>
      <point x="564" y="680" type="line"/>
      <point x="494" y="680" type="line"/>
    </contour>
  </outline>
</glyph>
<glyph name="circumflex.case" format="1">
  <advance width="401"/>
  <outline>
    <contour>
      <point x="92" y="782" type="line"/>
      <point x="200" y="892" type="line"/>
      <point x="309" y="782" type="line"/>
      <point x="351" y="824" type="line"/>
      <point x="215" y="979" type="line"/>
      <point x="186" y="979" type="line"/>
      <point x="50" y="824" type="line"/>
    </contour>
  </outline>
</glyph>
<glyph name="d.alt" format="1">
  <advance width="636"/>
  <outline>
    <contour>
      <point x="275" y="-14" type="curve" smooth="yes"/>
      <point x="375" y="-14"/>
      <point x="458" y="52"/>
      <point x="492" y="100" type="curve"/>
      <point x="476" y="142" type="line"/>
      <point x="419" y="81"/>
      <point x="363" y="45"/>
      <point x="287" y="45" type="curve" smooth="yes"/>
      <point x="152" y="45"/>
      <point x="130" y="135"/>
      <point x="130" y="258" type="curve" smooth="yes"/>
      <point x="130" y="382"/>
      <point x="155" y="477"/>
      <point x="290" y="477" type="curve" smooth="yes"/>
      <point x="337" y="477"/>
      <point x="405" y="467"/>
      <point x="466" y="433" type="curve"/>
      <point x="488" y="479" type="line"/>
      <point x="432" y="511"/>
      <point x="355" y="536"/>
      <point x="280" y="536" type="curve" smooth="yes"/>
      <point x="82" y="536"/>
      <point x="60" y="403"/>
      <point x="60" y="261" type="curve" smooth="yes"/>
      <point x="60" y="119"/>
      <point x="82" y="-14"/>
    </contour>
    <contour>
      <point x="469" y="0" type="line"/>
      <point x="516" y="0" type="line"/>
      <point x="516" y="750" type="line"/>
      <point x="446" y="750" type="line"/>
      <point x="446" y="109" type="line"/>
      <point x="451" y="84" type="line"/>
    </contour>
    <contour>
      <point x="516" y="0" type="line"/>
      <point x="576" y="0" type="line"/>
      <point x="576" y="50" type="line"/>
      <point x="516" y="50" type="line"/>
    </contour>
  </outline>
</glyph>
<glyph name="da_ddha_ra_yadeva" format="1">
  <advance width="1416"/>
  <outline>
    <contour>
      <point x="1266" y="30" type="move" name="DVAnchor0"/>
    </contour>
    <contour>
      <point x="681" y="485" type="line"/>
      <point x="855" y="485" type="line" smooth="yes"/>
      <point x="928" y="485"/>
      <point x="958" y="462"/>
      <point x="958" y="412" type="curve" smooth="yes"/>
      <point x="958" y="373"/>
      <point x="932" y="334"/>
      <point x="830" y="334" type="curve" smooth="yes"/>
      <point x="774" y="334" type="line"/>
      <point x="793" y="286" type="line"/>
      <point x="830" y="286" type="line" smooth="yes"/>
      <point x="963" y="286"/>
      <point x="1028" y="337"/>
      <point x="1028" y="415" type="curve" smooth="yes"/>
      <point x="1028" y="487"/>
      <point x="988" y="535"/>
      <point x="855" y="535" type="curve" smooth="yes"/>
      <point x="681" y="535" type="line"/>
    </contour>
    <contour>
      <point x="1027" y="98" type="curve" smooth="yes"/>
      <point x="1133" y="98"/>
      <point x="1211" y="136"/>
      <point x="1266" y="202" type="curve"/>
      <point x="1266" y="265" type="line"/>
      <point x="1222" y="207"/>
      <point x="1145" y="156"/>
      <point x="1027" y="156" type="curve" smooth="yes"/>
      <point x="900" y="156"/>
      <point x="844" y="223"/>
      <point x="844" y="334" type="curve"/>
      <point x="774" y="334" type="line"/>
      <point x="774" y="186"/>
      <point x="861" y="98"/>
    </contour>
    <contour>
      <point x="681" y="680" type="line"/>
      <point x="1426" y="680" type="line"/>
      <point x="1426" y="730" type="line"/>
      <point x="681" y="730" type="line"/>
    </contour>
    <contour>
      <point x="1231" y="0" type="line"/>
      <point x="1301" y="0" type="line"/>
      <point x="1301" y="680" type="line"/>
      <point x="1231" y="680" type="line"/>
    </contour>
    <contour>
      <point x="360" y="209" type="line"/>
      <point x="319" y="191"/>
      <point x="293" y="157"/>
      <point x="293" y="103" type="curve" smooth="yes"/>
      <point x="293" y="25"/>
      <point x="342" y="-26"/>
      <point x="452" y="-26" type="curve" smooth="yes"/>
      <point x="537" y="-26"/>
      <point x="625" y="15"/>
      <point x="684" y="93" type="curve"/>
      <point x="654" y="134" type="line"/>
      <point x="614" y="76"/>
      <point x="534" y="30"/>
      <point x="454" y="30" type="curve" smooth="yes"/>
      <point x="389" y="30"/>
      <point x="364" y="59"/>
      <point x="364" y="105" type="curve" smooth="yes"/>
      <point x="364" y="141"/>
      <point x="382" y="166"/>
      <point x="411" y="176" type="curve"/>
    </contour>
    <contour>
      <point x="652" y="185" type="line"/>
      <point x="692" y="206"/>
      <point x="699" y="225"/>
      <point x="699" y="248" type="curve" smooth="yes"/>
      <point x="699" y="293"/>
      <point x="646" y="329"/>
      <point x="591" y="329" type="curve" smooth="yes"/>
      <point x="540" y="329"/>
      <point x="528" y="294"/>
      <point x="572" y="205" type="curve" smooth="yes"/>
      <point x="755" y="-158" type="line"/>
      <point x="817" y="-128" type="line"/>
    </contour>
    <contour>
      <point x="642" y="266" type="line"/>
      <point x="619" y="229"/>
      <point x="575" y="205"/>
      <point x="501" y="205" type="curve" smooth="yes"/>
      <point x="392" y="205"/>
      <point x="347" y="256"/>
      <point x="347" y="345" type="curve" smooth="yes"/>
      <point x="347" y="445"/>
      <point x="413" y="485"/>
      <point x="536" y="485" type="curve" smooth="yes"/>
      <point x="681" y="485" type="line"/>
      <point x="681" y="730" type="line"/>
      <point x="-10" y="730" type="line"/>
      <point x="-10" y="680" type="line"/>
      <point x="611" y="680" type="line"/>
      <point x="611" y="535" type="line"/>
      <point x="527" y="535" type="line" smooth="yes"/>
      <point x="361" y="535"/>
      <point x="277" y="468"/>
      <point x="277" y="345" type="curve" smooth="yes"/>
      <point x="277" y="227"/>
      <point x="345" y="146"/>
      <point x="495" y="146" type="curve" smooth="yes"/>
      <point x="554" y="146"/>
      <point x="638" y="167"/>
      <point x="673" y="205" type="curve"/>
    </contour>
    <contour>
      <point x="248" y="290" type="line"/>
      <point x="218" y="304"/>
      <point x="187" y="309"/>
      <point x="160" y="309" type="curve" smooth="yes"/>
      <point x="70" y="309"/>
      <point x="32" y="258"/>
      <point x="32" y="195" type="curve" smooth="yes"/>
      <point x="32" y="103"/>
      <point x="114" y="30"/>
      <point x="328" y="30" type="curve"/>
      <point x="339" y="84" type="line"/>
      <point x="168" y="84"/>
      <point x="102" y="131"/>
      <point x="102" y="195" type="curve" smooth="yes"/>
      <point x="102" y="231"/>
      <point x="122" y="257"/>
      <point x="169" y="257" type="curve" smooth="yes"/>
      <point x="187" y="257"/>
      <point x="217" y="252"/>
      <point x="239" y="239" type="curve"/>
    </contour>
    <contour>
      <point x="720" y="-20" type="line"/>
      <point x="539" y="-109" type="line"/>
      <point x="567" y="-165" type="line"/>
      <point x="720" y="-88" type="line"/>
    </contour>
  </outline>
</glyph>
<glyph name="dadeva_viramadeva_gadeva" format="1">
  <advance width="610"/>
  <outline>
    <contour>
      <point x="510" y="10" type="move" name="DVAnchor0"/>
    </contour>
    <contour>
      <point x="261" y="159" type="line"/>
      <point x="203" y="159" type="line"/>
      <point x="203" y="58" type="line"/>
      <point x="161" y="58" type="line" smooth="yes"/>
      <point x="145" y="58"/>
      <point x="140" y="51"/>
      <point x="140" y="30" type="curve" smooth="yes"/>
      <point x="140" y="-23"/>
      <point x="212" y="-61"/>
      <point x="240" y="-61" type="curve" smooth="yes"/>
      <point x="252" y="-61"/>
      <point x="261" y="-57"/>
      <point x="261" y="-42" type="curve" smooth="yes"/>
    </contour>
    <component base="dadeva"/>
  </outline>
</glyph>
<glyph name="dadeva_viramadeva_madeva" format="1">
  <advance width="799"/>
  <outline>
    <contour>
      <point x="312" y="354" type="line"/>
      <point x="312" y="190" type="line"/>
      <point x="266" y="190" type="line" smooth="yes"/>
      <point x="244" y="190"/>
      <point x="238" y="181"/>
      <point x="238" y="152" type="curve" smooth="yes"/>
      <point x="238" y="97"/>
      <point x="326" y="46"/>
      <point x="356" y="46" type="curve" smooth="yes"/>
      <point x="368" y="46"/>
      <point x="379" y="49"/>
      <point x="379" y="67" type="curve" smooth="yes"/>
      <point x="379" y="140" type="line"/>
      <point x="614" y="140" type="line"/>
      <point x="614" y="0" type="line"/>
      <point x="684" y="0" type="line"/>
      <point x="684" y="680" type="line"/>
      <point x="809" y="680" type="line"/>
      <point x="809" y="730" type="line"/>
      <point x="379" y="730" type="line"/>
      <point x="379" y="680" type="line"/>
      <point x="614" y="680" type="line"/>
      <point x="614" y="190" type="line"/>
      <point x="379" y="190" type="line"/>
      <point x="379" y="354" type="line"/>
    </contour>
    <contour>
      <point x="123" y="439" type="curve" smooth="yes"/>
      <point x="123" y="483"/>
      <point x="147" y="524"/>
      <point x="207" y="524" type="curve" smooth="yes"/>
      <point x="379" y="524" type="line"/>
      <point x="379" y="578" type="line"/>
      <point x="191" y="578" type="line" smooth="yes"/>
      <point x="104" y="578"/>
      <point x="53" y="525"/>
      <point x="53" y="439" type="curve" smooth="yes"/>
      <point x="53" y="353"/>
      <point x="104" y="300"/>
      <point x="191" y="300" type="curve" smooth="yes"/>
      <point x="312" y="300" type="line"/>
      <point x="312" y="354" type="line"/>
      <point x="207" y="354" type="line" smooth="yes"/>
      <point x="147" y="354"/>
      <point x="123" y="395"/>
    </contour>
    <contour>
      <point x="379" y="578" type="line"/>
      <point x="379" y="730" type="line"/>
      <point x="-10" y="730" type="line"/>
      <point x="-10" y="680" type="line"/>
      <point x="309" y="680" type="line"/>
      <point x="309" y="578" type="line"/>
    </contour>
  </outline>
</glyph>
<glyph name="dadeva_viramadeva_nadeva" format="1">
  <advance width="610"/>
  <outline>
    <contour>
      <point x="510" y="10" type="move" name="DVAnchor0"/>
    </contour>
    <component base="dadeva"/>
    <component base="nadeva_viramadeva_alt" xOffset="579" yOffset="-114"/>
  </outline>
</glyph>
<glyph name="ddadeva_viramadeva_ddadeva" format="1">
  <advance width="699"/>
  <outline>
    <contour>
      <point x="318" y="-185" type="move" name="DVAnchor0"/>
    </contour>
    <contour>
      <point x="71" y="275" type="line"/>
      <point x="110" y="199"/>
      <point x="201" y="161"/>
      <point x="367" y="161" type="curve" smooth="yes"/>
      <point x="563" y="161"/>
      <point x="642" y="221"/>
      <point x="642" y="306" type="curve" smooth="yes"/>
      <point x="642" y="388"/>
      <point x="563" y="446"/>
      <point x="370" y="446" type="curve" smooth="yes"/>
      <point x="318" y="446"/>
      <point x="269" y="439"/>
      <point x="226" y="430" type="curve"/>
      <point x="176" y="440"/>
      <point x="156" y="461"/>
      <point x="156" y="486" type="curve" smooth="yes"/>
      <point x="156" y="519"/>
      <point x="186" y="543"/>
      <point x="272" y="543" type="curve"/>
      <point x="272" y="593" type="line"/>
      <point x="145" y="593"/>
      <point x="86" y="545"/>
      <point x="86" y="484" type="curve" smooth="yes"/>
      <point x="86" y="416"/>
      <point x="136" y="386"/>
      <point x="214" y="372" type="curve"/>
      <point x="257" y="385"/>
      <point x="310" y="392"/>
      <point x="359" y="392" type="curve" smooth="yes"/>
      <point x="496" y="392"/>
      <point x="573" y="362"/>
      <point x="573" y="306" type="curve" smooth="yes"/>
      <point x="573" y="247"/>
      <point x="497" y="218"/>
      <point x="367" y="218" type="curve" smooth="yes"/>
      <point x="243" y="218"/>
      <point x="165" y="244"/>
      <point x="132" y="295" type="curve"/>
    </contour>
    <contour>
      <point x="565" y="593" type="line"/>
      <point x="565" y="680" type="line"/>
      <point x="711" y="680" type="line"/>
      <point x="711" y="730" type="line"/>
      <point x="-12" y="730" type="line"/>
      <point x="-12" y="680" type="line"/>
      <point x="495" y="680" type="line"/>
      <point x="495" y="593" type="line"/>
    </contour>
    <contour>
      <point x="272" y="543" type="line"/>
      <point x="565" y="543" type="line"/>
      <point x="565" y="593" type="line"/>
      <point x="272" y="593" type="line"/>
    </contour>
    <contour>
      <point x="71" y="-102" type="line"/>
      <point x="110" y="-178"/>
      <point x="201" y="-216"/>
      <point x="367" y="-216" type="curve" smooth="yes"/>
      <point x="563" y="-216"/>
      <point x="642" y="-156"/>
      <point x="642" y="-71" type="curve" smooth="yes"/>
      <point x="642" y="11"/>
      <point x="563" y="69"/>
      <point x="370" y="69" type="curve" smooth="yes"/>
      <point x="318" y="69"/>
      <point x="269" y="62"/>
      <point x="226" y="53" type="curve"/>
      <point x="176" y="63"/>
      <point x="156" y="84"/>
      <point x="156" y="109" type="curve" smooth="yes"/>
      <point x="156" y="142"/>
      <point x="186" y="166"/>
      <point x="272" y="166" type="curve"/>
      <point x="272" y="216" type="line"/>
      <point x="145" y="216"/>
      <point x="86" y="168"/>
      <point x="86" y="107" type="curve" smooth="yes"/>
      <point x="86" y="39"/>
      <point x="136" y="9"/>
      <point x="214" y="-5" type="curve"/>
      <point x="257" y="8"/>
      <point x="310" y="15"/>
      <point x="359" y="15" type="curve" smooth="yes"/>
      <point x="496" y="15"/>
      <point x="573" y="-15"/>
      <point x="573" y="-71" type="curve" smooth="yes"/>
      <point x="573" y="-130"/>
      <point x="497" y="-159"/>
      <point x="367" y="-159" type="curve" smooth="yes"/>
      <point x="243" y="-159"/>
      <point x="165" y="-133"/>
      <point x="132" y="-82" type="curve"/>
    </contour>
  </outline>
</glyph>
<glyph name="ddhadeva_viramadeva_ddhadeva" format="1">
  <advance width="610"/>
  <outline>
    <contour>
      <point x="299" y="-185" type="move" name="DVAnchor0"/>
    </contour>
    <contour>
      <point x="495" y="680" type="line"/>
      <point x="620" y="680" type="line"/>
      <point x="620" y="730" type="line"/>
      <point x="495" y="730" type="line"/>
    </contour>
    <contour>
      <point x="548" y="390" type="curve" smooth="yes"/>
      <point x="548" y="446"/>
      <point x="534" y="497"/>
      <point x="405" y="497" type="curve" smooth="yes"/>
      <point x="275" y="497"/>
      <point x="262" y="446"/>
      <point x="262" y="390" type="curve" smooth="yes"/>
      <point x="262" y="335"/>
      <point x="276" y="285"/>
      <point x="398" y="266" type="curve"/>
      <point x="457" y="300" type="line"/>
      <point x="333" y="314"/>
      <point x="325" y="347"/>
      <point x="325" y="390" type="curve" smooth="yes"/>
      <point x="325" y="426"/>
      <point x="329" y="449"/>
      <point x="404" y="449" type="curve" smooth="yes"/>
      <point x="480" y="449"/>
      <point x="484" y="426"/>
      <point x="484" y="390" type="curve" smooth="yes"/>
      <point x="484" y="330"/>
      <point x="436" y="287"/>
      <point x="299" y="287" type="curve" smooth="yes"/>
      <point x="173" y="287"/>
      <point x="121" y="331"/>
      <point x="121" y="427" type="curve" smooth="yes"/>
      <point x="121" y="516"/>
      <point x="173" y="544"/>
      <point x="310" y="544" type="curve" smooth="yes"/>
      <point x="495" y="544" type="line"/>
      <point x="495" y="730" type="line"/>
      <point x="-10" y="730" type="line"/>
      <point x="-10" y="680" type="line"/>
      <point x="425" y="680" type="line"/>
      <point x="425" y="600" type="line"/>
      <point x="309" y="600" type="line" smooth="yes"/>
      <point x="123" y="600"/>
      <point x="51" y="551"/>
      <point x="51" y="427" type="curve" smooth="yes"/>
      <point x="51" y="294"/>
      <point x="129" y="234"/>
      <point x="299" y="234" type="curve" smooth="yes"/>
      <point x="487" y="234"/>
      <point x="548" y="301"/>
    </contour>
    <contour>
      <point x="548" y="-59" type="curve" smooth="yes"/>
      <point x="548" y="-3"/>
      <point x="534" y="48"/>
      <point x="405" y="48" type="curve" smooth="yes"/>
      <point x="275" y="48"/>
      <point x="262" y="-3"/>
      <point x="262" y="-59" type="curve" smooth="yes"/>
      <point x="262" y="-114"/>
      <point x="276" y="-164"/>
      <point x="398" y="-183" type="curve"/>
      <point x="457" y="-149" type="line"/>
      <point x="333" y="-135"/>
      <point x="325" y="-102"/>
      <point x="325" y="-59" type="curve" smooth="yes"/>
      <point x="325" y="-23"/>
      <point x="329" y="0"/>
      <point x="404" y="0" type="curve" smooth="yes"/>
      <point x="480" y="0"/>
      <point x="484" y="-23"/>
      <point x="484" y="-59" type="curve" smooth="yes"/>
      <point x="484" y="-119"/>
      <point x="436" y="-162"/>
      <point x="299" y="-162" type="curve" smooth="yes"/>
      <point x="173" y="-162"/>
      <point x="121" y="-118"/>
      <point x="121" y="-22" type="curve" smooth="yes"/>
      <point x="121" y="67"/>
      <point x="173" y="95"/>
      <point x="310" y="95" type="curve" smooth="yes"/>
      <point x="495" y="95" type="line"/>
      <point x="495" y="311" type="line"/>
      <point x="425" y="281" type="line"/>
      <point x="425" y="151" type="line"/>
      <point x="309" y="151" type="line" smooth="yes"/>
      <point x="123" y="151"/>
      <point x="51" y="102"/>
      <point x="51" y="-22" type="curve" smooth="yes"/>
      <point x="51" y="-155"/>
      <point x="129" y="-215"/>
      <point x="299" y="-215" type="curve" smooth="yes"/>
      <point x="487" y="-215"/>
      <point x="548" y="-148"/>
    </contour>
  </outline>
</glyph>
<glyph name="dhadeva_viramadeva_radeva" format="1">
  <advance width="678"/>
  <outline>
    <contour>
      <point x="502" y="207" type="line"/>
      <point x="103" y="-25" type="line"/>
      <point x="133" y="-79" type="line"/>
      <point x="413" y="101" type="line"/>
    </contour>
    <component base="dhadeva"/>
  </outline>
</glyph>
<glyph name="dieresis.case" format="1">
  <advance width="308"/>
  <outline>
    <contour>
      <point x="48" y="830" type="curve" smooth="yes"/>
      <point x="7" y="830"/>
      <point x="5" y="858"/>
      <point x="5" y="883" type="curve" smooth="yes"/>
      <point x="5" y="909"/>
      <point x="7" y="937"/>
      <point x="48" y="937" type="curve" smooth="yes"/>
      <point x="91" y="937"/>
      <point x="93" y="909"/>
      <point x="93" y="883" type="curve" smooth="yes"/>
      <point x="93" y="858"/>
      <point x="91" y="830"/>
    </contour>
    <contour>
      <point x="258" y="830" type="curve" smooth="yes"/>
      <point x="217" y="830"/>
      <point x="215" y="858"/>
      <point x="215" y="883" type="curve" smooth="yes"/>
      <point x="215" y="909"/>
      <point x="217" y="937"/>
      <point x="258" y="937" type="curve" smooth="yes"/>
      <point x="301" y="937"/>
      <point x="303" y="909"/>
      <point x="303" y="883" type="curve" smooth="yes"/>
      <point x="303" y="858"/>
      <point x="301" y="830"/>
    </contour>
  </outline>
</glyph>
<glyph name="dotaccent.case" format="1">
  <advance width="274"/>
  <outline>
    <contour>
      <point x="144" y="818" type="curve" smooth="yes"/>
      <point x="194" y="818"/>
      <point x="197" y="853"/>
      <point x="197" y="883" type="curve" smooth="yes"/>
      <point x="197" y="914"/>
      <point x="194" y="949"/>
      <point x="144" y="949" type="curve" smooth="yes"/>
      <point x="96" y="949"/>
      <point x="93" y="914"/>
      <point x="93" y="883" type="curve" smooth="yes"/>
      <point x="93" y="853"/>
      <point x="96" y="818"/>
    </contour>
  </outline>
</glyph>
<glyph name="eightcombiningdigitdeva" format="1">
  <advance width="0"/>
  <outline>
    <contour>
      <point x="-150" y="730" type="move" name="_DVAnchor3"/>
    </contour>
    <contour>
      <point x="-166" y="794" type="curve" smooth="yes"/>
      <point x="-244" y="794"/>
      <point x="-263" y="844"/>
      <point x="-263" y="883" type="curve" smooth="yes"/>
      <point x="-263" y="916"/>
      <point x="-253" y="944"/>
      <point x="-225" y="988" type="curve" smooth="yes"/>
      <point x="-129" y="1143" type="line"/>
      <point x="-89" y="1119" type="line"/>
      <point x="-192" y="951" type="line" smooth="yes"/>
      <point x="-207" y="927"/>
      <point x="-213" y="909"/>
      <point x="-213" y="889" type="curve" smooth="yes"/>
      <point x="-213" y="866"/>
      <point x="-205" y="837"/>
      <point x="-159" y="837" type="curve" smooth="yes"/>
      <point x="-119" y="837"/>
      <point x="-93" y="862"/>
      <point x="-74" y="894" type="curve"/>
      <point x="-38" y="869" type="line"/>
      <point x="-66" y="825"/>
      <point x="-105" y="794"/>
    </contour>
  </outline>
</glyph>
<glyph name="esigndeva_anusvaradeva" format="1">
  <advance width="0"/>
  <outline>
    <contour>
      <point x="-134" y="730" type="move" name="_DVAnchor3"/>
    </contour>
    <contour>
      <point x="-113" y="730" type="line"/>
      <point x="-404" y="1066" type="line"/>
      <point x="-455" y="1022" type="line"/>
      <point x="-185" y="730" type="line"/>
    </contour>
    <contour>
      <point x="-140" y="922" type="curve" smooth="yes"/>
      <point x="-103" y="922"/>
      <point x="-87" y="937"/>
      <point x="-87" y="973" type="curve" smooth="yes"/>
      <point x="-87" y="1010"/>
      <point x="-102" y="1025"/>
      <point x="-140" y="1025" type="curve" smooth="yes"/>
      <point x="-176" y="1025"/>
      <point x="-191" y="1010"/>
      <point x="-191" y="973" type="curve" smooth="yes"/>
      <point x="-191" y="937"/>
      <point x="-176" y="922"/>
    </contour>
  </outline>
</glyph>
<glyph name="eslash" format="1">
  <advance width="310"/>
  <outline>
    <contour>
      <point x="30" y="302" type="line"/>
      <point x="280" y="402" type="line"/>
      <point x="280" y="457" type="line"/>
      <point x="30" y="357" type="line"/>
    </contour>
  </outline>
</glyph>
<glyph name="eslash.001" format="1">
  <advance width="218"/>
  <outline>
    <contour>
      <point x="218" y="426" type="line"/>
      <point x="218" y="483" type="line"/>
      <point x="0" y="319" type="line"/>
      <point x="0" y="262" type="line"/>
    </contour>
  </outline>
</glyph>
<glyph name="fivecombiningdigitdeva" format="1">
  <advance width="0"/>
  <outline>
    <contour>
      <point x="-150" y="730" type="move" name="_DVAnchor3"/>
    </contour>
    <contour>
      <point x="-114" y="744" type="line"/>
      <point x="-89" y="755" type="line" smooth="yes"/>
      <point x="-57" y="769"/>
      <point x="-40" y="789"/>
      <point x="-40" y="814" type="curve" smooth="yes"/>
      <point x="-40" y="826"/>
      <point x="-42" y="836"/>
      <point x="-47" y="851" type="curve" smooth="yes"/>
      <point x="-78" y="939" type="line"/>
      <point x="-62" y="947"/>
      <point x="-55" y="957"/>
      <point x="-55" y="972" type="curve" smooth="yes"/>
      <point x="-55" y="995"/>
      <point x="-81" y="1016"/>
      <point x="-111" y="1016" type="curve" smooth="yes"/>
      <point x="-130" y="1016"/>
      <point x="-142" y="1006"/>
      <point x="-142" y="983" type="curve" smooth="yes"/>
      <point x="-142" y="977"/>
      <point x="-140" y="965"/>
      <point x="-135" y="950" type="curve" smooth="yes"/>
      <point x="-96" y="836" type="line" smooth="yes"/>
      <point x="-93" y="828"/>
      <point x="-91" y="819"/>
      <point x="-91" y="813" type="curve" smooth="yes"/>
      <point x="-91" y="800"/>
      <point x="-98" y="791"/>
      <point x="-113" y="783" type="curve" smooth="yes"/>
      <point x="-128" y="775" type="line"/>
    </contour>
    <contour>
      <point x="-136" y="926" type="curve" smooth="yes"/>
      <point x="-127" y="926"/>
      <point x="-122" y="927"/>
      <point x="-118" y="928" type="curve"/>
      <point x="-106" y="970" type="line"/>
      <point x="-111" y="968"/>
      <point x="-116" y="968"/>
      <point x="-128" y="968" type="curve" smooth="yes"/>
      <point x="-173" y="968"/>
      <point x="-205" y="998"/>
      <point x="-205" y="1040" type="curve" smooth="yes"/>
      <point x="-205" y="1072"/>
      <point x="-191" y="1101"/>
      <point x="-165" y="1121" type="curve"/>
      <point x="-201" y="1149" type="line"/>
      <point x="-235" y="1124"/>
      <point x="-255" y="1084"/>
      <point x="-255" y="1040" type="curve" smooth="yes"/>
      <point x="-255" y="975"/>
      <point x="-206" y="926"/>
    </contour>
  </outline>
</glyph>
<glyph name="fourcombiningdigitdeva" format="1">
  <advance width="0"/>
  <outline>
    <contour>
      <point x="-150" y="730" type="move" name="_DVAnchor3"/>
    </contour>
    <contour>
      <point x="-84" y="1144" type="line"/>
      <point x="-58" y="1125"/>
      <point x="-33" y="1092"/>
      <point x="-33" y="1048" type="curve" smooth="yes"/>
      <point x="-33" y="977"/>
      <point x="-80" y="950"/>
      <point x="-138" y="938" type="curve"/>
      <point x="-145" y="964" type="line"/>
      <point x="-112" y="972"/>
      <point x="-83" y="1000"/>
      <point x="-83" y="1045" type="curve" smooth="yes"/>
      <point x="-83" y="1079"/>
      <point x="-102" y="1103"/>
      <point x="-120" y="1116" type="curve"/>
    </contour>
    <contour>
      <point x="-182" y="1116" type="line"/>
      <point x="-200" y="1103"/>
      <point x="-217" y="1079"/>
      <point x="-217" y="1044" type="curve" smooth="yes"/>
      <point x="-217" y="1000"/>
      <point x="-195" y="976"/>
      <point x="-161" y="971" type="curve" smooth="yes"/>
      <point x="-129" y="966" type="line" smooth="yes"/>
      <point x="-68" y="956"/>
      <point x="-43" y="923"/>
      <point x="-43" y="878" type="curve" smooth="yes"/>
      <point x="-43" y="836"/>
      <point x="-76" y="794"/>
      <point x="-150" y="794" type="curve" smooth="yes"/>
      <point x="-225" y="794"/>
      <point x="-258" y="836"/>
      <point x="-258" y="878" type="curve" smooth="yes"/>
      <point x="-258" y="922"/>
      <point x="-224" y="954"/>
      <point x="-166" y="963" type="curve"/>
      <point x="-163" y="937" type="line"/>
      <point x="-194" y="932"/>
      <point x="-208" y="906"/>
      <point x="-208" y="879" type="curve" smooth="yes"/>
      <point x="-208" y="855"/>
      <point x="-194" y="832"/>
      <point x="-151" y="832" type="curve" smooth="yes"/>
      <point x="-107" y="832"/>
      <point x="-92" y="855"/>
      <point x="-92" y="879" type="curve" smooth="yes"/>
      <point x="-92" y="904"/>
      <point x="-102" y="927"/>
      <point x="-135" y="932" type="curve" smooth="yes"/>
      <point x="-168" y="937" type="line" smooth="yes"/>
      <point x="-229" y="946"/>
      <point x="-267" y="977"/>
      <point x="-267" y="1048" type="curve" smooth="yes"/>
      <point x="-267" y="1091"/>
      <point x="-244" y="1125"/>
      <point x="-218" y="1144" type="curve"/>
    </contour>
  </outline>
</glyph>
<glyph name="gadeva_viramadeva" format="1">
  <advance width="315"/>
  <outline>
    <contour>
      <point x="-10" y="680" type="line"/>
      <point x="325" y="680" type="line"/>
      <point x="325" y="730" type="line"/>
      <point x="-10" y="730" type="line"/>
    </contour>
    <contour>
      <point x="130" y="395" type="line"/>
      <point x="87" y="395" type="line" smooth="yes"/>
      <point x="65" y="395"/>
      <point x="59" y="386"/>
      <point x="59" y="357" type="curve" smooth="yes"/>
      <point x="59" y="302"/>
      <point x="147" y="251"/>
      <point x="177" y="251" type="curve" smooth="yes"/>
      <point x="189" y="251"/>
      <point x="200" y="254"/>
      <point x="200" y="272" type="curve" smooth="yes"/>
      <point x="200" y="680" type="line"/>
      <point x="130" y="680" type="line"/>
    </contour>
  </outline>
</glyph>
